G75*
G70*
%OFA0B0*%
%FSLAX24Y24*%
%IPPOS*%
%LPD*%
%AMOC8*
5,1,8,0,0,1.08239X$1,22.5*
%
%ADD10C,0.0000*%
D10*
X000262Y000262D02*
X000262Y008458D01*
X006732Y008458D01*
X006732Y000262D01*
X000262Y000262D01*
X000622Y001262D02*
X000624Y001312D01*
X000630Y001362D01*
X000640Y001411D01*
X000654Y001459D01*
X000671Y001506D01*
X000692Y001551D01*
X000717Y001595D01*
X000745Y001636D01*
X000777Y001675D01*
X000811Y001712D01*
X000848Y001746D01*
X000888Y001776D01*
X000930Y001803D01*
X000974Y001827D01*
X001020Y001848D01*
X001067Y001864D01*
X001115Y001877D01*
X001165Y001886D01*
X001214Y001891D01*
X001265Y001892D01*
X001315Y001889D01*
X001364Y001882D01*
X001413Y001871D01*
X001461Y001856D01*
X001507Y001838D01*
X001552Y001816D01*
X001595Y001790D01*
X001636Y001761D01*
X001675Y001729D01*
X001711Y001694D01*
X001743Y001656D01*
X001773Y001616D01*
X001800Y001573D01*
X001823Y001529D01*
X001842Y001483D01*
X001858Y001435D01*
X001870Y001386D01*
X001878Y001337D01*
X001882Y001287D01*
X001882Y001237D01*
X001878Y001187D01*
X001870Y001138D01*
X001858Y001089D01*
X001842Y001041D01*
X001823Y000995D01*
X001800Y000951D01*
X001773Y000908D01*
X001743Y000868D01*
X001711Y000830D01*
X001675Y000795D01*
X001636Y000763D01*
X001595Y000734D01*
X001552Y000708D01*
X001507Y000686D01*
X001461Y000668D01*
X001413Y000653D01*
X001364Y000642D01*
X001315Y000635D01*
X001265Y000632D01*
X001214Y000633D01*
X001165Y000638D01*
X001115Y000647D01*
X001067Y000660D01*
X001020Y000676D01*
X000974Y000697D01*
X000930Y000721D01*
X000888Y000748D01*
X000848Y000778D01*
X000811Y000812D01*
X000777Y000849D01*
X000745Y000888D01*
X000717Y000929D01*
X000692Y000973D01*
X000671Y001018D01*
X000654Y001065D01*
X000640Y001113D01*
X000630Y001162D01*
X000624Y001212D01*
X000622Y001262D01*
X000622Y007462D02*
X000624Y007512D01*
X000630Y007562D01*
X000640Y007611D01*
X000654Y007659D01*
X000671Y007706D01*
X000692Y007751D01*
X000717Y007795D01*
X000745Y007836D01*
X000777Y007875D01*
X000811Y007912D01*
X000848Y007946D01*
X000888Y007976D01*
X000930Y008003D01*
X000974Y008027D01*
X001020Y008048D01*
X001067Y008064D01*
X001115Y008077D01*
X001165Y008086D01*
X001214Y008091D01*
X001265Y008092D01*
X001315Y008089D01*
X001364Y008082D01*
X001413Y008071D01*
X001461Y008056D01*
X001507Y008038D01*
X001552Y008016D01*
X001595Y007990D01*
X001636Y007961D01*
X001675Y007929D01*
X001711Y007894D01*
X001743Y007856D01*
X001773Y007816D01*
X001800Y007773D01*
X001823Y007729D01*
X001842Y007683D01*
X001858Y007635D01*
X001870Y007586D01*
X001878Y007537D01*
X001882Y007487D01*
X001882Y007437D01*
X001878Y007387D01*
X001870Y007338D01*
X001858Y007289D01*
X001842Y007241D01*
X001823Y007195D01*
X001800Y007151D01*
X001773Y007108D01*
X001743Y007068D01*
X001711Y007030D01*
X001675Y006995D01*
X001636Y006963D01*
X001595Y006934D01*
X001552Y006908D01*
X001507Y006886D01*
X001461Y006868D01*
X001413Y006853D01*
X001364Y006842D01*
X001315Y006835D01*
X001265Y006832D01*
X001214Y006833D01*
X001165Y006838D01*
X001115Y006847D01*
X001067Y006860D01*
X001020Y006876D01*
X000974Y006897D01*
X000930Y006921D01*
X000888Y006948D01*
X000848Y006978D01*
X000811Y007012D01*
X000777Y007049D01*
X000745Y007088D01*
X000717Y007129D01*
X000692Y007173D01*
X000671Y007218D01*
X000654Y007265D01*
X000640Y007313D01*
X000630Y007362D01*
X000624Y007412D01*
X000622Y007462D01*
M02*
