%
M48
M72
T01C0.0130
T02C0.0354
T03C0.0400
T04C0.1181
%
T01
X5490Y11200
X5890Y11650
X7590Y12250
X26840Y18300
X26790Y20050
T02
X26690Y15650
X25690Y15650
X24690Y15650
X23690Y15650
X22690Y15650
X21690Y15650
X20690Y15650
X19690Y15650
X18690Y15650
X17690Y15650
X16690Y15650
X15690Y15650
X14690Y15650
X13690Y15650
X12690Y15650
X11690Y15650
X10690Y15650
X9690Y15650
X8690Y15650
X7690Y15650
X6690Y15650
X5690Y15650
X4690Y15650
X4690Y6650
X5690Y6650
X6690Y6650
X7690Y6650
X8690Y6650
X9690Y6650
X10690Y6650
X11690Y6650
X12690Y6650
X13690Y6650
X14690Y6650
X15690Y6650
X16690Y6650
X17690Y6650
X18690Y6650
X19690Y6650
X20690Y6650
X21690Y6650
X22690Y6650
X23690Y6650
X24690Y6650
X25690Y6650
X26690Y6650
X27690Y6650
X28690Y6650
X29690Y6650
X30690Y6650
X30690Y15650
X29690Y15650
X28690Y15650
X27690Y15650
T03
X31990Y15650
X32990Y15650
X33990Y15650
X33990Y14650
X32990Y14650
X31990Y14650
X31990Y13650
X32990Y13650
X33990Y13650
X33990Y12650
X32990Y12650
X31990Y12650
X31990Y11650
X32990Y11650
X33990Y11650
X33990Y10650
X32990Y10650
X31990Y10650
X31990Y8650
X32990Y8650
X33990Y8650
X33990Y7650
X32990Y7650
X31990Y7650
X31990Y6650
X32990Y6650
X33990Y6650
X33990Y5650
X32990Y5650
X31990Y5650
X27690Y2650
X26690Y2650
X25690Y2650
X24690Y2650
X23690Y2650
X21690Y2650
X20690Y2650
X19690Y2650
X18690Y2650
X17690Y2650
X15690Y2650
X14690Y2650
X13690Y2650
X12690Y2650
X11690Y2650
X9690Y2650
X8690Y2650
X6690Y2650
X5690Y2650
X6690Y19650
X7690Y19650
X8690Y19650
X9690Y19650
X10690Y19650
X10690Y20650
X9690Y20650
X8690Y20650
X7690Y20650
X6690Y20650
X6690Y21650
X7690Y21650
X8690Y21650
X9690Y21650
X10690Y21650
X10690Y22650
X9690Y22650
X8690Y22650
X7690Y22650
X6690Y22650
X6690Y23650
X7690Y23650
X8690Y23650
X9690Y23650
X10690Y23650
X12690Y19650
X13690Y19650
X14690Y19650
X15690Y19650
X16690Y19650
X21690Y19650
X22690Y19650
X23690Y19650
X24690Y19650
X24690Y20650
X23690Y20650
X22690Y20650
X21690Y20650
X21690Y21650
X22690Y21650
X23690Y21650
X24690Y21650
X27990Y20650
X28990Y20650
X29990Y20650
X30990Y20650
X30990Y19650
X29990Y19650
X28990Y19650
X27990Y19650
X31990Y16650
X32990Y16650
X33990Y16650
X34190Y20650
X34190Y21650
T04
X2940Y1400
X34690Y1400
X34690Y23650
X2940Y23650
M30
