G75*
G70*
%OFA0B0*%
%FSLAX24Y24*%
%IPPOS*%
%LPD*%
%AMOC8*
5,1,8,0,0,1.08239X$1,22.5*
%
%ADD10C,0.0000*%
D10*
X001690Y001150D02*
X001690Y023900D01*
X001692Y023960D01*
X001697Y024021D01*
X001706Y024080D01*
X001719Y024139D01*
X001735Y024198D01*
X001755Y024255D01*
X001778Y024310D01*
X001805Y024365D01*
X001834Y024417D01*
X001867Y024468D01*
X001903Y024517D01*
X001941Y024563D01*
X001983Y024607D01*
X002027Y024649D01*
X002073Y024687D01*
X002122Y024723D01*
X002173Y024756D01*
X002225Y024785D01*
X002280Y024812D01*
X002335Y024835D01*
X002392Y024855D01*
X002451Y024871D01*
X002510Y024884D01*
X002569Y024893D01*
X002630Y024898D01*
X002690Y024900D01*
X034940Y024900D01*
X035000Y024898D01*
X035061Y024893D01*
X035120Y024884D01*
X035179Y024871D01*
X035238Y024855D01*
X035295Y024835D01*
X035350Y024812D01*
X035405Y024785D01*
X035457Y024756D01*
X035508Y024723D01*
X035557Y024687D01*
X035603Y024649D01*
X035647Y024607D01*
X035689Y024563D01*
X035727Y024517D01*
X035763Y024468D01*
X035796Y024417D01*
X035825Y024365D01*
X035852Y024310D01*
X035875Y024255D01*
X035895Y024198D01*
X035911Y024139D01*
X035924Y024080D01*
X035933Y024021D01*
X035938Y023960D01*
X035940Y023900D01*
X035940Y001150D01*
X035938Y001090D01*
X035933Y001029D01*
X035924Y000970D01*
X035911Y000911D01*
X035895Y000852D01*
X035875Y000795D01*
X035852Y000740D01*
X035825Y000685D01*
X035796Y000633D01*
X035763Y000582D01*
X035727Y000533D01*
X035689Y000487D01*
X035647Y000443D01*
X035603Y000401D01*
X035557Y000363D01*
X035508Y000327D01*
X035457Y000294D01*
X035405Y000265D01*
X035350Y000238D01*
X035295Y000215D01*
X035238Y000195D01*
X035179Y000179D01*
X035120Y000166D01*
X035061Y000157D01*
X035000Y000152D01*
X034940Y000150D01*
X002690Y000150D01*
X002630Y000152D01*
X002569Y000157D01*
X002510Y000166D01*
X002451Y000179D01*
X002392Y000195D01*
X002335Y000215D01*
X002280Y000238D01*
X002225Y000265D01*
X002173Y000294D01*
X002122Y000327D01*
X002073Y000363D01*
X002027Y000401D01*
X001983Y000443D01*
X001941Y000487D01*
X001903Y000533D01*
X001867Y000582D01*
X001834Y000633D01*
X001805Y000685D01*
X001778Y000740D01*
X001755Y000795D01*
X001735Y000852D01*
X001719Y000911D01*
X001706Y000970D01*
X001697Y001029D01*
X001692Y001090D01*
X001690Y001150D01*
M02*
