G75*
G70*
%OFA0B0*%
%FSLAX24Y24*%
%IPPOS*%
%LPD*%
%AMOC8*
5,1,8,0,0,1.08239X$1,22.5*
%
%ADD10C,0.0080*%
D10*
X004900Y007790D02*
X004830Y007860D01*
X004830Y008140D01*
X004900Y008210D01*
X005110Y008210D01*
X005110Y007790D01*
X004900Y007790D01*
X005290Y007860D02*
X005360Y007790D01*
X005500Y007790D01*
X005570Y007860D01*
X005500Y008000D02*
X005360Y008000D01*
X005290Y007930D01*
X005290Y007860D01*
X005500Y008000D02*
X005570Y008070D01*
X005570Y008140D01*
X005500Y008210D01*
X005360Y008210D01*
X005290Y008140D01*
X005751Y008000D02*
X005821Y008070D01*
X005961Y008070D01*
X006031Y008000D01*
X006031Y007860D01*
X005961Y007790D01*
X005821Y007790D01*
X005751Y007860D01*
X005751Y008000D01*
X006204Y008070D02*
X006274Y008070D01*
X006414Y007930D01*
X006414Y007790D02*
X006414Y008070D01*
X006595Y008070D02*
X006805Y008070D01*
X006875Y008000D01*
X006875Y007860D01*
X006805Y007790D01*
X006595Y007790D01*
X007042Y007790D02*
X007182Y007790D01*
X007112Y007790D02*
X007112Y008070D01*
X007182Y008070D01*
X007112Y008210D02*
X007112Y008280D01*
X007362Y008000D02*
X007432Y008070D01*
X007502Y008000D01*
X007502Y007790D01*
X007362Y007790D02*
X007362Y008000D01*
X007502Y008000D02*
X007572Y008070D01*
X007642Y008070D01*
X007642Y007790D01*
X008290Y008550D02*
X008290Y008826D01*
X008290Y008550D02*
X003526Y008550D01*
X002935Y009180D02*
X002935Y012487D01*
X002936Y012487D02*
X002933Y012525D01*
X002927Y012563D01*
X002917Y012600D01*
X002903Y012636D01*
X002887Y012671D01*
X002867Y012703D01*
X002844Y012734D01*
X002818Y012763D01*
X002789Y012789D01*
X002758Y012812D01*
X002726Y012832D01*
X002691Y012848D01*
X002655Y012862D01*
X002618Y012872D01*
X002580Y012878D01*
X002542Y012881D01*
X002510Y012880D01*
X002479Y012884D01*
X002448Y012891D01*
X002418Y012902D01*
X002390Y012916D01*
X002364Y012934D01*
X002340Y012955D01*
X002319Y012979D01*
X002301Y013005D01*
X002287Y013033D01*
X002276Y013063D01*
X002269Y013094D01*
X002265Y013125D01*
X002266Y013157D01*
X002266Y013156D02*
X002266Y013471D01*
X003093Y014062D02*
X008290Y014062D01*
X008290Y012133D01*
X008290Y011070D02*
X008290Y009889D01*
X011530Y005840D02*
X011530Y005627D01*
X011743Y005840D01*
X011797Y005840D01*
X011850Y005787D01*
X011850Y005680D01*
X011797Y005627D01*
X011690Y005472D02*
X011690Y005258D01*
X011850Y005418D01*
X011530Y005418D01*
X011583Y005104D02*
X011530Y005050D01*
X011530Y004943D01*
X011583Y004890D01*
X011797Y004890D01*
X011850Y004943D01*
X011850Y005050D01*
X011797Y005104D01*
X012530Y005050D02*
X012530Y004943D01*
X012583Y004890D01*
X012797Y004890D01*
X012850Y004943D01*
X012850Y005050D01*
X012797Y005104D01*
X012690Y005258D02*
X012690Y005472D01*
X012690Y005627D02*
X012743Y005733D01*
X012743Y005787D01*
X012690Y005840D01*
X012583Y005840D01*
X012530Y005787D01*
X012530Y005680D01*
X012583Y005627D01*
X012690Y005627D02*
X012850Y005627D01*
X012850Y005840D01*
X012850Y005418D02*
X012530Y005418D01*
X012690Y005258D02*
X012850Y005418D01*
X012583Y005104D02*
X012530Y005050D01*
X013530Y005104D02*
X013636Y004997D01*
X013636Y005050D02*
X013636Y004890D01*
X013530Y004890D02*
X013850Y004890D01*
X013850Y005050D01*
X013797Y005104D01*
X013690Y005104D01*
X013636Y005050D01*
X013583Y005258D02*
X013530Y005312D01*
X013530Y005418D01*
X013583Y005472D01*
X013636Y005472D01*
X013690Y005418D01*
X013690Y005365D01*
X013690Y005418D02*
X013743Y005472D01*
X013797Y005472D01*
X013850Y005418D01*
X013850Y005312D01*
X013797Y005258D01*
X014530Y005104D02*
X014636Y004997D01*
X014636Y005050D02*
X014636Y004890D01*
X014530Y004890D02*
X014850Y004890D01*
X014850Y005050D01*
X014797Y005104D01*
X014690Y005104D01*
X014636Y005050D01*
X014690Y005258D02*
X014690Y005472D01*
X014530Y005418D02*
X014850Y005418D01*
X014690Y005258D01*
X017530Y005418D02*
X017850Y005418D01*
X017690Y005258D01*
X017690Y005472D01*
X017690Y005627D02*
X017690Y005840D01*
X017850Y005787D02*
X017690Y005627D01*
X017530Y005787D02*
X017850Y005787D01*
X018580Y005787D02*
X018580Y005680D01*
X018633Y005627D01*
X018740Y005733D02*
X018740Y005787D01*
X018686Y005840D01*
X018633Y005840D01*
X018580Y005787D01*
X018740Y005787D02*
X018793Y005840D01*
X018847Y005840D01*
X018900Y005787D01*
X018900Y005680D01*
X018847Y005627D01*
X018740Y005472D02*
X018740Y005258D01*
X018900Y005418D01*
X018580Y005418D01*
X018633Y005104D02*
X018580Y005050D01*
X018580Y004943D01*
X018633Y004890D01*
X018847Y004890D01*
X018900Y004943D01*
X018900Y005050D01*
X018847Y005104D01*
X019530Y005104D02*
X019636Y004997D01*
X019636Y005050D02*
X019636Y004890D01*
X019530Y004890D02*
X019850Y004890D01*
X019850Y005050D01*
X019797Y005104D01*
X019690Y005104D01*
X019636Y005050D01*
X019530Y005258D02*
X019530Y005472D01*
X019530Y005365D02*
X019850Y005365D01*
X019743Y005258D01*
X020530Y005258D02*
X020743Y005472D01*
X020797Y005472D01*
X020850Y005418D01*
X020850Y005312D01*
X020797Y005258D01*
X020797Y005104D02*
X020690Y005104D01*
X020636Y005050D01*
X020636Y004890D01*
X020530Y004890D02*
X020850Y004890D01*
X020850Y005050D01*
X020797Y005104D01*
X020636Y004997D02*
X020530Y005104D01*
X020530Y005258D02*
X020530Y005472D01*
X017850Y005050D02*
X017850Y004943D01*
X017797Y004890D01*
X017583Y004890D01*
X017530Y004943D01*
X017530Y005050D01*
X017583Y005104D01*
X017797Y005104D02*
X017850Y005050D01*
X023580Y004993D02*
X023580Y005100D01*
X023633Y005154D01*
X023580Y004993D02*
X023633Y004940D01*
X023847Y004940D01*
X023900Y004993D01*
X023900Y005100D01*
X023847Y005154D01*
X023740Y005308D02*
X023740Y005522D01*
X023740Y005677D02*
X023740Y005837D01*
X023686Y005890D01*
X023633Y005890D01*
X023580Y005837D01*
X023580Y005730D01*
X023633Y005677D01*
X023740Y005677D01*
X023847Y005783D01*
X023900Y005890D01*
X023900Y005468D02*
X023740Y005308D01*
X023580Y005468D02*
X023900Y005468D01*
X024580Y005418D02*
X024900Y005418D01*
X024740Y005258D01*
X024740Y005472D01*
X024793Y005627D02*
X024900Y005733D01*
X024580Y005733D01*
X024580Y005627D02*
X024580Y005840D01*
X024633Y005104D02*
X024580Y005050D01*
X024580Y004943D01*
X024633Y004890D01*
X024847Y004890D01*
X024900Y004943D01*
X024900Y005050D01*
X024847Y005104D01*
X025530Y005104D02*
X025636Y004997D01*
X025636Y005050D02*
X025636Y004890D01*
X025530Y004890D02*
X025850Y004890D01*
X025850Y005050D01*
X025797Y005104D01*
X025690Y005104D01*
X025636Y005050D01*
X025583Y005258D02*
X025797Y005472D01*
X025850Y005472D01*
X025850Y005258D01*
X025583Y005258D02*
X025530Y005258D01*
X026530Y005312D02*
X026583Y005258D01*
X026636Y005258D01*
X026690Y005312D01*
X026690Y005418D01*
X026636Y005472D01*
X026583Y005472D01*
X026530Y005418D01*
X026530Y005312D01*
X026690Y005312D02*
X026743Y005258D01*
X026797Y005258D01*
X026850Y005312D01*
X026850Y005418D01*
X026797Y005472D01*
X026743Y005472D01*
X026690Y005418D01*
X026690Y005104D02*
X026636Y005050D01*
X026636Y004890D01*
X026530Y004890D02*
X026850Y004890D01*
X026850Y005050D01*
X026797Y005104D01*
X026690Y005104D01*
X026636Y004997D02*
X026530Y005104D01*
X034104Y004957D02*
X034104Y004743D01*
X034158Y004690D01*
X034265Y004690D01*
X034318Y004743D01*
X034104Y004957D01*
X034158Y005010D01*
X034265Y005010D01*
X034318Y004957D01*
X034318Y004743D01*
X034473Y004690D02*
X034686Y004690D01*
X034473Y004904D01*
X034473Y004957D01*
X034526Y005010D01*
X034633Y005010D01*
X034686Y004957D01*
X034841Y004957D02*
X034894Y005010D01*
X035001Y005010D01*
X035055Y004957D01*
X035055Y004743D01*
X035001Y004690D01*
X034894Y004690D01*
X034841Y004743D01*
X034894Y004310D02*
X035001Y004310D01*
X035055Y004257D01*
X035055Y004043D01*
X035001Y003990D01*
X034894Y003990D01*
X034841Y004043D01*
X034686Y003990D02*
X034473Y003990D01*
X034318Y003990D02*
X034104Y003990D01*
X034211Y003990D02*
X034211Y004310D01*
X034318Y004204D01*
X034473Y004204D02*
X034473Y004257D01*
X034526Y004310D01*
X034633Y004310D01*
X034686Y004257D01*
X034841Y004257D02*
X034894Y004310D01*
X034686Y003990D02*
X034473Y004204D01*
X015850Y016685D02*
X015850Y016845D01*
X015797Y016899D01*
X015690Y016899D01*
X015636Y016845D01*
X015636Y016685D01*
X015530Y016685D02*
X015850Y016685D01*
X015636Y016792D02*
X015530Y016899D01*
X015530Y017053D02*
X015530Y017267D01*
X015530Y017160D02*
X015850Y017160D01*
X015743Y017053D01*
X015797Y017422D02*
X015850Y017475D01*
X015850Y017582D01*
X015797Y017635D01*
X015583Y017422D01*
X015530Y017475D01*
X015530Y017582D01*
X015583Y017635D01*
X015797Y017635D01*
X015797Y017422D02*
X015583Y017422D01*
X014850Y017475D02*
X014797Y017422D01*
X014743Y017422D01*
X014690Y017475D01*
X014690Y017635D01*
X014797Y017635D02*
X014850Y017582D01*
X014850Y017475D01*
X014797Y017635D02*
X014583Y017635D01*
X014530Y017582D01*
X014530Y017475D01*
X014583Y017422D01*
X014530Y017267D02*
X014636Y017160D01*
X014636Y017214D02*
X014636Y017053D01*
X014530Y017053D02*
X014850Y017053D01*
X014850Y017214D01*
X014797Y017267D01*
X014690Y017267D01*
X014636Y017214D01*
X013950Y017214D02*
X013790Y017053D01*
X013790Y017267D01*
X013630Y017214D02*
X013950Y017214D01*
X013950Y017422D02*
X013950Y017635D01*
X013897Y017635D01*
X013683Y017422D01*
X013630Y017422D01*
X013683Y016899D02*
X013630Y016845D01*
X013630Y016738D01*
X013683Y016685D01*
X013897Y016685D01*
X013950Y016738D01*
X013950Y016845D01*
X013897Y016899D01*
X012900Y016895D02*
X012900Y016788D01*
X012847Y016735D01*
X012633Y016735D01*
X012580Y016788D01*
X012580Y016895D01*
X012633Y016949D01*
X012740Y017103D02*
X012740Y017317D01*
X012580Y017264D02*
X012900Y017264D01*
X012740Y017103D01*
X012847Y016949D02*
X012900Y016895D01*
X012847Y017472D02*
X012900Y017525D01*
X012900Y017632D01*
X012847Y017685D01*
X012633Y017472D01*
X012580Y017525D01*
X012580Y017632D01*
X012633Y017685D01*
X012847Y017685D01*
X012847Y017472D02*
X012633Y017472D01*
X005550Y019553D02*
X005550Y019714D01*
X005497Y019767D01*
X005390Y019767D01*
X005336Y019714D01*
X005336Y019553D01*
X005230Y019553D02*
X005550Y019553D01*
X005336Y019660D02*
X005230Y019767D01*
X005283Y019922D02*
X005230Y019975D01*
X005230Y020082D01*
X005283Y020135D01*
X005390Y020135D01*
X005443Y020082D01*
X005443Y020028D01*
X005390Y019922D01*
X005550Y019922D01*
X005550Y020135D01*
X004900Y020135D02*
X004847Y020028D01*
X004740Y019922D01*
X004740Y020082D01*
X004686Y020135D01*
X004633Y020135D01*
X004580Y020082D01*
X004580Y019975D01*
X004633Y019922D01*
X004740Y019922D01*
X004740Y019767D02*
X004686Y019714D01*
X004686Y019553D01*
X004580Y019553D02*
X004900Y019553D01*
X004900Y019714D01*
X004847Y019767D01*
X004740Y019767D01*
X004686Y019660D02*
X004580Y019767D01*
X034204Y018290D02*
X034418Y018290D01*
X034311Y018290D02*
X034311Y018610D01*
X034418Y018504D01*
X034573Y018504D02*
X034626Y018450D01*
X034573Y018397D01*
X034573Y018343D01*
X034626Y018290D01*
X034733Y018290D01*
X034786Y018343D01*
X034679Y018450D02*
X034626Y018450D01*
X034573Y018504D02*
X034573Y018557D01*
X034626Y018610D01*
X034733Y018610D01*
X034786Y018557D01*
X034941Y018557D02*
X034994Y018610D01*
X035101Y018610D01*
X035155Y018557D01*
X035155Y018343D01*
X035101Y018290D01*
X034994Y018290D01*
X034941Y018343D01*
X034994Y017860D02*
X035101Y017860D01*
X035155Y017807D01*
X035155Y017593D01*
X035101Y017540D01*
X034994Y017540D01*
X034941Y017593D01*
X034786Y017593D02*
X034733Y017540D01*
X034626Y017540D01*
X034573Y017593D01*
X034573Y017647D01*
X034626Y017700D01*
X034679Y017700D01*
X034626Y017700D02*
X034573Y017754D01*
X034573Y017807D01*
X034626Y017860D01*
X034733Y017860D01*
X034786Y017807D01*
X034941Y017807D02*
X034994Y017860D01*
X034418Y017807D02*
X034418Y017593D01*
X034204Y017807D01*
X034204Y017593D01*
X034258Y017540D01*
X034365Y017540D01*
X034418Y017593D01*
X034418Y017807D02*
X034365Y017860D01*
X034258Y017860D01*
X034204Y017807D01*
M02*
