G75*
G70*
%OFA0B0*%
%FSLAX24Y24*%
%IPPOS*%
%LPD*%
%AMOC8*
5,1,8,0,0,1.08239X$1,22.5*
%
%ADD10R,0.0433X0.0394*%
%ADD11R,0.0660X0.0660*%
%ADD12OC8,0.0660*%
%ADD13R,0.0551X0.0709*%
%ADD14R,0.0748X0.0551*%
%ADD15R,0.0591X0.0315*%
%ADD16R,0.0614X0.0614*%
%ADD17C,0.0614*%
%ADD18R,0.0394X0.0433*%
%ADD19C,0.1581*%
%ADD20C,0.0100*%
%ADD21C,0.0160*%
%ADD22C,0.0270*%
%ADD23C,0.0320*%
D10*
X013690Y003815D03*
X013690Y004485D03*
X014690Y004485D03*
X014690Y003815D03*
X019690Y003815D03*
X019690Y004485D03*
X020690Y004485D03*
X020690Y003815D03*
X025690Y003815D03*
X025690Y004485D03*
X026690Y004485D03*
X026690Y003815D03*
X032905Y004100D03*
X033574Y004100D03*
X033574Y004800D03*
X032905Y004800D03*
X033005Y017650D03*
X033674Y017650D03*
X033674Y018400D03*
X033005Y018400D03*
X015690Y018215D03*
X015690Y018885D03*
X014690Y018885D03*
X014690Y018215D03*
X005390Y020565D03*
X005390Y021235D03*
X004690Y021235D03*
X004690Y020565D03*
D11*
X006690Y019650D03*
X007690Y019650D03*
X008690Y019650D03*
X009690Y019650D03*
X010690Y019650D03*
X012690Y019650D03*
X030990Y019650D03*
X030990Y020650D03*
X034190Y020650D03*
X023690Y002650D03*
X017690Y002650D03*
X011690Y002650D03*
X008690Y002650D03*
X005690Y002650D03*
D12*
X006690Y002650D03*
X009690Y002650D03*
X012690Y002650D03*
X013690Y002650D03*
X014690Y002650D03*
X015690Y002650D03*
X018690Y002650D03*
X019690Y002650D03*
X020690Y002650D03*
X021690Y002650D03*
X024690Y002650D03*
X025690Y002650D03*
X026690Y002650D03*
X027690Y002650D03*
X031990Y005650D03*
X032990Y005650D03*
X033990Y005650D03*
X033990Y006650D03*
X032990Y006650D03*
X031990Y006650D03*
X031990Y007650D03*
X032990Y007650D03*
X033990Y007650D03*
X033990Y008650D03*
X032990Y008650D03*
X031990Y008650D03*
X031990Y010650D03*
X032990Y010650D03*
X033990Y010650D03*
X033990Y011650D03*
X032990Y011650D03*
X031990Y011650D03*
X031990Y012650D03*
X032990Y012650D03*
X033990Y012650D03*
X033990Y013650D03*
X032990Y013650D03*
X031990Y013650D03*
X031990Y014650D03*
X032990Y014650D03*
X033990Y014650D03*
X033990Y015650D03*
X032990Y015650D03*
X031990Y015650D03*
X031990Y016650D03*
X032990Y016650D03*
X033990Y016650D03*
X029990Y019650D03*
X028990Y019650D03*
X027990Y019650D03*
X027990Y020650D03*
X028990Y020650D03*
X029990Y020650D03*
X034190Y021650D03*
X024690Y021650D03*
X023690Y021650D03*
X022690Y021650D03*
X021690Y021650D03*
X021690Y020650D03*
X022690Y020650D03*
X023690Y020650D03*
X024690Y020650D03*
X024690Y019650D03*
X023690Y019650D03*
X022690Y019650D03*
X021690Y019650D03*
X016690Y019650D03*
X015690Y019650D03*
X014690Y019650D03*
X013690Y019650D03*
X010690Y020650D03*
X009690Y020650D03*
X008690Y020650D03*
X007690Y020650D03*
X006690Y020650D03*
X006690Y021650D03*
X007690Y021650D03*
X008690Y021650D03*
X009690Y021650D03*
X010690Y021650D03*
X010690Y022650D03*
X009690Y022650D03*
X008690Y022650D03*
X007690Y022650D03*
X006690Y022650D03*
X006690Y023650D03*
X007690Y023650D03*
X008690Y023650D03*
X009690Y023650D03*
X010690Y023650D03*
D13*
X008132Y011601D03*
X008132Y009357D03*
D14*
X002955Y008727D03*
X002561Y013904D03*
D15*
X004077Y012070D03*
X004234Y011637D03*
X004077Y011204D03*
X003998Y010770D03*
X004077Y010337D03*
X003998Y009904D03*
X004077Y009471D03*
X004077Y009038D03*
D16*
X004690Y006650D03*
D17*
X005690Y006650D03*
X006690Y006650D03*
X007690Y006650D03*
X008690Y006650D03*
X009690Y006650D03*
X010690Y006650D03*
X011690Y006650D03*
X012690Y006650D03*
X013690Y006650D03*
X014690Y006650D03*
X015690Y006650D03*
X016690Y006650D03*
X017690Y006650D03*
X018690Y006650D03*
X019690Y006650D03*
X020690Y006650D03*
X021690Y006650D03*
X022690Y006650D03*
X023690Y006650D03*
X024690Y006650D03*
X025690Y006650D03*
X026690Y006650D03*
X027690Y006650D03*
X028690Y006650D03*
X029690Y006650D03*
X030690Y006650D03*
X030690Y015650D03*
X029690Y015650D03*
X028690Y015650D03*
X027690Y015650D03*
X026690Y015650D03*
X025690Y015650D03*
X024690Y015650D03*
X023690Y015650D03*
X022690Y015650D03*
X021690Y015650D03*
X020690Y015650D03*
X019690Y015650D03*
X018690Y015650D03*
X017690Y015650D03*
X016690Y015650D03*
X015690Y015650D03*
X014690Y015650D03*
X013690Y015650D03*
X012690Y015650D03*
X011690Y015650D03*
X010690Y015650D03*
X009690Y015650D03*
X008690Y015650D03*
X007690Y015650D03*
X006690Y015650D03*
X005690Y015650D03*
X004690Y015650D03*
D18*
X012690Y018215D03*
X013690Y018215D03*
X013690Y018885D03*
X012690Y018885D03*
X012690Y004485D03*
X012690Y003815D03*
X011690Y003815D03*
X011690Y004485D03*
X017690Y004485D03*
X017690Y003815D03*
X018690Y003815D03*
X018690Y004485D03*
X023690Y004485D03*
X023690Y003815D03*
X024690Y003815D03*
X024690Y004485D03*
D19*
X034690Y001400D03*
X002940Y001400D03*
X002940Y023650D03*
X034690Y023650D03*
D20*
X002124Y000584D02*
X001977Y000787D01*
X001899Y001025D01*
X001890Y001150D01*
X001890Y023900D01*
X001899Y024025D01*
X001977Y024263D01*
X002124Y024466D01*
X002326Y024613D01*
X002564Y024690D01*
X002690Y024700D01*
X034940Y024700D01*
X035065Y024690D01*
X035303Y024613D01*
X035505Y024466D01*
X035652Y024263D01*
X035730Y024025D01*
X035740Y023900D01*
X035740Y001150D01*
X035730Y001025D01*
X035652Y000787D01*
X035505Y000584D01*
X035303Y000437D01*
X035065Y000360D01*
X034940Y000350D01*
X002690Y000350D01*
X002564Y000360D01*
X002326Y000437D01*
X002124Y000584D01*
X002179Y000544D02*
X035450Y000544D01*
X035548Y000643D02*
X002082Y000643D01*
X002010Y000741D02*
X035619Y000741D01*
X035670Y000840D02*
X001960Y000840D01*
X001928Y000938D02*
X035702Y000938D01*
X035731Y001037D02*
X001899Y001037D01*
X001891Y001135D02*
X035738Y001135D01*
X035740Y001234D02*
X001890Y001234D01*
X001890Y001332D02*
X035740Y001332D01*
X035740Y001431D02*
X031709Y001431D01*
X031665Y001387D02*
X033065Y002787D01*
X033152Y002874D01*
X033200Y002988D01*
X033200Y003769D01*
X033240Y003809D01*
X033266Y003783D01*
X033300Y003763D01*
X033338Y003753D01*
X033526Y003753D01*
X033526Y004052D01*
X033623Y004052D01*
X033623Y004148D01*
X033941Y004148D01*
X033941Y004317D01*
X033931Y004355D01*
X033911Y004389D01*
X033883Y004417D01*
X033849Y004437D01*
X033811Y004447D01*
X033623Y004447D01*
X033623Y004148D01*
X033526Y004148D01*
X033526Y004447D01*
X033338Y004447D01*
X033300Y004437D01*
X033266Y004417D01*
X033240Y004391D01*
X033215Y004416D01*
X033215Y004484D01*
X033265Y004484D01*
X033266Y004483D02*
X033300Y004463D01*
X033338Y004453D01*
X033526Y004453D01*
X033526Y004752D01*
X033623Y004752D01*
X033623Y004848D01*
X033941Y004848D01*
X033941Y005017D01*
X033931Y005055D01*
X033911Y005089D01*
X033883Y005117D01*
X033849Y005137D01*
X033811Y005147D01*
X033623Y005147D01*
X033623Y004848D01*
X033526Y004848D01*
X033526Y005147D01*
X033338Y005147D01*
X033300Y005137D01*
X033266Y005117D01*
X033240Y005091D01*
X033215Y005116D01*
X033215Y005197D01*
X033470Y005451D01*
X033470Y005849D01*
X033188Y006130D01*
X032791Y006130D01*
X032510Y005849D01*
X032510Y005451D01*
X032595Y005366D01*
X032595Y005116D01*
X032538Y005059D01*
X032538Y004541D01*
X032595Y004484D01*
X027056Y004484D01*
X027056Y004386D02*
X032565Y004386D01*
X032538Y004359D02*
X032538Y003841D01*
X032580Y003800D01*
X032580Y003178D01*
X031361Y001960D01*
X025818Y001960D01*
X025608Y002170D01*
X025888Y002170D01*
X026170Y002451D01*
X026170Y002849D01*
X025920Y003099D01*
X025920Y003469D01*
X025968Y003469D01*
X026056Y003556D01*
X026056Y004074D01*
X025980Y004150D01*
X026056Y004226D01*
X026056Y004744D01*
X025968Y004831D01*
X025920Y004831D01*
X025920Y004995D01*
X024920Y005995D01*
X024920Y006250D01*
X024949Y006262D01*
X025077Y006391D01*
X025147Y006559D01*
X025147Y006741D01*
X025077Y006909D01*
X024949Y007038D01*
X024781Y007107D01*
X024599Y007107D01*
X024431Y007038D01*
X024302Y006909D01*
X024232Y006741D01*
X024232Y006559D01*
X024302Y006391D01*
X024431Y006262D01*
X024460Y006250D01*
X024460Y005805D01*
X024594Y005670D01*
X025433Y004831D01*
X025411Y004831D01*
X025323Y004744D01*
X025323Y004226D01*
X025399Y004150D01*
X025323Y004074D01*
X025323Y003556D01*
X025411Y003469D01*
X025460Y003469D01*
X025460Y003099D01*
X025210Y002849D01*
X025210Y002568D01*
X025170Y002608D01*
X025170Y002849D01*
X025000Y003019D01*
X025000Y003500D01*
X025036Y003537D01*
X025036Y004094D01*
X024980Y004150D01*
X025006Y004176D01*
X025026Y004210D01*
X025036Y004248D01*
X025036Y004436D01*
X024738Y004436D01*
X024738Y004533D01*
X025036Y004533D01*
X025036Y004721D01*
X025026Y004759D01*
X025006Y004793D01*
X024979Y004821D01*
X024944Y004841D01*
X024906Y004851D01*
X024738Y004851D01*
X024738Y004533D01*
X024641Y004533D01*
X024641Y004436D01*
X024343Y004436D01*
X024343Y004248D01*
X024353Y004210D01*
X024373Y004176D01*
X024399Y004150D01*
X024343Y004094D01*
X024343Y003537D01*
X024380Y003500D01*
X024380Y003019D01*
X024210Y002849D01*
X024210Y002608D01*
X024170Y002568D01*
X024170Y003042D01*
X024082Y003130D01*
X024000Y003130D01*
X024000Y003500D01*
X024036Y003537D01*
X024036Y004094D01*
X023980Y004150D01*
X024006Y004176D01*
X024026Y004210D01*
X024036Y004248D01*
X024036Y004436D01*
X023738Y004436D01*
X023738Y004533D01*
X024036Y004533D01*
X024036Y004721D01*
X024026Y004759D01*
X024006Y004793D01*
X023979Y004821D01*
X023944Y004841D01*
X023906Y004851D01*
X023738Y004851D01*
X023738Y004533D01*
X023641Y004533D01*
X023641Y004436D01*
X023343Y004436D01*
X023343Y004248D01*
X023353Y004210D01*
X023373Y004176D01*
X023399Y004150D01*
X023343Y004094D01*
X023343Y003537D01*
X023380Y003500D01*
X023380Y003130D01*
X023297Y003130D01*
X023210Y003042D01*
X023210Y002258D01*
X023297Y002170D01*
X023771Y002170D01*
X023561Y001960D01*
X019718Y001960D01*
X019508Y002170D01*
X019888Y002170D01*
X020170Y002451D01*
X020170Y002849D01*
X019920Y003099D01*
X019920Y003469D01*
X019968Y003469D01*
X020056Y003556D01*
X020056Y004074D01*
X019980Y004150D01*
X020056Y004226D01*
X020056Y004744D01*
X019968Y004831D01*
X019920Y004831D01*
X019920Y005055D01*
X020785Y005920D01*
X020920Y006055D01*
X020920Y006250D01*
X020949Y006262D01*
X021077Y006391D01*
X021147Y006559D01*
X021147Y006741D01*
X021077Y006909D01*
X020949Y007038D01*
X020781Y007107D01*
X020599Y007107D01*
X020431Y007038D01*
X020302Y006909D01*
X020232Y006741D01*
X020232Y006559D01*
X020302Y006391D01*
X020431Y006262D01*
X020460Y006250D01*
X020460Y006245D01*
X019460Y005245D01*
X019460Y004831D01*
X019411Y004831D01*
X019323Y004744D01*
X019323Y004226D01*
X019399Y004150D01*
X019323Y004074D01*
X019323Y003556D01*
X019411Y003469D01*
X019460Y003469D01*
X019460Y003099D01*
X019210Y002849D01*
X019210Y002468D01*
X019170Y002508D01*
X019170Y002849D01*
X019000Y003019D01*
X019000Y003500D01*
X019036Y003537D01*
X019036Y004094D01*
X018980Y004150D01*
X019006Y004176D01*
X019026Y004210D01*
X019036Y004248D01*
X019036Y004436D01*
X018738Y004436D01*
X018738Y004533D01*
X019036Y004533D01*
X019036Y004721D01*
X019026Y004759D01*
X019006Y004793D01*
X018979Y004821D01*
X018944Y004841D01*
X018906Y004851D01*
X018738Y004851D01*
X018738Y004533D01*
X018641Y004533D01*
X018641Y004436D01*
X018343Y004436D01*
X018343Y004248D01*
X018353Y004210D01*
X018373Y004176D01*
X018399Y004150D01*
X018343Y004094D01*
X018343Y003537D01*
X018380Y003500D01*
X018380Y003019D01*
X018210Y002849D01*
X018210Y002608D01*
X018170Y002568D01*
X018170Y003042D01*
X018082Y003130D01*
X018000Y003130D01*
X018000Y003500D01*
X018036Y003537D01*
X018036Y004094D01*
X017980Y004150D01*
X018006Y004176D01*
X018026Y004210D01*
X018036Y004248D01*
X018036Y004436D01*
X017738Y004436D01*
X017738Y004533D01*
X018036Y004533D01*
X018036Y004721D01*
X018026Y004759D01*
X018006Y004793D01*
X017979Y004821D01*
X017944Y004841D01*
X017906Y004851D01*
X017738Y004851D01*
X017738Y004533D01*
X017641Y004533D01*
X017641Y004436D01*
X017343Y004436D01*
X017343Y004248D01*
X017353Y004210D01*
X017373Y004176D01*
X017399Y004150D01*
X017343Y004094D01*
X017343Y003537D01*
X017380Y003500D01*
X017380Y003130D01*
X017297Y003130D01*
X017210Y003042D01*
X017210Y002258D01*
X017297Y002170D01*
X017771Y002170D01*
X017561Y001960D01*
X013718Y001960D01*
X013508Y002170D01*
X013888Y002170D01*
X014170Y002451D01*
X014170Y002849D01*
X013920Y003099D01*
X013920Y003469D01*
X013968Y003469D01*
X014056Y003556D01*
X014056Y004074D01*
X013980Y004150D01*
X014056Y004226D01*
X014056Y004744D01*
X014007Y004792D01*
X014585Y005370D01*
X015985Y005370D01*
X016785Y006170D01*
X016827Y006212D01*
X016949Y006262D01*
X017077Y006391D01*
X017147Y006559D01*
X017147Y006741D01*
X017077Y006909D01*
X016949Y007038D01*
X016781Y007107D01*
X016599Y007107D01*
X016431Y007038D01*
X016302Y006909D01*
X016232Y006741D01*
X016232Y006559D01*
X016302Y006391D01*
X016329Y006364D01*
X015794Y005830D01*
X014394Y005830D01*
X014260Y005695D01*
X013460Y004895D01*
X013460Y004831D01*
X013411Y004831D01*
X013323Y004744D01*
X013323Y004226D01*
X013399Y004150D01*
X013323Y004074D01*
X013323Y003556D01*
X013411Y003469D01*
X013460Y003469D01*
X013460Y003099D01*
X013210Y002849D01*
X013210Y002468D01*
X013170Y002508D01*
X013170Y002849D01*
X013000Y003019D01*
X013000Y003500D01*
X013036Y003537D01*
X013036Y004094D01*
X012980Y004150D01*
X013006Y004176D01*
X013026Y004210D01*
X013036Y004248D01*
X013036Y004436D01*
X012738Y004436D01*
X012738Y004533D01*
X013036Y004533D01*
X013036Y004721D01*
X013026Y004759D01*
X013006Y004793D01*
X012979Y004821D01*
X012944Y004841D01*
X012906Y004851D01*
X012738Y004851D01*
X012738Y004533D01*
X012641Y004533D01*
X012641Y004436D01*
X012343Y004436D01*
X012343Y004248D01*
X012353Y004210D01*
X012373Y004176D01*
X012399Y004150D01*
X012343Y004094D01*
X012343Y003537D01*
X012380Y003500D01*
X012380Y003019D01*
X012210Y002849D01*
X012210Y002451D01*
X012491Y002170D01*
X012631Y002170D01*
X013327Y001474D01*
X013414Y001387D01*
X013528Y001340D01*
X017751Y001340D01*
X017865Y001387D01*
X018640Y002162D01*
X019327Y001474D01*
X019414Y001387D01*
X019528Y001340D01*
X023751Y001340D01*
X023865Y001387D01*
X024648Y002170D01*
X024731Y002170D01*
X025427Y001474D01*
X025514Y001387D01*
X025628Y001340D01*
X031551Y001340D01*
X031665Y001387D01*
X031807Y001529D02*
X035740Y001529D01*
X035740Y001628D02*
X031906Y001628D01*
X032004Y001726D02*
X035740Y001726D01*
X035740Y001825D02*
X032103Y001825D01*
X032201Y001923D02*
X035740Y001923D01*
X035740Y002022D02*
X032300Y002022D01*
X032398Y002120D02*
X035740Y002120D01*
X035740Y002219D02*
X032497Y002219D01*
X032595Y002317D02*
X035740Y002317D01*
X035740Y002416D02*
X032694Y002416D01*
X032792Y002514D02*
X035740Y002514D01*
X035740Y002613D02*
X032891Y002613D01*
X032989Y002711D02*
X035740Y002711D01*
X035740Y002810D02*
X033088Y002810D01*
X033166Y002908D02*
X035740Y002908D01*
X035740Y003007D02*
X033200Y003007D01*
X033200Y003105D02*
X035740Y003105D01*
X035740Y003204D02*
X033200Y003204D01*
X033200Y003302D02*
X035740Y003302D01*
X035740Y003401D02*
X033200Y003401D01*
X033200Y003499D02*
X035740Y003499D01*
X035740Y003598D02*
X033200Y003598D01*
X033200Y003696D02*
X035740Y003696D01*
X035740Y003795D02*
X033894Y003795D01*
X033883Y003783D02*
X033911Y003811D01*
X033931Y003845D01*
X033941Y003883D01*
X033941Y004052D01*
X033623Y004052D01*
X033623Y003753D01*
X033811Y003753D01*
X033849Y003763D01*
X033883Y003783D01*
X033941Y003893D02*
X035740Y003893D01*
X035740Y003992D02*
X033941Y003992D01*
X033941Y004189D02*
X035740Y004189D01*
X035740Y004287D02*
X033941Y004287D01*
X033913Y004386D02*
X035740Y004386D01*
X035740Y004484D02*
X033884Y004484D01*
X033883Y004483D02*
X033911Y004511D01*
X033931Y004545D01*
X033941Y004583D01*
X033941Y004752D01*
X033623Y004752D01*
X033623Y004453D01*
X033811Y004453D01*
X033849Y004463D01*
X033883Y004483D01*
X033941Y004583D02*
X035740Y004583D01*
X035740Y004681D02*
X033941Y004681D01*
X033941Y004878D02*
X035740Y004878D01*
X035740Y004780D02*
X033623Y004780D01*
X033623Y004878D02*
X033526Y004878D01*
X033526Y004977D02*
X033623Y004977D01*
X033623Y005075D02*
X033526Y005075D01*
X033689Y005272D02*
X033290Y005272D01*
X033215Y005174D02*
X033787Y005174D01*
X033791Y005170D02*
X033940Y005170D01*
X033940Y005600D01*
X034040Y005600D01*
X034040Y005700D01*
X034470Y005700D01*
X034470Y005849D01*
X034188Y006130D01*
X034040Y006130D01*
X034040Y005700D01*
X033940Y005700D01*
X033940Y006130D01*
X033791Y006130D01*
X033510Y005849D01*
X033510Y005700D01*
X033940Y005700D01*
X033940Y005600D01*
X033510Y005600D01*
X033510Y005451D01*
X033791Y005170D01*
X033940Y005174D02*
X034040Y005174D01*
X034040Y005170D02*
X034188Y005170D01*
X034470Y005451D01*
X034470Y005600D01*
X034040Y005600D01*
X034040Y005170D01*
X034040Y005272D02*
X033940Y005272D01*
X033940Y005371D02*
X034040Y005371D01*
X034040Y005469D02*
X033940Y005469D01*
X033940Y005568D02*
X034040Y005568D01*
X034040Y005666D02*
X035740Y005666D01*
X035740Y005568D02*
X034470Y005568D01*
X034470Y005469D02*
X035740Y005469D01*
X035740Y005371D02*
X034389Y005371D01*
X034290Y005272D02*
X035740Y005272D01*
X035740Y005174D02*
X034192Y005174D01*
X033919Y005075D02*
X035740Y005075D01*
X035740Y004977D02*
X033941Y004977D01*
X033623Y004681D02*
X033526Y004681D01*
X033526Y004583D02*
X033623Y004583D01*
X033623Y004484D02*
X033526Y004484D01*
X033526Y004386D02*
X033623Y004386D01*
X033623Y004287D02*
X033526Y004287D01*
X033526Y004189D02*
X033623Y004189D01*
X033623Y004090D02*
X035740Y004090D01*
X033623Y003992D02*
X033526Y003992D01*
X033526Y003893D02*
X033623Y003893D01*
X033623Y003795D02*
X033526Y003795D01*
X033254Y003795D02*
X033225Y003795D01*
X032580Y003795D02*
X027056Y003795D01*
X027056Y003893D02*
X032538Y003893D01*
X032538Y003992D02*
X027056Y003992D01*
X027056Y004074D02*
X027056Y003556D01*
X026968Y003469D01*
X026920Y003469D01*
X026920Y003099D01*
X027170Y002849D01*
X027170Y002451D01*
X026888Y002170D01*
X026491Y002170D01*
X026210Y002451D01*
X026210Y002849D01*
X026460Y003099D01*
X026460Y003469D01*
X026411Y003469D01*
X026323Y003556D01*
X026323Y004074D01*
X026399Y004150D01*
X026323Y004226D01*
X026323Y004744D01*
X026411Y004831D01*
X026433Y004831D01*
X025594Y005670D01*
X025460Y005805D01*
X025460Y006250D01*
X025431Y006262D01*
X025302Y006391D01*
X025232Y006559D01*
X025232Y006741D01*
X025302Y006909D01*
X025431Y007038D01*
X025599Y007107D01*
X025781Y007107D01*
X025949Y007038D01*
X026077Y006909D01*
X026147Y006741D01*
X026147Y006559D01*
X026077Y006391D01*
X025949Y006262D01*
X025920Y006250D01*
X025920Y005995D01*
X026920Y004995D01*
X026920Y004831D01*
X026968Y004831D01*
X027056Y004744D01*
X027056Y004226D01*
X026980Y004150D01*
X027056Y004074D01*
X027040Y004090D02*
X032538Y004090D01*
X032538Y004189D02*
X027019Y004189D01*
X027056Y004287D02*
X032538Y004287D01*
X032538Y004359D02*
X032595Y004416D01*
X032595Y004484D01*
X032538Y004583D02*
X027056Y004583D01*
X027056Y004681D02*
X032538Y004681D01*
X032538Y004780D02*
X027020Y004780D01*
X026920Y004878D02*
X032538Y004878D01*
X032538Y004977D02*
X026920Y004977D01*
X026840Y005075D02*
X032554Y005075D01*
X032595Y005174D02*
X032192Y005174D01*
X032188Y005170D02*
X032470Y005451D01*
X032470Y005849D01*
X032188Y006130D01*
X031791Y006130D01*
X031510Y005849D01*
X031510Y005451D01*
X031791Y005170D01*
X032188Y005170D01*
X032290Y005272D02*
X032595Y005272D01*
X032590Y005371D02*
X032389Y005371D01*
X032470Y005469D02*
X032510Y005469D01*
X032510Y005568D02*
X032470Y005568D01*
X032470Y005666D02*
X032510Y005666D01*
X032510Y005765D02*
X032470Y005765D01*
X032455Y005863D02*
X032524Y005863D01*
X032622Y005962D02*
X032357Y005962D01*
X032258Y006060D02*
X032721Y006060D01*
X032791Y006170D02*
X033188Y006170D01*
X033470Y006451D01*
X033470Y006849D01*
X033188Y007130D01*
X032791Y007130D01*
X032510Y006849D01*
X032510Y006451D01*
X032791Y006170D01*
X032704Y006257D02*
X032275Y006257D01*
X032188Y006170D02*
X032470Y006451D01*
X032470Y006849D01*
X032188Y007130D01*
X031791Y007130D01*
X031510Y006849D01*
X031510Y006451D01*
X031791Y006170D01*
X032188Y006170D01*
X032374Y006356D02*
X032605Y006356D01*
X032510Y006454D02*
X032470Y006454D01*
X032470Y006553D02*
X032510Y006553D01*
X032510Y006651D02*
X032470Y006651D01*
X032470Y006750D02*
X032510Y006750D01*
X032510Y006848D02*
X032470Y006848D01*
X032372Y006947D02*
X032607Y006947D01*
X032706Y007045D02*
X032273Y007045D01*
X032188Y007170D02*
X032470Y007451D01*
X032470Y007849D01*
X032188Y008130D01*
X031791Y008130D01*
X031510Y007849D01*
X031510Y007451D01*
X031791Y007170D01*
X032188Y007170D01*
X032260Y007242D02*
X032719Y007242D01*
X032791Y007170D02*
X033188Y007170D01*
X033470Y007451D01*
X033470Y007849D01*
X033188Y008130D01*
X032791Y008130D01*
X032510Y007849D01*
X032510Y007451D01*
X032791Y007170D01*
X032620Y007341D02*
X032359Y007341D01*
X032457Y007439D02*
X032522Y007439D01*
X032510Y007538D02*
X032470Y007538D01*
X032470Y007636D02*
X032510Y007636D01*
X032510Y007735D02*
X032470Y007735D01*
X032470Y007833D02*
X032510Y007833D01*
X032592Y007932D02*
X032387Y007932D01*
X032288Y008030D02*
X032691Y008030D01*
X032789Y008129D02*
X032190Y008129D01*
X032188Y008170D02*
X032470Y008451D01*
X032470Y008849D01*
X032188Y009130D01*
X031791Y009130D01*
X031510Y008849D01*
X031510Y008451D01*
X031791Y008170D01*
X032188Y008170D01*
X032245Y008227D02*
X032734Y008227D01*
X032791Y008170D02*
X033188Y008170D01*
X033470Y008451D01*
X033470Y008849D01*
X033188Y009130D01*
X032791Y009130D01*
X032510Y008849D01*
X032510Y008451D01*
X032791Y008170D01*
X032635Y008326D02*
X032344Y008326D01*
X032442Y008424D02*
X032537Y008424D01*
X032510Y008523D02*
X032470Y008523D01*
X032470Y008621D02*
X032510Y008621D01*
X032510Y008720D02*
X032470Y008720D01*
X032470Y008818D02*
X032510Y008818D01*
X032577Y008917D02*
X032402Y008917D01*
X032303Y009015D02*
X032676Y009015D01*
X032774Y009114D02*
X032205Y009114D01*
X031774Y009114D02*
X026920Y009114D01*
X026920Y009212D02*
X035740Y009212D01*
X035740Y009114D02*
X034205Y009114D01*
X034188Y009130D02*
X034040Y009130D01*
X034040Y008700D01*
X034470Y008700D01*
X034470Y008849D01*
X034188Y009130D01*
X034040Y009114D02*
X033940Y009114D01*
X033940Y009130D02*
X033791Y009130D01*
X033510Y008849D01*
X033510Y008700D01*
X033940Y008700D01*
X033940Y009130D01*
X033940Y009015D02*
X034040Y009015D01*
X034040Y008917D02*
X033940Y008917D01*
X033940Y008818D02*
X034040Y008818D01*
X034040Y008720D02*
X033940Y008720D01*
X033940Y008700D02*
X034040Y008700D01*
X034040Y008600D01*
X034470Y008600D01*
X034470Y008451D01*
X034188Y008170D01*
X034040Y008170D01*
X034040Y008600D01*
X033940Y008600D01*
X033940Y008170D01*
X033791Y008170D01*
X033510Y008451D01*
X033510Y008600D01*
X033940Y008600D01*
X033940Y008700D01*
X033940Y008621D02*
X033470Y008621D01*
X033470Y008523D02*
X033510Y008523D01*
X033537Y008424D02*
X033442Y008424D01*
X033344Y008326D02*
X033635Y008326D01*
X033734Y008227D02*
X033245Y008227D01*
X033190Y008129D02*
X033789Y008129D01*
X033791Y008130D02*
X033510Y007849D01*
X033510Y007700D01*
X033940Y007700D01*
X033940Y008130D01*
X033791Y008130D01*
X033691Y008030D02*
X033288Y008030D01*
X033387Y007932D02*
X033592Y007932D01*
X033510Y007833D02*
X033470Y007833D01*
X033470Y007735D02*
X033510Y007735D01*
X033470Y007636D02*
X033940Y007636D01*
X033940Y007600D02*
X033510Y007600D01*
X033510Y007451D01*
X033791Y007170D01*
X033940Y007170D01*
X033940Y007600D01*
X034040Y007600D01*
X034040Y007700D01*
X034470Y007700D01*
X034470Y007849D01*
X034188Y008130D01*
X034040Y008130D01*
X034040Y007700D01*
X033940Y007700D01*
X033940Y007600D01*
X033940Y007538D02*
X034040Y007538D01*
X034040Y007600D02*
X034040Y007170D01*
X034188Y007170D01*
X034470Y007451D01*
X034470Y007600D01*
X034040Y007600D01*
X034040Y007636D02*
X035740Y007636D01*
X035740Y007538D02*
X034470Y007538D01*
X034457Y007439D02*
X035740Y007439D01*
X035740Y007341D02*
X034359Y007341D01*
X034260Y007242D02*
X035740Y007242D01*
X035740Y007144D02*
X026920Y007144D01*
X026920Y007050D02*
X026920Y009555D01*
X027785Y010420D01*
X031541Y010420D01*
X031791Y010170D01*
X032188Y010170D01*
X032470Y010451D01*
X032470Y010849D01*
X032188Y011130D01*
X031791Y011130D01*
X031541Y010880D01*
X027594Y010880D01*
X027460Y010745D01*
X026460Y009745D01*
X026460Y007050D01*
X026431Y007038D01*
X026302Y006909D01*
X026232Y006741D01*
X026232Y006559D01*
X026302Y006391D01*
X026431Y006262D01*
X026599Y006193D01*
X026781Y006193D01*
X026949Y006262D01*
X027077Y006391D01*
X027147Y006559D01*
X027147Y006741D01*
X027077Y006909D01*
X026949Y007038D01*
X026920Y007050D01*
X026931Y007045D02*
X027449Y007045D01*
X027431Y007038D02*
X027302Y006909D01*
X027232Y006741D01*
X027232Y006559D01*
X027302Y006391D01*
X027431Y006262D01*
X027599Y006193D01*
X027781Y006193D01*
X027949Y006262D01*
X028077Y006391D01*
X028147Y006559D01*
X028147Y006741D01*
X028077Y006909D01*
X027949Y007038D01*
X027781Y007107D01*
X027599Y007107D01*
X027431Y007038D01*
X027340Y006947D02*
X027040Y006947D01*
X027102Y006848D02*
X027277Y006848D01*
X027236Y006750D02*
X027143Y006750D01*
X027147Y006651D02*
X027232Y006651D01*
X027235Y006553D02*
X027144Y006553D01*
X027103Y006454D02*
X027276Y006454D01*
X027338Y006356D02*
X027042Y006356D01*
X026935Y006257D02*
X027444Y006257D01*
X027935Y006257D02*
X028444Y006257D01*
X028431Y006262D02*
X028599Y006193D01*
X028781Y006193D01*
X028949Y006262D01*
X029077Y006391D01*
X029147Y006559D01*
X029147Y006741D01*
X029077Y006909D01*
X028949Y007038D01*
X028781Y007107D01*
X028599Y007107D01*
X028431Y007038D01*
X028302Y006909D01*
X028232Y006741D01*
X028232Y006559D01*
X028302Y006391D01*
X028431Y006262D01*
X028338Y006356D02*
X028042Y006356D01*
X028103Y006454D02*
X028276Y006454D01*
X028235Y006553D02*
X028144Y006553D01*
X028147Y006651D02*
X028232Y006651D01*
X028236Y006750D02*
X028143Y006750D01*
X028102Y006848D02*
X028277Y006848D01*
X028340Y006947D02*
X028040Y006947D01*
X027931Y007045D02*
X028449Y007045D01*
X028931Y007045D02*
X029449Y007045D01*
X029431Y007038D02*
X029302Y006909D01*
X029232Y006741D01*
X029232Y006559D01*
X029302Y006391D01*
X029431Y006262D01*
X029599Y006193D01*
X029781Y006193D01*
X029949Y006262D01*
X030077Y006391D01*
X030147Y006559D01*
X030147Y006741D01*
X030077Y006909D01*
X029949Y007038D01*
X029781Y007107D01*
X029599Y007107D01*
X029431Y007038D01*
X029340Y006947D02*
X029040Y006947D01*
X029102Y006848D02*
X029277Y006848D01*
X029236Y006750D02*
X029143Y006750D01*
X029147Y006651D02*
X029232Y006651D01*
X029235Y006553D02*
X029144Y006553D01*
X029103Y006454D02*
X029276Y006454D01*
X029338Y006356D02*
X029042Y006356D01*
X028935Y006257D02*
X029444Y006257D01*
X029935Y006257D02*
X030444Y006257D01*
X030431Y006262D02*
X030599Y006193D01*
X030781Y006193D01*
X030949Y006262D01*
X031077Y006391D01*
X031147Y006559D01*
X031147Y006741D01*
X031077Y006909D01*
X030949Y007038D01*
X030781Y007107D01*
X030599Y007107D01*
X030431Y007038D01*
X030302Y006909D01*
X030232Y006741D01*
X030232Y006559D01*
X030302Y006391D01*
X030431Y006262D01*
X030338Y006356D02*
X030042Y006356D01*
X030103Y006454D02*
X030276Y006454D01*
X030235Y006553D02*
X030144Y006553D01*
X030147Y006651D02*
X030232Y006651D01*
X030236Y006750D02*
X030143Y006750D01*
X030102Y006848D02*
X030277Y006848D01*
X030340Y006947D02*
X030040Y006947D01*
X029931Y007045D02*
X030449Y007045D01*
X030931Y007045D02*
X031706Y007045D01*
X031607Y006947D02*
X031040Y006947D01*
X031102Y006848D02*
X031510Y006848D01*
X031510Y006750D02*
X031143Y006750D01*
X031147Y006651D02*
X031510Y006651D01*
X031510Y006553D02*
X031144Y006553D01*
X031103Y006454D02*
X031510Y006454D01*
X031605Y006356D02*
X031042Y006356D01*
X030935Y006257D02*
X031704Y006257D01*
X031721Y006060D02*
X025920Y006060D01*
X025920Y006159D02*
X035740Y006159D01*
X035740Y006257D02*
X034275Y006257D01*
X034188Y006170D02*
X034470Y006451D01*
X034470Y006600D01*
X034040Y006600D01*
X034040Y006700D01*
X034470Y006700D01*
X034470Y006849D01*
X034188Y007130D01*
X034040Y007130D01*
X034040Y006700D01*
X033940Y006700D01*
X033940Y007130D01*
X033791Y007130D01*
X033510Y006849D01*
X033510Y006700D01*
X033940Y006700D01*
X033940Y006600D01*
X034040Y006600D01*
X034040Y006170D01*
X034188Y006170D01*
X034258Y006060D02*
X035740Y006060D01*
X035740Y005962D02*
X034357Y005962D01*
X034455Y005863D02*
X035740Y005863D01*
X035740Y005765D02*
X034470Y005765D01*
X034040Y005765D02*
X033940Y005765D01*
X033940Y005863D02*
X034040Y005863D01*
X034040Y005962D02*
X033940Y005962D01*
X033940Y006060D02*
X034040Y006060D01*
X033940Y006170D02*
X033940Y006600D01*
X033510Y006600D01*
X033510Y006451D01*
X033791Y006170D01*
X033940Y006170D01*
X033940Y006257D02*
X034040Y006257D01*
X034040Y006356D02*
X033940Y006356D01*
X033940Y006454D02*
X034040Y006454D01*
X034040Y006553D02*
X033940Y006553D01*
X033940Y006651D02*
X033470Y006651D01*
X033470Y006553D02*
X033510Y006553D01*
X033510Y006454D02*
X033470Y006454D01*
X033374Y006356D02*
X033605Y006356D01*
X033704Y006257D02*
X033275Y006257D01*
X033258Y006060D02*
X033721Y006060D01*
X033622Y005962D02*
X033357Y005962D01*
X033455Y005863D02*
X033524Y005863D01*
X033510Y005765D02*
X033470Y005765D01*
X033470Y005666D02*
X033940Y005666D01*
X033590Y005371D02*
X033389Y005371D01*
X033470Y005469D02*
X033510Y005469D01*
X033510Y005568D02*
X033470Y005568D01*
X034374Y006356D02*
X035740Y006356D01*
X035740Y006454D02*
X034470Y006454D01*
X034470Y006553D02*
X035740Y006553D01*
X035740Y006651D02*
X034040Y006651D01*
X034040Y006750D02*
X033940Y006750D01*
X033940Y006848D02*
X034040Y006848D01*
X034040Y006947D02*
X033940Y006947D01*
X033940Y007045D02*
X034040Y007045D01*
X034040Y007242D02*
X033940Y007242D01*
X033940Y007341D02*
X034040Y007341D01*
X034040Y007439D02*
X033940Y007439D01*
X033940Y007735D02*
X034040Y007735D01*
X034040Y007833D02*
X033940Y007833D01*
X033940Y007932D02*
X034040Y007932D01*
X034040Y008030D02*
X033940Y008030D01*
X033940Y008129D02*
X034040Y008129D01*
X034040Y008227D02*
X033940Y008227D01*
X033940Y008326D02*
X034040Y008326D01*
X034040Y008424D02*
X033940Y008424D01*
X033940Y008523D02*
X034040Y008523D01*
X034040Y008621D02*
X035740Y008621D01*
X035740Y008523D02*
X034470Y008523D01*
X034442Y008424D02*
X035740Y008424D01*
X035740Y008326D02*
X034344Y008326D01*
X034245Y008227D02*
X035740Y008227D01*
X035740Y008129D02*
X034190Y008129D01*
X034288Y008030D02*
X035740Y008030D01*
X035740Y007932D02*
X034387Y007932D01*
X034470Y007833D02*
X035740Y007833D01*
X035740Y007735D02*
X034470Y007735D01*
X034273Y007045D02*
X035740Y007045D01*
X035740Y006947D02*
X034372Y006947D01*
X034470Y006848D02*
X035740Y006848D01*
X035740Y006750D02*
X034470Y006750D01*
X033706Y007045D02*
X033273Y007045D01*
X033372Y006947D02*
X033607Y006947D01*
X033510Y006848D02*
X033470Y006848D01*
X033470Y006750D02*
X033510Y006750D01*
X033719Y007242D02*
X033260Y007242D01*
X033359Y007341D02*
X033620Y007341D01*
X033522Y007439D02*
X033457Y007439D01*
X033470Y007538D02*
X033510Y007538D01*
X033470Y008720D02*
X033510Y008720D01*
X033510Y008818D02*
X033470Y008818D01*
X033402Y008917D02*
X033577Y008917D01*
X033676Y009015D02*
X033303Y009015D01*
X033205Y009114D02*
X033774Y009114D01*
X034303Y009015D02*
X035740Y009015D01*
X035740Y008917D02*
X034402Y008917D01*
X034470Y008818D02*
X035740Y008818D01*
X035740Y008720D02*
X034470Y008720D01*
X035740Y009311D02*
X026920Y009311D01*
X026920Y009409D02*
X035740Y009409D01*
X035740Y009508D02*
X026920Y009508D01*
X026971Y009606D02*
X035740Y009606D01*
X035740Y009705D02*
X027069Y009705D01*
X027168Y009803D02*
X035740Y009803D01*
X035740Y009902D02*
X027266Y009902D01*
X027365Y010000D02*
X035740Y010000D01*
X035740Y010099D02*
X027463Y010099D01*
X027562Y010197D02*
X031764Y010197D01*
X031665Y010296D02*
X027660Y010296D01*
X027759Y010394D02*
X031567Y010394D01*
X031547Y010887D02*
X020251Y010887D01*
X020350Y010985D02*
X031646Y010985D01*
X031744Y011084D02*
X020448Y011084D01*
X020547Y011182D02*
X031779Y011182D01*
X031791Y011170D02*
X032188Y011170D01*
X032470Y011451D01*
X032470Y011849D01*
X032188Y012130D01*
X031791Y012130D01*
X031541Y011880D01*
X020594Y011880D01*
X015810Y007095D01*
X015781Y007107D01*
X015599Y007107D01*
X015431Y007038D01*
X015302Y006909D01*
X015232Y006741D01*
X015232Y006559D01*
X015302Y006391D01*
X015431Y006262D01*
X015599Y006193D01*
X015781Y006193D01*
X015949Y006262D01*
X016077Y006391D01*
X016147Y006559D01*
X016147Y006741D01*
X016135Y006770D01*
X020785Y011420D01*
X031541Y011420D01*
X031791Y011170D01*
X031680Y011281D02*
X020645Y011281D01*
X020744Y011379D02*
X031582Y011379D01*
X031631Y011970D02*
X020335Y011970D01*
X020433Y012069D02*
X031729Y012069D01*
X031791Y012170D02*
X031541Y012420D01*
X020785Y012420D01*
X015135Y006770D01*
X015147Y006741D01*
X015147Y006559D01*
X015077Y006391D01*
X014949Y006262D01*
X014781Y006193D01*
X014599Y006193D01*
X014431Y006262D01*
X014302Y006391D01*
X014232Y006559D01*
X014232Y006741D01*
X014302Y006909D01*
X014431Y007038D01*
X014599Y007107D01*
X014781Y007107D01*
X014810Y007095D01*
X020460Y012745D01*
X020460Y012745D01*
X020594Y012880D01*
X031541Y012880D01*
X031791Y013130D01*
X032188Y013130D01*
X032470Y012849D01*
X032470Y012451D01*
X032188Y012170D01*
X031791Y012170D01*
X031695Y012266D02*
X020630Y012266D01*
X020729Y012364D02*
X031597Y012364D01*
X031616Y012955D02*
X012960Y012955D01*
X013058Y012857D02*
X020571Y012857D01*
X020472Y012758D02*
X013157Y012758D01*
X013255Y012660D02*
X020374Y012660D01*
X020275Y012561D02*
X013354Y012561D01*
X013452Y012463D02*
X020177Y012463D01*
X020078Y012364D02*
X013551Y012364D01*
X013649Y012266D02*
X019980Y012266D01*
X019881Y012167D02*
X013748Y012167D01*
X013846Y012069D02*
X019783Y012069D01*
X019684Y011970D02*
X013920Y011970D01*
X013920Y011995D02*
X012420Y013495D01*
X012420Y015273D01*
X012431Y015262D01*
X012599Y015193D01*
X012781Y015193D01*
X012949Y015262D01*
X013077Y015391D01*
X013147Y015559D01*
X013147Y015741D01*
X013077Y015909D01*
X012949Y016038D01*
X012781Y016107D01*
X013598Y016107D01*
X013599Y016107D02*
X013431Y016038D01*
X013302Y015909D01*
X013232Y015741D01*
X013232Y015559D01*
X013302Y015391D01*
X013431Y015262D01*
X013599Y015193D01*
X013781Y015193D01*
X013949Y015262D01*
X014077Y015391D01*
X014147Y015559D01*
X014147Y015741D01*
X014077Y015909D01*
X013949Y016038D01*
X013781Y016107D01*
X014598Y016107D01*
X014599Y016107D02*
X014431Y016038D01*
X014302Y015909D01*
X014232Y015741D01*
X014232Y015559D01*
X014302Y015391D01*
X014431Y015262D01*
X014599Y015193D01*
X014781Y015193D01*
X014949Y015262D01*
X015077Y015391D01*
X015147Y015559D01*
X015147Y015741D01*
X015077Y015909D01*
X014949Y016038D01*
X014781Y016107D01*
X015598Y016107D01*
X015599Y016107D02*
X015431Y016038D01*
X015302Y015909D01*
X015232Y015741D01*
X015232Y015559D01*
X015302Y015391D01*
X015431Y015262D01*
X015599Y015193D01*
X015781Y015193D01*
X015949Y015262D01*
X016077Y015391D01*
X016147Y015559D01*
X016147Y015741D01*
X016077Y015909D01*
X015949Y016038D01*
X015781Y016107D01*
X016307Y016107D01*
X016404Y016011D02*
X016302Y015909D01*
X016232Y015741D01*
X016232Y015559D01*
X016302Y015391D01*
X016431Y015262D01*
X016599Y015193D01*
X016781Y015193D01*
X016949Y015262D01*
X017077Y015391D01*
X017147Y015559D01*
X017147Y015741D01*
X017077Y015909D01*
X016949Y016038D01*
X016920Y016050D01*
X016920Y016145D01*
X016785Y016280D01*
X015056Y018009D01*
X015056Y018474D01*
X014980Y018550D01*
X015056Y018626D01*
X015056Y019144D01*
X014968Y019231D01*
X014950Y019231D01*
X015170Y019451D01*
X015170Y019849D01*
X014888Y020130D01*
X014491Y020130D01*
X014210Y019849D01*
X014210Y019451D01*
X014429Y019231D01*
X014411Y019231D01*
X014323Y019144D01*
X014323Y018626D01*
X014399Y018550D01*
X014323Y018474D01*
X014323Y017956D01*
X014411Y017869D01*
X014546Y017869D01*
X016404Y016011D01*
X016402Y016009D02*
X015978Y016009D01*
X016076Y015910D02*
X016303Y015910D01*
X016262Y015812D02*
X016118Y015812D01*
X016147Y015713D02*
X016232Y015713D01*
X016232Y015615D02*
X016147Y015615D01*
X016129Y015516D02*
X016250Y015516D01*
X016291Y015418D02*
X016088Y015418D01*
X016005Y015319D02*
X016374Y015319D01*
X016532Y015221D02*
X015847Y015221D01*
X015532Y015221D02*
X014847Y015221D01*
X015005Y015319D02*
X015374Y015319D01*
X015291Y015418D02*
X015088Y015418D01*
X015129Y015516D02*
X015250Y015516D01*
X015232Y015615D02*
X015147Y015615D01*
X015147Y015713D02*
X015232Y015713D01*
X015262Y015812D02*
X015118Y015812D01*
X015076Y015910D02*
X015303Y015910D01*
X015402Y016009D02*
X014978Y016009D01*
X014781Y016107D02*
X014599Y016107D01*
X014402Y016009D02*
X013978Y016009D01*
X014076Y015910D02*
X014303Y015910D01*
X014262Y015812D02*
X014118Y015812D01*
X014147Y015713D02*
X014232Y015713D01*
X014232Y015615D02*
X014147Y015615D01*
X014129Y015516D02*
X014250Y015516D01*
X014291Y015418D02*
X014088Y015418D01*
X014005Y015319D02*
X014374Y015319D01*
X014532Y015221D02*
X013847Y015221D01*
X013532Y015221D02*
X012847Y015221D01*
X013005Y015319D02*
X013374Y015319D01*
X013291Y015418D02*
X013088Y015418D01*
X013129Y015516D02*
X013250Y015516D01*
X013232Y015615D02*
X013147Y015615D01*
X013147Y015713D02*
X013232Y015713D01*
X013262Y015812D02*
X013118Y015812D01*
X013076Y015910D02*
X013303Y015910D01*
X013402Y016009D02*
X012978Y016009D01*
X012781Y016107D02*
X012599Y016107D01*
X012431Y016038D01*
X012420Y016027D01*
X012420Y016245D01*
X012170Y016495D01*
X012170Y021495D01*
X011170Y022495D01*
X011170Y022849D01*
X010888Y023130D01*
X010491Y023130D01*
X010241Y022880D01*
X010138Y022880D01*
X009888Y023130D01*
X009491Y023130D01*
X009241Y022880D01*
X009138Y022880D01*
X008888Y023130D01*
X008491Y023130D01*
X008241Y022880D01*
X008138Y022880D01*
X007888Y023130D01*
X007491Y023130D01*
X007241Y022880D01*
X007138Y022880D01*
X006888Y023130D01*
X006491Y023130D01*
X006241Y022880D01*
X005694Y022880D01*
X004594Y021780D01*
X004460Y021645D01*
X004460Y021581D01*
X004411Y021581D01*
X004323Y021494D01*
X004323Y020976D01*
X004399Y020900D01*
X004323Y020824D01*
X004323Y020306D01*
X004380Y020250D01*
X004380Y015987D01*
X004302Y015909D01*
X004232Y015741D01*
X004232Y015559D01*
X004302Y015391D01*
X004431Y015262D01*
X004599Y015193D01*
X004781Y015193D01*
X004949Y015262D01*
X005077Y015391D01*
X005147Y015559D01*
X005147Y015741D01*
X005077Y015909D01*
X005000Y015987D01*
X005000Y020250D01*
X005005Y020255D01*
X005074Y020255D01*
X005111Y020219D01*
X005668Y020219D01*
X005705Y020255D01*
X006405Y020255D01*
X006491Y020170D01*
X006888Y020170D01*
X007058Y020340D01*
X007321Y020340D01*
X007491Y020170D01*
X007888Y020170D01*
X008058Y020340D01*
X008321Y020340D01*
X008491Y020170D01*
X008888Y020170D01*
X009058Y020340D01*
X009321Y020340D01*
X009491Y020170D01*
X009888Y020170D01*
X010058Y020340D01*
X010321Y020340D01*
X010491Y020170D01*
X010888Y020170D01*
X011170Y020451D01*
X011170Y020845D01*
X011210Y020805D01*
X011210Y016495D01*
X010960Y016245D01*
X010960Y016027D01*
X010949Y016038D01*
X010781Y016107D01*
X010960Y016107D01*
X010960Y016206D02*
X005000Y016206D01*
X005000Y016304D02*
X011018Y016304D01*
X011117Y016403D02*
X005000Y016403D01*
X005000Y016501D02*
X011210Y016501D01*
X011210Y016600D02*
X005000Y016600D01*
X005000Y016698D02*
X011210Y016698D01*
X011210Y016797D02*
X005000Y016797D01*
X005000Y016895D02*
X011210Y016895D01*
X011210Y016994D02*
X005000Y016994D01*
X005000Y017092D02*
X011210Y017092D01*
X011210Y017191D02*
X005000Y017191D01*
X005000Y017289D02*
X011210Y017289D01*
X011210Y017388D02*
X005000Y017388D01*
X005000Y017486D02*
X011210Y017486D01*
X011210Y017585D02*
X005000Y017585D01*
X005000Y017683D02*
X011210Y017683D01*
X011210Y017782D02*
X005000Y017782D01*
X005000Y017880D02*
X011210Y017880D01*
X011210Y017979D02*
X005000Y017979D01*
X005000Y018077D02*
X011210Y018077D01*
X011210Y018176D02*
X005000Y018176D01*
X005000Y018274D02*
X011210Y018274D01*
X011210Y018373D02*
X005000Y018373D01*
X005000Y018471D02*
X011210Y018471D01*
X011210Y018570D02*
X005000Y018570D01*
X005000Y018668D02*
X011210Y018668D01*
X011210Y018767D02*
X005000Y018767D01*
X005000Y018865D02*
X011210Y018865D01*
X011210Y018964D02*
X005000Y018964D01*
X005000Y019062D02*
X011210Y019062D01*
X011210Y019161D02*
X005000Y019161D01*
X005000Y019259D02*
X006210Y019259D01*
X006210Y019258D02*
X006297Y019170D01*
X007082Y019170D01*
X007170Y019258D01*
X007170Y020042D01*
X007082Y020130D01*
X006297Y020130D01*
X006210Y020042D01*
X006210Y019258D01*
X006210Y019358D02*
X005000Y019358D01*
X005000Y019456D02*
X006210Y019456D01*
X006210Y019555D02*
X005000Y019555D01*
X005000Y019653D02*
X006210Y019653D01*
X006210Y019752D02*
X005000Y019752D01*
X005000Y019850D02*
X006210Y019850D01*
X006210Y019949D02*
X005000Y019949D01*
X005000Y020047D02*
X006215Y020047D01*
X006417Y020244D02*
X005694Y020244D01*
X005085Y020244D02*
X005000Y020244D01*
X005000Y020146D02*
X011210Y020146D01*
X011210Y020244D02*
X010962Y020244D01*
X011061Y020343D02*
X011210Y020343D01*
X011210Y020441D02*
X011159Y020441D01*
X011170Y020540D02*
X011210Y020540D01*
X011210Y020638D02*
X011170Y020638D01*
X011170Y020737D02*
X011210Y020737D01*
X011179Y020835D02*
X011170Y020835D01*
X010884Y021130D02*
X010491Y021130D01*
X010321Y020960D01*
X010058Y020960D01*
X009888Y021130D01*
X009491Y021130D01*
X009321Y020960D01*
X009058Y020960D01*
X008888Y021130D01*
X008491Y021130D01*
X008321Y020960D01*
X008058Y020960D01*
X007888Y021130D01*
X007491Y021130D01*
X007321Y020960D01*
X007058Y020960D01*
X006888Y021130D01*
X006491Y021130D01*
X006236Y020875D01*
X005705Y020875D01*
X005680Y020900D01*
X005756Y020976D01*
X005756Y021005D01*
X005770Y021005D01*
X006185Y021420D01*
X006241Y021420D01*
X006491Y021170D01*
X006888Y021170D01*
X007138Y021420D01*
X007241Y021420D01*
X007491Y021170D01*
X007888Y021170D01*
X008138Y021420D01*
X008241Y021420D01*
X008491Y021170D01*
X008888Y021170D01*
X009138Y021420D01*
X009241Y021420D01*
X009491Y021170D01*
X009888Y021170D01*
X010138Y021420D01*
X010241Y021420D01*
X010491Y021170D01*
X010844Y021170D01*
X010884Y021130D01*
X010884Y021131D02*
X005895Y021131D01*
X005994Y021229D02*
X006432Y021229D01*
X006333Y021328D02*
X006092Y021328D01*
X005737Y021623D02*
X005088Y021623D01*
X005111Y021581D02*
X005040Y021510D01*
X005007Y021542D01*
X005885Y022420D01*
X006241Y022420D01*
X006491Y022170D01*
X006888Y022170D01*
X007138Y022420D01*
X007241Y022420D01*
X007491Y022170D01*
X007888Y022170D01*
X008138Y022420D01*
X008241Y022420D01*
X008491Y022170D01*
X008888Y022170D01*
X009138Y022420D01*
X009241Y022420D01*
X009491Y022170D01*
X009888Y022170D01*
X010138Y022420D01*
X010241Y022420D01*
X010491Y022170D01*
X010844Y022170D01*
X010884Y022130D01*
X010491Y022130D01*
X010241Y021880D01*
X010138Y021880D01*
X009888Y022130D01*
X009491Y022130D01*
X009241Y021880D01*
X009138Y021880D01*
X008888Y022130D01*
X008491Y022130D01*
X008241Y021880D01*
X008138Y021880D01*
X007888Y022130D01*
X007491Y022130D01*
X007241Y021880D01*
X007138Y021880D01*
X006888Y022130D01*
X006491Y022130D01*
X006241Y021880D01*
X005994Y021880D01*
X005860Y021745D01*
X005682Y021568D01*
X005668Y021581D01*
X005111Y021581D01*
X005054Y021525D02*
X005025Y021525D01*
X005186Y021722D02*
X005836Y021722D01*
X005934Y021820D02*
X005285Y021820D01*
X005383Y021919D02*
X006279Y021919D01*
X006378Y022017D02*
X005482Y022017D01*
X005580Y022116D02*
X006476Y022116D01*
X006447Y022214D02*
X005679Y022214D01*
X005777Y022313D02*
X006348Y022313D01*
X006250Y022411D02*
X005876Y022411D01*
X005521Y022707D02*
X001890Y022707D01*
X001890Y022805D02*
X005619Y022805D01*
X005422Y022608D02*
X001890Y022608D01*
X001890Y022510D02*
X005324Y022510D01*
X005225Y022411D02*
X001890Y022411D01*
X001890Y022313D02*
X005127Y022313D01*
X005028Y022214D02*
X001890Y022214D01*
X001890Y022116D02*
X004930Y022116D01*
X004831Y022017D02*
X001890Y022017D01*
X001890Y021919D02*
X004733Y021919D01*
X004634Y021820D02*
X001890Y021820D01*
X001890Y021722D02*
X004536Y021722D01*
X004460Y021623D02*
X001890Y021623D01*
X001890Y021525D02*
X004354Y021525D01*
X004323Y021426D02*
X001890Y021426D01*
X001890Y021328D02*
X004323Y021328D01*
X004323Y021229D02*
X001890Y021229D01*
X001890Y021131D02*
X004323Y021131D01*
X004323Y021032D02*
X001890Y021032D01*
X001890Y020934D02*
X004365Y020934D01*
X004334Y020835D02*
X001890Y020835D01*
X001890Y020737D02*
X004323Y020737D01*
X004323Y020638D02*
X001890Y020638D01*
X001890Y020540D02*
X004323Y020540D01*
X004323Y020441D02*
X001890Y020441D01*
X001890Y020343D02*
X004323Y020343D01*
X004380Y020244D02*
X001890Y020244D01*
X001890Y020146D02*
X004380Y020146D01*
X004380Y020047D02*
X001890Y020047D01*
X001890Y019949D02*
X004380Y019949D01*
X004380Y019850D02*
X001890Y019850D01*
X001890Y019752D02*
X004380Y019752D01*
X004380Y019653D02*
X001890Y019653D01*
X001890Y019555D02*
X004380Y019555D01*
X004380Y019456D02*
X001890Y019456D01*
X001890Y019358D02*
X004380Y019358D01*
X004380Y019259D02*
X001890Y019259D01*
X001890Y019161D02*
X004380Y019161D01*
X004380Y019062D02*
X001890Y019062D01*
X001890Y018964D02*
X004380Y018964D01*
X004380Y018865D02*
X001890Y018865D01*
X001890Y018767D02*
X004380Y018767D01*
X004380Y018668D02*
X001890Y018668D01*
X001890Y018570D02*
X004380Y018570D01*
X004380Y018471D02*
X001890Y018471D01*
X001890Y018373D02*
X004380Y018373D01*
X004380Y018274D02*
X001890Y018274D01*
X001890Y018176D02*
X004380Y018176D01*
X004380Y018077D02*
X001890Y018077D01*
X001890Y017979D02*
X004380Y017979D01*
X004380Y017880D02*
X001890Y017880D01*
X001890Y017782D02*
X004380Y017782D01*
X004380Y017683D02*
X001890Y017683D01*
X001890Y017585D02*
X004380Y017585D01*
X004380Y017486D02*
X001890Y017486D01*
X001890Y017388D02*
X004380Y017388D01*
X004380Y017289D02*
X001890Y017289D01*
X001890Y017191D02*
X004380Y017191D01*
X004380Y017092D02*
X001890Y017092D01*
X001890Y016994D02*
X004380Y016994D01*
X004380Y016895D02*
X001890Y016895D01*
X001890Y016797D02*
X004380Y016797D01*
X004380Y016698D02*
X001890Y016698D01*
X001890Y016600D02*
X004380Y016600D01*
X004380Y016501D02*
X001890Y016501D01*
X001890Y016403D02*
X004380Y016403D01*
X004380Y016304D02*
X001890Y016304D01*
X001890Y016206D02*
X004380Y016206D01*
X004380Y016107D02*
X001890Y016107D01*
X001890Y016009D02*
X004380Y016009D01*
X004303Y015910D02*
X001890Y015910D01*
X001890Y015812D02*
X004262Y015812D01*
X004232Y015713D02*
X001890Y015713D01*
X001890Y015615D02*
X004232Y015615D01*
X004250Y015516D02*
X001890Y015516D01*
X001890Y015418D02*
X004291Y015418D01*
X004374Y015319D02*
X001890Y015319D01*
X001890Y015221D02*
X004532Y015221D01*
X004847Y015221D02*
X005532Y015221D01*
X005599Y015193D02*
X005781Y015193D01*
X005949Y015262D01*
X006077Y015391D01*
X006147Y015559D01*
X006147Y015741D01*
X006077Y015909D01*
X005949Y016038D01*
X005781Y016107D01*
X006598Y016107D01*
X006599Y016107D02*
X006431Y016038D01*
X006302Y015909D01*
X006232Y015741D01*
X006232Y015559D01*
X006302Y015391D01*
X006431Y015262D01*
X006599Y015193D01*
X006781Y015193D01*
X006949Y015262D01*
X007077Y015391D01*
X007147Y015559D01*
X007147Y015741D01*
X007077Y015909D01*
X006949Y016038D01*
X006781Y016107D01*
X007598Y016107D01*
X007599Y016107D02*
X007431Y016038D01*
X007302Y015909D01*
X007232Y015741D01*
X007232Y015559D01*
X007302Y015391D01*
X007431Y015262D01*
X007599Y015193D01*
X007781Y015193D01*
X007949Y015262D01*
X008077Y015391D01*
X008147Y015559D01*
X008147Y015741D01*
X008077Y015909D01*
X007949Y016038D01*
X007781Y016107D01*
X008598Y016107D01*
X008599Y016107D02*
X008431Y016038D01*
X008302Y015909D01*
X008232Y015741D01*
X008232Y015559D01*
X008302Y015391D01*
X008431Y015262D01*
X008599Y015193D01*
X008781Y015193D01*
X008949Y015262D01*
X009077Y015391D01*
X009147Y015559D01*
X009147Y015741D01*
X009077Y015909D01*
X008949Y016038D01*
X008781Y016107D01*
X009598Y016107D01*
X009599Y016107D02*
X009431Y016038D01*
X009302Y015909D01*
X009232Y015741D01*
X009232Y015559D01*
X009302Y015391D01*
X009431Y015262D01*
X009599Y015193D01*
X009781Y015193D01*
X009949Y015262D01*
X010077Y015391D01*
X010147Y015559D01*
X010147Y015741D01*
X010077Y015909D01*
X009949Y016038D01*
X009781Y016107D01*
X010598Y016107D01*
X010599Y016107D02*
X010431Y016038D01*
X010302Y015909D01*
X010232Y015741D01*
X010232Y015559D01*
X010302Y015391D01*
X010431Y015262D01*
X010599Y015193D01*
X010781Y015193D01*
X010949Y015262D01*
X010960Y015273D01*
X010960Y013305D01*
X011094Y013170D01*
X012460Y011805D01*
X012460Y007050D01*
X012431Y007038D01*
X012302Y006909D01*
X012232Y006741D01*
X012232Y006559D01*
X012302Y006391D01*
X012431Y006262D01*
X012599Y006193D01*
X012781Y006193D01*
X012949Y006262D01*
X013077Y006391D01*
X013147Y006559D01*
X013147Y006741D01*
X013077Y006909D01*
X012949Y007038D01*
X012920Y007050D01*
X012920Y011995D01*
X011420Y013495D01*
X011420Y015273D01*
X011431Y015262D01*
X011599Y015193D01*
X011781Y015193D01*
X011949Y015262D01*
X011960Y015273D01*
X011960Y013305D01*
X013460Y011805D01*
X013460Y007050D01*
X013431Y007038D01*
X013302Y006909D01*
X013232Y006741D01*
X013232Y006559D01*
X013302Y006391D01*
X013431Y006262D01*
X013599Y006193D01*
X013781Y006193D01*
X013949Y006262D01*
X014077Y006391D01*
X014147Y006559D01*
X014147Y006741D01*
X014077Y006909D01*
X013949Y007038D01*
X013920Y007050D01*
X013920Y011995D01*
X013920Y011872D02*
X019586Y011872D01*
X019487Y011773D02*
X013920Y011773D01*
X013920Y011675D02*
X019389Y011675D01*
X019290Y011576D02*
X013920Y011576D01*
X013920Y011478D02*
X019192Y011478D01*
X019093Y011379D02*
X013920Y011379D01*
X013920Y011281D02*
X018995Y011281D01*
X018896Y011182D02*
X013920Y011182D01*
X013920Y011084D02*
X018798Y011084D01*
X018699Y010985D02*
X013920Y010985D01*
X013920Y010887D02*
X018601Y010887D01*
X018502Y010788D02*
X013920Y010788D01*
X013920Y010690D02*
X018404Y010690D01*
X018305Y010591D02*
X013920Y010591D01*
X013920Y010493D02*
X018207Y010493D01*
X018108Y010394D02*
X013920Y010394D01*
X013920Y010296D02*
X018010Y010296D01*
X017911Y010197D02*
X013920Y010197D01*
X013920Y010099D02*
X017813Y010099D01*
X017714Y010000D02*
X013920Y010000D01*
X013920Y009902D02*
X017616Y009902D01*
X017517Y009803D02*
X013920Y009803D01*
X013920Y009705D02*
X017419Y009705D01*
X017320Y009606D02*
X013920Y009606D01*
X013920Y009508D02*
X017222Y009508D01*
X017123Y009409D02*
X013920Y009409D01*
X013920Y009311D02*
X017025Y009311D01*
X016926Y009212D02*
X013920Y009212D01*
X013920Y009114D02*
X016828Y009114D01*
X016729Y009015D02*
X013920Y009015D01*
X013920Y008917D02*
X016631Y008917D01*
X016532Y008818D02*
X013920Y008818D01*
X013920Y008720D02*
X016434Y008720D01*
X016335Y008621D02*
X013920Y008621D01*
X013920Y008523D02*
X016237Y008523D01*
X016138Y008424D02*
X013920Y008424D01*
X013920Y008326D02*
X016040Y008326D01*
X015941Y008227D02*
X013920Y008227D01*
X013920Y008129D02*
X015843Y008129D01*
X015744Y008030D02*
X013920Y008030D01*
X013920Y007932D02*
X015646Y007932D01*
X015547Y007833D02*
X013920Y007833D01*
X013920Y007735D02*
X015449Y007735D01*
X015350Y007636D02*
X013920Y007636D01*
X013920Y007538D02*
X015252Y007538D01*
X015153Y007439D02*
X013920Y007439D01*
X013920Y007341D02*
X015055Y007341D01*
X014956Y007242D02*
X013920Y007242D01*
X013920Y007144D02*
X014858Y007144D01*
X014449Y007045D02*
X013931Y007045D01*
X014040Y006947D02*
X014340Y006947D01*
X014277Y006848D02*
X014102Y006848D01*
X014143Y006750D02*
X014236Y006750D01*
X014232Y006651D02*
X014147Y006651D01*
X014144Y006553D02*
X014235Y006553D01*
X014276Y006454D02*
X014103Y006454D01*
X014042Y006356D02*
X014338Y006356D01*
X014444Y006257D02*
X013935Y006257D01*
X013444Y006257D02*
X012935Y006257D01*
X013042Y006356D02*
X013338Y006356D01*
X013276Y006454D02*
X013103Y006454D01*
X013144Y006553D02*
X013235Y006553D01*
X013232Y006651D02*
X013147Y006651D01*
X013143Y006750D02*
X013236Y006750D01*
X013277Y006848D02*
X013102Y006848D01*
X013040Y006947D02*
X013340Y006947D01*
X013449Y007045D02*
X012931Y007045D01*
X012920Y007144D02*
X013460Y007144D01*
X013460Y007242D02*
X012920Y007242D01*
X012920Y007341D02*
X013460Y007341D01*
X013460Y007439D02*
X012920Y007439D01*
X012920Y007538D02*
X013460Y007538D01*
X013460Y007636D02*
X012920Y007636D01*
X012920Y007735D02*
X013460Y007735D01*
X013460Y007833D02*
X012920Y007833D01*
X012920Y007932D02*
X013460Y007932D01*
X013460Y008030D02*
X012920Y008030D01*
X012920Y008129D02*
X013460Y008129D01*
X013460Y008227D02*
X012920Y008227D01*
X012920Y008326D02*
X013460Y008326D01*
X013460Y008424D02*
X012920Y008424D01*
X012920Y008523D02*
X013460Y008523D01*
X013460Y008621D02*
X012920Y008621D01*
X012920Y008720D02*
X013460Y008720D01*
X013460Y008818D02*
X012920Y008818D01*
X012920Y008917D02*
X013460Y008917D01*
X013460Y009015D02*
X012920Y009015D01*
X012920Y009114D02*
X013460Y009114D01*
X013460Y009212D02*
X012920Y009212D01*
X012920Y009311D02*
X013460Y009311D01*
X013460Y009409D02*
X012920Y009409D01*
X012920Y009508D02*
X013460Y009508D01*
X013460Y009606D02*
X012920Y009606D01*
X012920Y009705D02*
X013460Y009705D01*
X013460Y009803D02*
X012920Y009803D01*
X012920Y009902D02*
X013460Y009902D01*
X013460Y010000D02*
X012920Y010000D01*
X012920Y010099D02*
X013460Y010099D01*
X013460Y010197D02*
X012920Y010197D01*
X012920Y010296D02*
X013460Y010296D01*
X013460Y010394D02*
X012920Y010394D01*
X012920Y010493D02*
X013460Y010493D01*
X013460Y010591D02*
X012920Y010591D01*
X012920Y010690D02*
X013460Y010690D01*
X013460Y010788D02*
X012920Y010788D01*
X012920Y010887D02*
X013460Y010887D01*
X013460Y010985D02*
X012920Y010985D01*
X012920Y011084D02*
X013460Y011084D01*
X013460Y011182D02*
X012920Y011182D01*
X012920Y011281D02*
X013460Y011281D01*
X013460Y011379D02*
X012920Y011379D01*
X012920Y011478D02*
X013460Y011478D01*
X013460Y011576D02*
X012920Y011576D01*
X012920Y011675D02*
X013460Y011675D01*
X013460Y011773D02*
X012920Y011773D01*
X012920Y011872D02*
X013393Y011872D01*
X013294Y011970D02*
X012920Y011970D01*
X012846Y012069D02*
X013196Y012069D01*
X013097Y012167D02*
X012748Y012167D01*
X012649Y012266D02*
X012999Y012266D01*
X012900Y012364D02*
X012551Y012364D01*
X012452Y012463D02*
X012802Y012463D01*
X012703Y012561D02*
X012354Y012561D01*
X012255Y012660D02*
X012605Y012660D01*
X012506Y012758D02*
X012157Y012758D01*
X012058Y012857D02*
X012408Y012857D01*
X012309Y012955D02*
X011960Y012955D01*
X011861Y013054D02*
X012211Y013054D01*
X012112Y013152D02*
X011763Y013152D01*
X011664Y013251D02*
X012014Y013251D01*
X011960Y013349D02*
X011566Y013349D01*
X011467Y013448D02*
X011960Y013448D01*
X011960Y013546D02*
X011420Y013546D01*
X011420Y013645D02*
X011960Y013645D01*
X011960Y013743D02*
X011420Y013743D01*
X011420Y013842D02*
X011960Y013842D01*
X011960Y013940D02*
X011420Y013940D01*
X011420Y014039D02*
X011960Y014039D01*
X011960Y014137D02*
X011420Y014137D01*
X011420Y014236D02*
X011960Y014236D01*
X011960Y014334D02*
X011420Y014334D01*
X011420Y014433D02*
X011960Y014433D01*
X011960Y014531D02*
X011420Y014531D01*
X011420Y014630D02*
X011960Y014630D01*
X011960Y014728D02*
X011420Y014728D01*
X011420Y014827D02*
X011960Y014827D01*
X011960Y014925D02*
X011420Y014925D01*
X011420Y015024D02*
X011960Y015024D01*
X011960Y015122D02*
X011420Y015122D01*
X011420Y015221D02*
X011532Y015221D01*
X011847Y015221D02*
X011960Y015221D01*
X012420Y015221D02*
X012532Y015221D01*
X012420Y015122D02*
X018892Y015122D01*
X018810Y015205D02*
X020594Y013420D01*
X031541Y013420D01*
X031791Y013170D01*
X032188Y013170D01*
X032470Y013451D01*
X032470Y013849D01*
X032188Y014130D01*
X031791Y014130D01*
X031541Y013880D01*
X020785Y013880D01*
X019135Y015530D01*
X019147Y015559D01*
X019147Y015741D01*
X019077Y015909D01*
X018949Y016038D01*
X018781Y016107D01*
X019598Y016107D01*
X019599Y016107D02*
X019431Y016038D01*
X019302Y015909D01*
X019232Y015741D01*
X019232Y015559D01*
X019302Y015391D01*
X019431Y015262D01*
X019599Y015193D01*
X019781Y015193D01*
X019810Y015205D01*
X020594Y014420D01*
X031541Y014420D01*
X031791Y014170D01*
X032188Y014170D01*
X032470Y014451D01*
X032470Y014849D01*
X032188Y015130D01*
X031791Y015130D01*
X031541Y014880D01*
X020785Y014880D01*
X020135Y015530D01*
X020147Y015559D01*
X020147Y015741D01*
X020077Y015909D01*
X019949Y016038D01*
X019781Y016107D01*
X020460Y016107D01*
X020460Y016050D02*
X020431Y016038D01*
X020302Y015909D01*
X020232Y015741D01*
X020232Y015559D01*
X020302Y015391D01*
X020431Y015262D01*
X020599Y015193D01*
X020781Y015193D01*
X020949Y015262D01*
X021077Y015391D01*
X021147Y015559D01*
X021147Y015741D01*
X021077Y015909D01*
X020949Y016038D01*
X020920Y016050D01*
X020920Y016155D01*
X021785Y017020D01*
X021920Y017155D01*
X021920Y019201D01*
X022170Y019451D01*
X022170Y019849D01*
X021888Y020130D01*
X021491Y020130D01*
X021210Y019849D01*
X021210Y019451D01*
X021460Y019201D01*
X021460Y017345D01*
X020460Y016345D01*
X020460Y016050D01*
X020402Y016009D02*
X019978Y016009D01*
X020076Y015910D02*
X020303Y015910D01*
X020262Y015812D02*
X020118Y015812D01*
X020147Y015713D02*
X020232Y015713D01*
X020232Y015615D02*
X020147Y015615D01*
X020149Y015516D02*
X020250Y015516D01*
X020247Y015418D02*
X020291Y015418D01*
X020346Y015319D02*
X020374Y015319D01*
X020444Y015221D02*
X020532Y015221D01*
X020543Y015122D02*
X031783Y015122D01*
X031791Y015170D02*
X032188Y015170D01*
X032470Y015451D01*
X032470Y015849D01*
X032188Y016130D01*
X031835Y016130D01*
X031795Y016170D01*
X032188Y016170D01*
X032470Y016451D01*
X032470Y016849D01*
X032188Y017130D01*
X029344Y017130D01*
X028594Y016380D01*
X028460Y016245D01*
X028460Y016050D01*
X028431Y016038D01*
X028302Y015909D01*
X028232Y015741D01*
X028232Y015559D01*
X028302Y015391D01*
X028431Y015262D01*
X028599Y015193D01*
X028781Y015193D01*
X028949Y015262D01*
X029077Y015391D01*
X029147Y015559D01*
X029147Y015741D01*
X029077Y015909D01*
X028949Y016038D01*
X028920Y016050D01*
X028920Y016055D01*
X029535Y016670D01*
X031510Y016670D01*
X031510Y016455D01*
X031335Y016630D01*
X029844Y016630D01*
X029710Y016495D01*
X029460Y016245D01*
X029460Y016050D01*
X029431Y016038D01*
X029302Y015909D01*
X029232Y015741D01*
X029232Y015559D01*
X029302Y015391D01*
X029431Y015262D01*
X029599Y015193D01*
X029781Y015193D01*
X029949Y015262D01*
X030077Y015391D01*
X030147Y015559D01*
X030147Y015741D01*
X030077Y015909D01*
X029949Y016038D01*
X029920Y016050D01*
X029920Y016055D01*
X030035Y016170D01*
X031144Y016170D01*
X031510Y015805D01*
X031510Y015451D01*
X031791Y015170D01*
X031740Y015221D02*
X030847Y015221D01*
X030865Y015226D02*
X030929Y015259D01*
X030987Y015301D01*
X031038Y015352D01*
X031081Y015410D01*
X031113Y015475D01*
X031136Y015543D01*
X031146Y015611D01*
X030728Y015611D01*
X030728Y015193D01*
X030797Y015204D01*
X030865Y015226D01*
X030728Y015221D02*
X030651Y015221D01*
X030651Y015193D02*
X030651Y015611D01*
X030728Y015611D01*
X030728Y015689D01*
X030651Y015689D01*
X030651Y016107D01*
X030583Y016096D01*
X030514Y016074D01*
X030450Y016041D01*
X030392Y015999D01*
X030341Y015948D01*
X030299Y015890D01*
X030266Y015825D01*
X030244Y015757D01*
X030233Y015689D01*
X030651Y015689D01*
X030651Y015611D01*
X030233Y015611D01*
X030244Y015543D01*
X030266Y015475D01*
X030299Y015410D01*
X030341Y015352D01*
X030392Y015301D01*
X030450Y015259D01*
X030514Y015226D01*
X030583Y015204D01*
X030651Y015193D01*
X030532Y015221D02*
X029847Y015221D01*
X030005Y015319D02*
X030374Y015319D01*
X030295Y015418D02*
X030088Y015418D01*
X030129Y015516D02*
X030252Y015516D01*
X030147Y015615D02*
X030651Y015615D01*
X030728Y015615D02*
X031510Y015615D01*
X031510Y015713D02*
X031142Y015713D01*
X031146Y015689D02*
X031136Y015757D01*
X031113Y015825D01*
X031081Y015890D01*
X031038Y015948D01*
X030987Y015999D01*
X030929Y016041D01*
X030865Y016074D01*
X030797Y016096D01*
X030728Y016107D01*
X030728Y015689D01*
X031146Y015689D01*
X031118Y015812D02*
X031503Y015812D01*
X031404Y015910D02*
X031066Y015910D01*
X030974Y016009D02*
X031306Y016009D01*
X031207Y016107D02*
X029972Y016107D01*
X029978Y016009D02*
X030405Y016009D01*
X030313Y015910D02*
X030076Y015910D01*
X030118Y015812D02*
X030261Y015812D01*
X030237Y015713D02*
X030147Y015713D01*
X030651Y015713D02*
X030728Y015713D01*
X030728Y015812D02*
X030651Y015812D01*
X030651Y015910D02*
X030728Y015910D01*
X030728Y016009D02*
X030651Y016009D01*
X030651Y015516D02*
X030728Y015516D01*
X030728Y015418D02*
X030651Y015418D01*
X030651Y015319D02*
X030728Y015319D01*
X031005Y015319D02*
X031642Y015319D01*
X031543Y015418D02*
X031084Y015418D01*
X031127Y015516D02*
X031510Y015516D01*
X031684Y015024D02*
X020641Y015024D01*
X020740Y014925D02*
X031586Y014925D01*
X031627Y014334D02*
X020331Y014334D01*
X020429Y014236D02*
X031725Y014236D01*
X031699Y014039D02*
X020626Y014039D01*
X020528Y014137D02*
X035740Y014137D01*
X035740Y014039D02*
X034280Y014039D01*
X034188Y014130D02*
X034040Y014130D01*
X034040Y013700D01*
X034470Y013700D01*
X034470Y013849D01*
X034188Y014130D01*
X034188Y014170D02*
X034470Y014451D01*
X034470Y014600D01*
X034040Y014600D01*
X034040Y014700D01*
X034470Y014700D01*
X034470Y014849D01*
X034188Y015130D01*
X034040Y015130D01*
X034040Y014700D01*
X033940Y014700D01*
X033940Y015130D01*
X033791Y015130D01*
X033510Y014849D01*
X033510Y014700D01*
X033940Y014700D01*
X033940Y014600D01*
X034040Y014600D01*
X034040Y014170D01*
X034188Y014170D01*
X034254Y014236D02*
X035740Y014236D01*
X035740Y014334D02*
X034352Y014334D01*
X034451Y014433D02*
X035740Y014433D01*
X035740Y014531D02*
X034470Y014531D01*
X034470Y014728D02*
X035740Y014728D01*
X035740Y014630D02*
X034040Y014630D01*
X034040Y014728D02*
X033940Y014728D01*
X033940Y014630D02*
X033470Y014630D01*
X033510Y014600D02*
X033510Y014451D01*
X033791Y014170D01*
X033940Y014170D01*
X033940Y014600D01*
X033510Y014600D01*
X033510Y014531D02*
X033470Y014531D01*
X033470Y014451D02*
X033188Y014170D01*
X032791Y014170D01*
X032510Y014451D01*
X032510Y014849D01*
X032791Y015130D01*
X033188Y015130D01*
X033470Y014849D01*
X033470Y014451D01*
X033451Y014433D02*
X033528Y014433D01*
X033627Y014334D02*
X033352Y014334D01*
X033254Y014236D02*
X033725Y014236D01*
X033791Y014130D02*
X033510Y013849D01*
X033510Y013700D01*
X033940Y013700D01*
X033940Y014130D01*
X033791Y014130D01*
X033699Y014039D02*
X033280Y014039D01*
X033188Y014130D02*
X033470Y013849D01*
X033470Y013451D01*
X033188Y013170D01*
X032791Y013170D01*
X032510Y013451D01*
X032510Y013849D01*
X032791Y014130D01*
X033188Y014130D01*
X033378Y013940D02*
X033601Y013940D01*
X033510Y013842D02*
X033470Y013842D01*
X033470Y013743D02*
X033510Y013743D01*
X033470Y013645D02*
X033940Y013645D01*
X033940Y013600D02*
X033510Y013600D01*
X033510Y013451D01*
X033791Y013170D01*
X033940Y013170D01*
X033940Y013600D01*
X034040Y013600D01*
X034040Y013700D01*
X033940Y013700D01*
X033940Y013600D01*
X033940Y013546D02*
X034040Y013546D01*
X034040Y013600D02*
X034040Y013170D01*
X034188Y013170D01*
X034470Y013451D01*
X034470Y013600D01*
X034040Y013600D01*
X034040Y013645D02*
X035740Y013645D01*
X035740Y013743D02*
X034470Y013743D01*
X034470Y013842D02*
X035740Y013842D01*
X035740Y013940D02*
X034378Y013940D01*
X034040Y013940D02*
X033940Y013940D01*
X033940Y013842D02*
X034040Y013842D01*
X034040Y013743D02*
X033940Y013743D01*
X033940Y013448D02*
X034040Y013448D01*
X034040Y013349D02*
X033940Y013349D01*
X033940Y013251D02*
X034040Y013251D01*
X034040Y013130D02*
X034188Y013130D01*
X034470Y012849D01*
X034470Y012700D01*
X034040Y012700D01*
X034040Y012600D01*
X034470Y012600D01*
X034470Y012451D01*
X034188Y012170D01*
X034040Y012170D01*
X034040Y012600D01*
X033940Y012600D01*
X033940Y012170D01*
X033791Y012170D01*
X033510Y012451D01*
X033510Y012600D01*
X033940Y012600D01*
X033940Y012700D01*
X033940Y013130D01*
X033791Y013130D01*
X033510Y012849D01*
X033510Y012700D01*
X033940Y012700D01*
X034040Y012700D01*
X034040Y013130D01*
X034040Y013054D02*
X033940Y013054D01*
X033940Y012955D02*
X034040Y012955D01*
X034040Y012857D02*
X033940Y012857D01*
X033940Y012758D02*
X034040Y012758D01*
X034040Y012660D02*
X035740Y012660D01*
X035740Y012758D02*
X034470Y012758D01*
X034462Y012857D02*
X035740Y012857D01*
X035740Y012955D02*
X034363Y012955D01*
X034265Y013054D02*
X035740Y013054D01*
X035740Y013152D02*
X012763Y013152D01*
X012861Y013054D02*
X031714Y013054D01*
X031710Y013251D02*
X012664Y013251D01*
X012566Y013349D02*
X031612Y013349D01*
X031601Y013940D02*
X020725Y013940D01*
X020370Y013645D02*
X012420Y013645D01*
X012420Y013743D02*
X020271Y013743D01*
X020173Y013842D02*
X012420Y013842D01*
X012420Y013940D02*
X020074Y013940D01*
X019976Y014039D02*
X012420Y014039D01*
X012420Y014137D02*
X019877Y014137D01*
X019779Y014236D02*
X012420Y014236D01*
X012420Y014334D02*
X019680Y014334D01*
X019582Y014433D02*
X012420Y014433D01*
X012420Y014531D02*
X019483Y014531D01*
X019385Y014630D02*
X012420Y014630D01*
X012420Y014728D02*
X019286Y014728D01*
X019188Y014827D02*
X012420Y014827D01*
X012420Y014925D02*
X019089Y014925D01*
X018991Y015024D02*
X012420Y015024D01*
X011960Y016027D02*
X011949Y016038D01*
X011781Y016107D01*
X011907Y016107D01*
X011960Y016055D02*
X011844Y016170D01*
X011710Y016305D01*
X011710Y021305D01*
X011170Y021845D01*
X011170Y021495D01*
X011670Y020995D01*
X011670Y016305D01*
X011420Y016055D01*
X011420Y016027D01*
X011431Y016038D01*
X011599Y016107D01*
X011781Y016107D01*
X011809Y016206D02*
X011570Y016206D01*
X011598Y016107D02*
X011472Y016107D01*
X011669Y016304D02*
X011710Y016304D01*
X011710Y016403D02*
X011670Y016403D01*
X011670Y016501D02*
X011710Y016501D01*
X011710Y016600D02*
X011670Y016600D01*
X011670Y016698D02*
X011710Y016698D01*
X011710Y016797D02*
X011670Y016797D01*
X011670Y016895D02*
X011710Y016895D01*
X011710Y016994D02*
X011670Y016994D01*
X011670Y017092D02*
X011710Y017092D01*
X011710Y017191D02*
X011670Y017191D01*
X011670Y017289D02*
X011710Y017289D01*
X011710Y017388D02*
X011670Y017388D01*
X011670Y017486D02*
X011710Y017486D01*
X011710Y017585D02*
X011670Y017585D01*
X011670Y017683D02*
X011710Y017683D01*
X011710Y017782D02*
X011670Y017782D01*
X011670Y017880D02*
X011710Y017880D01*
X011710Y017979D02*
X011670Y017979D01*
X011670Y018077D02*
X011710Y018077D01*
X011710Y018176D02*
X011670Y018176D01*
X011670Y018274D02*
X011710Y018274D01*
X011710Y018373D02*
X011670Y018373D01*
X011670Y018471D02*
X011710Y018471D01*
X011710Y018570D02*
X011670Y018570D01*
X011670Y018668D02*
X011710Y018668D01*
X011710Y018767D02*
X011670Y018767D01*
X011670Y018865D02*
X011710Y018865D01*
X011710Y018964D02*
X011670Y018964D01*
X011670Y019062D02*
X011710Y019062D01*
X011710Y019161D02*
X011670Y019161D01*
X011670Y019259D02*
X011710Y019259D01*
X011710Y019358D02*
X011670Y019358D01*
X011670Y019456D02*
X011710Y019456D01*
X011710Y019555D02*
X011670Y019555D01*
X011670Y019653D02*
X011710Y019653D01*
X011710Y019752D02*
X011670Y019752D01*
X011670Y019850D02*
X011710Y019850D01*
X011710Y019949D02*
X011670Y019949D01*
X011670Y020047D02*
X011710Y020047D01*
X011710Y020146D02*
X011670Y020146D01*
X011670Y020244D02*
X011710Y020244D01*
X011710Y020343D02*
X011670Y020343D01*
X011670Y020441D02*
X011710Y020441D01*
X011710Y020540D02*
X011670Y020540D01*
X011670Y020638D02*
X011710Y020638D01*
X011710Y020737D02*
X011670Y020737D01*
X011670Y020835D02*
X011710Y020835D01*
X011710Y020934D02*
X011670Y020934D01*
X011633Y021032D02*
X011710Y021032D01*
X011710Y021131D02*
X011534Y021131D01*
X011436Y021229D02*
X011710Y021229D01*
X011687Y021328D02*
X011337Y021328D01*
X011239Y021426D02*
X011588Y021426D01*
X011490Y021525D02*
X011170Y021525D01*
X011170Y021623D02*
X011391Y021623D01*
X011293Y021722D02*
X011170Y021722D01*
X011170Y021820D02*
X011194Y021820D01*
X011549Y022116D02*
X021476Y022116D01*
X021491Y022130D02*
X021210Y021849D01*
X021210Y021700D01*
X021640Y021700D01*
X021640Y022130D01*
X021491Y022130D01*
X021640Y022116D02*
X021740Y022116D01*
X021740Y022130D02*
X021740Y021700D01*
X022170Y021700D01*
X022170Y021849D01*
X021888Y022130D01*
X021740Y022130D01*
X021740Y022017D02*
X021640Y022017D01*
X021640Y021919D02*
X021740Y021919D01*
X021740Y021820D02*
X021640Y021820D01*
X021640Y021722D02*
X021740Y021722D01*
X021740Y021700D02*
X021640Y021700D01*
X021640Y021600D01*
X021740Y021600D01*
X021740Y021700D01*
X021740Y021623D02*
X022640Y021623D01*
X022640Y021600D02*
X022210Y021600D01*
X022210Y021451D01*
X022491Y021170D01*
X022640Y021170D01*
X022640Y021600D01*
X022740Y021600D01*
X022740Y021700D01*
X023170Y021700D01*
X023170Y021849D01*
X022888Y022130D01*
X022740Y022130D01*
X022740Y021700D01*
X022640Y021700D01*
X022640Y022130D01*
X022491Y022130D01*
X022210Y021849D01*
X022210Y021700D01*
X022640Y021700D01*
X022640Y021600D01*
X022640Y021525D02*
X022740Y021525D01*
X022740Y021600D02*
X022740Y021170D01*
X022888Y021170D01*
X023170Y021451D01*
X023170Y021600D01*
X022740Y021600D01*
X022740Y021623D02*
X023640Y021623D01*
X023640Y021600D02*
X023210Y021600D01*
X023210Y021451D01*
X023491Y021170D01*
X023640Y021170D01*
X023640Y021600D01*
X023740Y021600D01*
X023740Y021700D01*
X024170Y021700D01*
X024170Y021849D01*
X023888Y022130D01*
X023740Y022130D01*
X023740Y021700D01*
X023640Y021700D01*
X023640Y022130D01*
X023491Y022130D01*
X023210Y021849D01*
X023210Y021700D01*
X023640Y021700D01*
X023640Y021600D01*
X023640Y021525D02*
X023740Y021525D01*
X023740Y021600D02*
X023740Y021170D01*
X023888Y021170D01*
X024170Y021451D01*
X024170Y021600D01*
X023740Y021600D01*
X023740Y021623D02*
X024640Y021623D01*
X024640Y021600D02*
X024210Y021600D01*
X024210Y021451D01*
X024491Y021170D01*
X024640Y021170D01*
X024640Y021600D01*
X024740Y021600D01*
X024740Y021700D01*
X025170Y021700D01*
X025170Y021849D01*
X024888Y022130D01*
X024740Y022130D01*
X024740Y021700D01*
X024640Y021700D01*
X024640Y022130D01*
X024491Y022130D01*
X024210Y021849D01*
X024210Y021700D01*
X024640Y021700D01*
X024640Y021600D01*
X024640Y021525D02*
X024740Y021525D01*
X024740Y021600D02*
X024740Y021170D01*
X024888Y021170D01*
X025170Y021451D01*
X025170Y021600D01*
X024740Y021600D01*
X024740Y021623D02*
X034140Y021623D01*
X034140Y021600D02*
X033710Y021600D01*
X033710Y021451D01*
X033991Y021170D01*
X034140Y021170D01*
X034140Y021600D01*
X034240Y021600D01*
X034240Y021700D01*
X034670Y021700D01*
X034670Y021849D01*
X034388Y022130D01*
X034240Y022130D01*
X034240Y021700D01*
X034140Y021700D01*
X034140Y022130D01*
X033991Y022130D01*
X033710Y021849D01*
X033710Y021700D01*
X034140Y021700D01*
X034140Y021600D01*
X034140Y021525D02*
X034240Y021525D01*
X034240Y021600D02*
X034240Y021170D01*
X034388Y021170D01*
X034670Y021451D01*
X034670Y021600D01*
X034240Y021600D01*
X034240Y021623D02*
X035740Y021623D01*
X035740Y021525D02*
X034670Y021525D01*
X034644Y021426D02*
X035740Y021426D01*
X035740Y021328D02*
X034546Y021328D01*
X034447Y021229D02*
X035740Y021229D01*
X035740Y021131D02*
X029881Y021131D01*
X029881Y021130D02*
X029620Y021435D01*
X029620Y021445D01*
X029558Y021506D01*
X029502Y021572D01*
X029492Y021573D01*
X029485Y021580D01*
X029398Y021580D01*
X029312Y021587D01*
X029305Y021580D01*
X027475Y021580D01*
X027467Y021587D01*
X027381Y021580D01*
X027294Y021580D01*
X027287Y021573D01*
X027277Y021572D01*
X027221Y021506D01*
X027160Y021445D01*
X027160Y021435D01*
X026621Y020806D01*
X026560Y020745D01*
X026560Y020735D01*
X026553Y020727D01*
X026560Y020641D01*
X026560Y020223D01*
X026548Y020211D01*
X026505Y020107D01*
X026505Y019993D01*
X026548Y019889D01*
X026628Y019808D01*
X026733Y019765D01*
X026846Y019765D01*
X026951Y019808D01*
X027031Y019889D01*
X027075Y019993D01*
X027075Y020107D01*
X027031Y020211D01*
X027020Y020223D01*
X027020Y020565D01*
X027495Y021120D01*
X027781Y021120D01*
X027510Y020849D01*
X027510Y020700D01*
X027940Y020700D01*
X027940Y020600D01*
X028040Y020600D01*
X028040Y020700D01*
X028470Y020700D01*
X028470Y020849D01*
X028198Y021120D01*
X028781Y021120D01*
X028510Y020849D01*
X028510Y020451D01*
X028791Y020170D01*
X029188Y020170D01*
X029470Y020451D01*
X029470Y020849D01*
X029198Y021120D01*
X029284Y021120D01*
X029513Y020852D01*
X029510Y020849D01*
X029510Y020451D01*
X029791Y020170D01*
X030188Y020170D01*
X030470Y020451D01*
X030470Y020849D01*
X030188Y021130D01*
X029881Y021130D01*
X029796Y021229D02*
X033932Y021229D01*
X033833Y021328D02*
X029712Y021328D01*
X029627Y021426D02*
X033735Y021426D01*
X033710Y021525D02*
X029543Y021525D01*
X029359Y021032D02*
X029286Y021032D01*
X029385Y020934D02*
X029444Y020934D01*
X029470Y020835D02*
X029510Y020835D01*
X029510Y020737D02*
X029470Y020737D01*
X029470Y020638D02*
X029510Y020638D01*
X029510Y020540D02*
X029470Y020540D01*
X029459Y020441D02*
X029520Y020441D01*
X029618Y020343D02*
X029361Y020343D01*
X029262Y020244D02*
X029717Y020244D01*
X029791Y020130D02*
X029510Y019849D01*
X029510Y019495D01*
X029470Y019455D01*
X029470Y019849D01*
X029188Y020130D01*
X028791Y020130D01*
X028510Y019849D01*
X028510Y019451D01*
X028791Y019170D01*
X029184Y019170D01*
X028544Y018530D01*
X027013Y018530D01*
X027001Y018542D01*
X026896Y018585D01*
X026783Y018585D01*
X026678Y018542D01*
X026598Y018461D01*
X026555Y018357D01*
X026555Y018243D01*
X026598Y018139D01*
X026678Y018058D01*
X026783Y018015D01*
X026896Y018015D01*
X027001Y018058D01*
X027013Y018070D01*
X028735Y018070D01*
X029835Y019170D01*
X030188Y019170D01*
X030470Y019451D01*
X030470Y019849D01*
X030188Y020130D01*
X029791Y020130D01*
X029708Y020047D02*
X029271Y020047D01*
X029370Y019949D02*
X029609Y019949D01*
X029511Y019850D02*
X029468Y019850D01*
X029470Y019752D02*
X029510Y019752D01*
X029510Y019653D02*
X029470Y019653D01*
X029470Y019555D02*
X029510Y019555D01*
X029470Y019456D02*
X029470Y019456D01*
X029175Y019161D02*
X024920Y019161D01*
X024920Y019201D02*
X025170Y019451D01*
X025170Y019849D01*
X024888Y020130D01*
X024491Y020130D01*
X024210Y019849D01*
X024210Y019451D01*
X024460Y019201D01*
X024460Y017345D01*
X023460Y016345D01*
X023460Y016050D01*
X023431Y016038D01*
X023302Y015909D01*
X023232Y015741D01*
X023232Y015559D01*
X023302Y015391D01*
X023431Y015262D01*
X023599Y015193D01*
X023781Y015193D01*
X023949Y015262D01*
X024077Y015391D01*
X024147Y015559D01*
X024147Y015741D01*
X024077Y015909D01*
X023949Y016038D01*
X023920Y016050D01*
X023920Y016155D01*
X024785Y017020D01*
X024920Y017155D01*
X024920Y019201D01*
X024977Y019259D02*
X027702Y019259D01*
X027791Y019170D02*
X027510Y019451D01*
X027510Y019600D01*
X027940Y019600D01*
X028040Y019600D01*
X028040Y019700D01*
X028470Y019700D01*
X028470Y019849D01*
X028188Y020130D01*
X028040Y020130D01*
X028040Y019700D01*
X027940Y019700D01*
X027940Y020130D01*
X027791Y020130D01*
X027510Y019849D01*
X027510Y019700D01*
X027940Y019700D01*
X027940Y019600D01*
X027940Y019170D01*
X027791Y019170D01*
X027940Y019259D02*
X028040Y019259D01*
X028040Y019170D02*
X028188Y019170D01*
X028470Y019451D01*
X028470Y019600D01*
X028040Y019600D01*
X028040Y019170D01*
X028040Y019358D02*
X027940Y019358D01*
X027940Y019456D02*
X028040Y019456D01*
X028040Y019555D02*
X027940Y019555D01*
X027940Y019653D02*
X025170Y019653D01*
X025170Y019555D02*
X027510Y019555D01*
X027510Y019456D02*
X025170Y019456D01*
X025076Y019358D02*
X027603Y019358D01*
X027510Y019752D02*
X025170Y019752D01*
X025168Y019850D02*
X026587Y019850D01*
X026523Y019949D02*
X025070Y019949D01*
X024971Y020047D02*
X026505Y020047D01*
X026521Y020146D02*
X012170Y020146D01*
X012170Y020244D02*
X021417Y020244D01*
X021491Y020170D02*
X021888Y020170D01*
X022170Y020451D01*
X022170Y020849D01*
X021888Y021130D01*
X021491Y021130D01*
X021210Y020849D01*
X021210Y020451D01*
X021491Y020170D01*
X021408Y020047D02*
X016971Y020047D01*
X016888Y020130D02*
X017170Y019849D01*
X017170Y019700D01*
X016740Y019700D01*
X016740Y019600D01*
X017170Y019600D01*
X017170Y019451D01*
X016888Y019170D01*
X016740Y019170D01*
X016740Y019600D01*
X016640Y019600D01*
X016640Y019170D01*
X016491Y019170D01*
X016210Y019451D01*
X016210Y019600D01*
X016640Y019600D01*
X016640Y019700D01*
X016640Y020130D01*
X016491Y020130D01*
X016210Y019849D01*
X016210Y019700D01*
X016640Y019700D01*
X016740Y019700D01*
X016740Y020130D01*
X016888Y020130D01*
X016740Y020047D02*
X016640Y020047D01*
X016640Y019949D02*
X016740Y019949D01*
X016740Y019850D02*
X016640Y019850D01*
X016640Y019752D02*
X016740Y019752D01*
X016740Y019653D02*
X021210Y019653D01*
X021210Y019555D02*
X017170Y019555D01*
X017170Y019456D02*
X021210Y019456D01*
X021303Y019358D02*
X017076Y019358D01*
X016977Y019259D02*
X021402Y019259D01*
X021460Y019161D02*
X016039Y019161D01*
X016056Y019144D02*
X015968Y019231D01*
X015950Y019231D01*
X016170Y019451D01*
X016170Y019849D01*
X015888Y020130D01*
X015491Y020130D01*
X015210Y019849D01*
X015210Y019451D01*
X015429Y019231D01*
X015411Y019231D01*
X015323Y019144D01*
X015323Y018626D01*
X015399Y018550D01*
X015323Y018474D01*
X015323Y017956D01*
X015411Y017869D01*
X015546Y017869D01*
X017404Y016011D01*
X017302Y015909D01*
X017232Y015741D01*
X017232Y015559D01*
X017302Y015391D01*
X017431Y015262D01*
X017599Y015193D01*
X017781Y015193D01*
X017949Y015262D01*
X018077Y015391D01*
X018147Y015559D01*
X018147Y015741D01*
X018077Y015909D01*
X017949Y016038D01*
X017920Y016050D01*
X017920Y016145D01*
X017785Y016280D01*
X016056Y018009D01*
X016056Y018474D01*
X015980Y018550D01*
X016056Y018626D01*
X016056Y019144D01*
X016056Y019062D02*
X021460Y019062D01*
X021460Y018964D02*
X016056Y018964D01*
X016056Y018865D02*
X021460Y018865D01*
X021460Y018767D02*
X016056Y018767D01*
X016056Y018668D02*
X021460Y018668D01*
X021460Y018570D02*
X016000Y018570D01*
X016056Y018471D02*
X021460Y018471D01*
X021460Y018373D02*
X016056Y018373D01*
X016056Y018274D02*
X021460Y018274D01*
X021460Y018176D02*
X016056Y018176D01*
X016056Y018077D02*
X021460Y018077D01*
X021460Y017979D02*
X016086Y017979D01*
X016185Y017880D02*
X021460Y017880D01*
X021460Y017782D02*
X016283Y017782D01*
X016382Y017683D02*
X021460Y017683D01*
X021460Y017585D02*
X016480Y017585D01*
X016579Y017486D02*
X021460Y017486D01*
X021460Y017388D02*
X016677Y017388D01*
X016776Y017289D02*
X021403Y017289D01*
X021305Y017191D02*
X016874Y017191D01*
X016973Y017092D02*
X021206Y017092D01*
X021108Y016994D02*
X017071Y016994D01*
X017170Y016895D02*
X021009Y016895D01*
X020911Y016797D02*
X017268Y016797D01*
X017367Y016698D02*
X020812Y016698D01*
X020714Y016600D02*
X017465Y016600D01*
X017564Y016501D02*
X020615Y016501D01*
X020517Y016403D02*
X017662Y016403D01*
X017761Y016304D02*
X020460Y016304D01*
X020460Y016206D02*
X017859Y016206D01*
X017920Y016107D02*
X018598Y016107D01*
X018599Y016107D02*
X018431Y016038D01*
X018302Y015909D01*
X018232Y015741D01*
X018232Y015559D01*
X018302Y015391D01*
X018431Y015262D01*
X018599Y015193D01*
X018781Y015193D01*
X018810Y015205D01*
X018532Y015221D02*
X017847Y015221D01*
X018005Y015319D02*
X018374Y015319D01*
X018291Y015418D02*
X018088Y015418D01*
X018129Y015516D02*
X018250Y015516D01*
X018232Y015615D02*
X018147Y015615D01*
X018147Y015713D02*
X018232Y015713D01*
X018262Y015812D02*
X018118Y015812D01*
X018076Y015910D02*
X018303Y015910D01*
X018402Y016009D02*
X017978Y016009D01*
X017402Y016009D02*
X016978Y016009D01*
X016920Y016107D02*
X017307Y016107D01*
X017209Y016206D02*
X016859Y016206D01*
X016761Y016304D02*
X017110Y016304D01*
X017012Y016403D02*
X016662Y016403D01*
X016564Y016501D02*
X016913Y016501D01*
X016815Y016600D02*
X016465Y016600D01*
X016367Y016698D02*
X016716Y016698D01*
X016618Y016797D02*
X016268Y016797D01*
X016170Y016895D02*
X016519Y016895D01*
X016421Y016994D02*
X016071Y016994D01*
X015973Y017092D02*
X016322Y017092D01*
X016224Y017191D02*
X015874Y017191D01*
X015776Y017289D02*
X016125Y017289D01*
X016027Y017388D02*
X015677Y017388D01*
X015579Y017486D02*
X015928Y017486D01*
X015830Y017585D02*
X015480Y017585D01*
X015382Y017683D02*
X015731Y017683D01*
X015633Y017782D02*
X015283Y017782D01*
X015185Y017880D02*
X015399Y017880D01*
X015323Y017979D02*
X015086Y017979D01*
X015056Y018077D02*
X015323Y018077D01*
X015323Y018176D02*
X015056Y018176D01*
X015056Y018274D02*
X015323Y018274D01*
X015323Y018373D02*
X015056Y018373D01*
X015056Y018471D02*
X015323Y018471D01*
X015379Y018570D02*
X015000Y018570D01*
X015056Y018668D02*
X015323Y018668D01*
X015323Y018767D02*
X015056Y018767D01*
X015056Y018865D02*
X015323Y018865D01*
X015323Y018964D02*
X015056Y018964D01*
X015056Y019062D02*
X015323Y019062D01*
X015340Y019161D02*
X015039Y019161D01*
X014977Y019259D02*
X015402Y019259D01*
X015303Y019358D02*
X015076Y019358D01*
X015170Y019456D02*
X015210Y019456D01*
X015210Y019555D02*
X015170Y019555D01*
X015170Y019653D02*
X015210Y019653D01*
X015210Y019752D02*
X015170Y019752D01*
X015168Y019850D02*
X015211Y019850D01*
X015309Y019949D02*
X015070Y019949D01*
X014971Y020047D02*
X015408Y020047D01*
X015971Y020047D02*
X016408Y020047D01*
X016309Y019949D02*
X016070Y019949D01*
X016168Y019850D02*
X016211Y019850D01*
X016210Y019752D02*
X016170Y019752D01*
X016170Y019653D02*
X016640Y019653D01*
X016640Y019555D02*
X016740Y019555D01*
X016740Y019456D02*
X016640Y019456D01*
X016640Y019358D02*
X016740Y019358D01*
X016740Y019259D02*
X016640Y019259D01*
X016402Y019259D02*
X015977Y019259D01*
X016076Y019358D02*
X016303Y019358D01*
X016210Y019456D02*
X016170Y019456D01*
X016170Y019555D02*
X016210Y019555D01*
X017070Y019949D02*
X021309Y019949D01*
X021211Y019850D02*
X017168Y019850D01*
X017170Y019752D02*
X021210Y019752D01*
X021971Y020047D02*
X022408Y020047D01*
X022491Y020130D02*
X022210Y019849D01*
X022210Y019451D01*
X022460Y019201D01*
X022460Y017345D01*
X021460Y016345D01*
X021460Y016050D01*
X021431Y016038D01*
X021302Y015909D01*
X021232Y015741D01*
X021232Y015559D01*
X021302Y015391D01*
X021431Y015262D01*
X021599Y015193D01*
X021781Y015193D01*
X021949Y015262D01*
X022077Y015391D01*
X022147Y015559D01*
X022147Y015741D01*
X022077Y015909D01*
X021949Y016038D01*
X021920Y016050D01*
X021920Y016155D01*
X022785Y017020D01*
X022920Y017155D01*
X022920Y019201D01*
X023170Y019451D01*
X023170Y019849D01*
X022888Y020130D01*
X022491Y020130D01*
X022491Y020170D02*
X022888Y020170D01*
X023170Y020451D01*
X023170Y020849D01*
X022888Y021130D01*
X022491Y021130D01*
X022210Y020849D01*
X022210Y020451D01*
X022491Y020170D01*
X022417Y020244D02*
X021962Y020244D01*
X022061Y020343D02*
X022318Y020343D01*
X022220Y020441D02*
X022159Y020441D01*
X022170Y020540D02*
X022210Y020540D01*
X022210Y020638D02*
X022170Y020638D01*
X022170Y020737D02*
X022210Y020737D01*
X022210Y020835D02*
X022170Y020835D01*
X022085Y020934D02*
X022294Y020934D01*
X022393Y021032D02*
X021986Y021032D01*
X021888Y021170D02*
X022170Y021451D01*
X022170Y021600D01*
X021740Y021600D01*
X021740Y021170D01*
X021888Y021170D01*
X021947Y021229D02*
X022432Y021229D01*
X022333Y021328D02*
X022046Y021328D01*
X022144Y021426D02*
X022235Y021426D01*
X022210Y021525D02*
X022170Y021525D01*
X022170Y021722D02*
X022210Y021722D01*
X022210Y021820D02*
X022170Y021820D01*
X022100Y021919D02*
X022279Y021919D01*
X022378Y022017D02*
X022001Y022017D01*
X021903Y022116D02*
X022476Y022116D01*
X022640Y022116D02*
X022740Y022116D01*
X022740Y022017D02*
X022640Y022017D01*
X022640Y021919D02*
X022740Y021919D01*
X022740Y021820D02*
X022640Y021820D01*
X022640Y021722D02*
X022740Y021722D01*
X022740Y021426D02*
X022640Y021426D01*
X022640Y021328D02*
X022740Y021328D01*
X022740Y021229D02*
X022640Y021229D01*
X022947Y021229D02*
X023432Y021229D01*
X023491Y021130D02*
X023210Y020849D01*
X023210Y020451D01*
X023491Y020170D01*
X023888Y020170D01*
X024170Y020451D01*
X024170Y020849D01*
X023888Y021130D01*
X023491Y021130D01*
X023393Y021032D02*
X022986Y021032D01*
X023085Y020934D02*
X023294Y020934D01*
X023210Y020835D02*
X023170Y020835D01*
X023170Y020737D02*
X023210Y020737D01*
X023210Y020638D02*
X023170Y020638D01*
X023170Y020540D02*
X023210Y020540D01*
X023220Y020441D02*
X023159Y020441D01*
X023061Y020343D02*
X023318Y020343D01*
X023417Y020244D02*
X022962Y020244D01*
X022971Y020047D02*
X023408Y020047D01*
X023491Y020130D02*
X023210Y019849D01*
X023210Y019451D01*
X023460Y019201D01*
X023460Y017345D01*
X022460Y016345D01*
X022460Y016050D01*
X022431Y016038D01*
X022302Y015909D01*
X022232Y015741D01*
X022232Y015559D01*
X022302Y015391D01*
X022431Y015262D01*
X022599Y015193D01*
X022781Y015193D01*
X022949Y015262D01*
X023077Y015391D01*
X023147Y015559D01*
X023147Y015741D01*
X023077Y015909D01*
X022949Y016038D01*
X022920Y016050D01*
X022920Y016155D01*
X023785Y017020D01*
X023920Y017155D01*
X023920Y019201D01*
X024170Y019451D01*
X024170Y019849D01*
X023888Y020130D01*
X023491Y020130D01*
X023309Y019949D02*
X023070Y019949D01*
X023168Y019850D02*
X023211Y019850D01*
X023210Y019752D02*
X023170Y019752D01*
X023170Y019653D02*
X023210Y019653D01*
X023210Y019555D02*
X023170Y019555D01*
X023170Y019456D02*
X023210Y019456D01*
X023303Y019358D02*
X023076Y019358D01*
X022977Y019259D02*
X023402Y019259D01*
X023460Y019161D02*
X022920Y019161D01*
X022920Y019062D02*
X023460Y019062D01*
X023460Y018964D02*
X022920Y018964D01*
X022920Y018865D02*
X023460Y018865D01*
X023460Y018767D02*
X022920Y018767D01*
X022920Y018668D02*
X023460Y018668D01*
X023460Y018570D02*
X022920Y018570D01*
X022920Y018471D02*
X023460Y018471D01*
X023460Y018373D02*
X022920Y018373D01*
X022920Y018274D02*
X023460Y018274D01*
X023460Y018176D02*
X022920Y018176D01*
X022920Y018077D02*
X023460Y018077D01*
X023460Y017979D02*
X022920Y017979D01*
X022920Y017880D02*
X023460Y017880D01*
X023460Y017782D02*
X022920Y017782D01*
X022920Y017683D02*
X023460Y017683D01*
X023460Y017585D02*
X022920Y017585D01*
X022920Y017486D02*
X023460Y017486D01*
X023460Y017388D02*
X022920Y017388D01*
X022920Y017289D02*
X023403Y017289D01*
X023305Y017191D02*
X022920Y017191D01*
X022857Y017092D02*
X023206Y017092D01*
X023108Y016994D02*
X022758Y016994D01*
X022660Y016895D02*
X023009Y016895D01*
X022911Y016797D02*
X022561Y016797D01*
X022463Y016698D02*
X022812Y016698D01*
X022714Y016600D02*
X022364Y016600D01*
X022266Y016501D02*
X022615Y016501D01*
X022517Y016403D02*
X022167Y016403D01*
X022069Y016304D02*
X022460Y016304D01*
X022460Y016206D02*
X021970Y016206D01*
X021920Y016107D02*
X022460Y016107D01*
X022402Y016009D02*
X021978Y016009D01*
X022076Y015910D02*
X022303Y015910D01*
X022262Y015812D02*
X022118Y015812D01*
X022147Y015713D02*
X022232Y015713D01*
X022232Y015615D02*
X022147Y015615D01*
X022129Y015516D02*
X022250Y015516D01*
X022291Y015418D02*
X022088Y015418D01*
X022005Y015319D02*
X022374Y015319D01*
X022532Y015221D02*
X021847Y015221D01*
X021532Y015221D02*
X020847Y015221D01*
X021005Y015319D02*
X021374Y015319D01*
X021291Y015418D02*
X021088Y015418D01*
X021129Y015516D02*
X021250Y015516D01*
X021232Y015615D02*
X021147Y015615D01*
X021147Y015713D02*
X021232Y015713D01*
X021262Y015812D02*
X021118Y015812D01*
X021076Y015910D02*
X021303Y015910D01*
X021402Y016009D02*
X020978Y016009D01*
X020920Y016107D02*
X021460Y016107D01*
X021460Y016206D02*
X020970Y016206D01*
X021069Y016304D02*
X021460Y016304D01*
X021517Y016403D02*
X021167Y016403D01*
X021266Y016501D02*
X021615Y016501D01*
X021714Y016600D02*
X021364Y016600D01*
X021463Y016698D02*
X021812Y016698D01*
X021911Y016797D02*
X021561Y016797D01*
X021660Y016895D02*
X022009Y016895D01*
X022108Y016994D02*
X021758Y016994D01*
X021857Y017092D02*
X022206Y017092D01*
X022305Y017191D02*
X021920Y017191D01*
X021920Y017289D02*
X022403Y017289D01*
X022460Y017388D02*
X021920Y017388D01*
X021920Y017486D02*
X022460Y017486D01*
X022460Y017585D02*
X021920Y017585D01*
X021920Y017683D02*
X022460Y017683D01*
X022460Y017782D02*
X021920Y017782D01*
X021920Y017880D02*
X022460Y017880D01*
X022460Y017979D02*
X021920Y017979D01*
X021920Y018077D02*
X022460Y018077D01*
X022460Y018176D02*
X021920Y018176D01*
X021920Y018274D02*
X022460Y018274D01*
X022460Y018373D02*
X021920Y018373D01*
X021920Y018471D02*
X022460Y018471D01*
X022460Y018570D02*
X021920Y018570D01*
X021920Y018668D02*
X022460Y018668D01*
X022460Y018767D02*
X021920Y018767D01*
X021920Y018865D02*
X022460Y018865D01*
X022460Y018964D02*
X021920Y018964D01*
X021920Y019062D02*
X022460Y019062D01*
X022460Y019161D02*
X021920Y019161D01*
X021977Y019259D02*
X022402Y019259D01*
X022303Y019358D02*
X022076Y019358D01*
X022170Y019456D02*
X022210Y019456D01*
X022210Y019555D02*
X022170Y019555D01*
X022170Y019653D02*
X022210Y019653D01*
X022210Y019752D02*
X022170Y019752D01*
X022168Y019850D02*
X022211Y019850D01*
X022309Y019949D02*
X022070Y019949D01*
X021318Y020343D02*
X012170Y020343D01*
X012170Y020441D02*
X021220Y020441D01*
X021210Y020540D02*
X012170Y020540D01*
X012170Y020638D02*
X021210Y020638D01*
X021210Y020737D02*
X012170Y020737D01*
X012170Y020835D02*
X021210Y020835D01*
X021294Y020934D02*
X012170Y020934D01*
X012170Y021032D02*
X021393Y021032D01*
X021491Y021170D02*
X021210Y021451D01*
X021210Y021600D01*
X021640Y021600D01*
X021640Y021170D01*
X021491Y021170D01*
X021432Y021229D02*
X012170Y021229D01*
X012170Y021131D02*
X026899Y021131D01*
X026983Y021229D02*
X024947Y021229D01*
X024888Y021130D02*
X025170Y020849D01*
X025170Y020451D01*
X024888Y020170D01*
X024491Y020170D01*
X024210Y020451D01*
X024210Y020849D01*
X024491Y021130D01*
X024888Y021130D01*
X024986Y021032D02*
X026814Y021032D01*
X026730Y020934D02*
X025085Y020934D01*
X025170Y020835D02*
X026645Y020835D01*
X026560Y020737D02*
X025170Y020737D01*
X025170Y020638D02*
X026560Y020638D01*
X026560Y020540D02*
X025170Y020540D01*
X025159Y020441D02*
X026560Y020441D01*
X026560Y020343D02*
X025061Y020343D01*
X024962Y020244D02*
X026560Y020244D01*
X027020Y020244D02*
X027717Y020244D01*
X027791Y020170D02*
X027510Y020451D01*
X027510Y020600D01*
X027940Y020600D01*
X027940Y020170D01*
X027791Y020170D01*
X027708Y020047D02*
X027075Y020047D01*
X027059Y020146D02*
X030680Y020146D01*
X030680Y020130D02*
X030597Y020130D01*
X030510Y020042D01*
X030510Y019258D01*
X030597Y019170D01*
X031382Y019170D01*
X031470Y019258D01*
X031470Y019340D01*
X031761Y019340D01*
X032638Y018463D01*
X032638Y018141D01*
X032695Y018084D01*
X032695Y017966D01*
X032638Y017909D01*
X032638Y017391D01*
X032680Y017350D01*
X032680Y017019D01*
X032510Y016849D01*
X032510Y016451D01*
X032791Y016170D01*
X033188Y016170D01*
X033470Y016451D01*
X033470Y016849D01*
X033300Y017019D01*
X033300Y017319D01*
X033340Y017359D01*
X033366Y017333D01*
X033400Y017313D01*
X033438Y017303D01*
X033626Y017303D01*
X033626Y017602D01*
X033723Y017602D01*
X033723Y017698D01*
X034041Y017698D01*
X034041Y017867D01*
X034031Y017905D01*
X034011Y017939D01*
X033983Y017967D01*
X033949Y017987D01*
X033911Y017997D01*
X033723Y017997D01*
X033723Y017698D01*
X033626Y017698D01*
X033626Y017997D01*
X033438Y017997D01*
X033400Y017987D01*
X033366Y017967D01*
X033340Y017941D01*
X033315Y017966D01*
X033315Y018084D01*
X033340Y018109D01*
X033366Y018083D01*
X033400Y018063D01*
X033438Y018053D01*
X033626Y018053D01*
X033626Y018352D01*
X033723Y018352D01*
X033723Y018448D01*
X034041Y018448D01*
X034041Y018617D01*
X034031Y018655D01*
X034011Y018689D01*
X033983Y018717D01*
X033949Y018737D01*
X033911Y018747D01*
X033723Y018747D01*
X033723Y018448D01*
X033626Y018448D01*
X033626Y018747D01*
X033438Y018747D01*
X033400Y018737D01*
X033366Y018717D01*
X033340Y018691D01*
X033284Y018747D01*
X033231Y018747D01*
X032152Y019826D01*
X032065Y019913D01*
X031951Y019960D01*
X031470Y019960D01*
X031470Y020042D01*
X031382Y020130D01*
X031300Y020130D01*
X031300Y020170D01*
X031382Y020170D01*
X031470Y020258D01*
X031470Y021042D01*
X031382Y021130D01*
X030597Y021130D01*
X030510Y021042D01*
X030510Y020258D01*
X030597Y020170D01*
X030680Y020170D01*
X030680Y020130D01*
X030515Y020047D02*
X030271Y020047D01*
X030370Y019949D02*
X030510Y019949D01*
X030510Y019850D02*
X030468Y019850D01*
X030470Y019752D02*
X030510Y019752D01*
X030510Y019653D02*
X030470Y019653D01*
X030470Y019555D02*
X030510Y019555D01*
X030510Y019456D02*
X030470Y019456D01*
X030510Y019358D02*
X030376Y019358D01*
X030277Y019259D02*
X030510Y019259D01*
X029825Y019161D02*
X031941Y019161D01*
X031842Y019259D02*
X031470Y019259D01*
X032039Y019062D02*
X029727Y019062D01*
X029628Y018964D02*
X032138Y018964D01*
X032236Y018865D02*
X029530Y018865D01*
X029431Y018767D02*
X032335Y018767D01*
X032433Y018668D02*
X029333Y018668D01*
X029234Y018570D02*
X032532Y018570D01*
X032630Y018471D02*
X029136Y018471D01*
X029037Y018373D02*
X032638Y018373D01*
X032638Y018274D02*
X028939Y018274D01*
X028840Y018176D02*
X032638Y018176D01*
X032695Y018077D02*
X028742Y018077D01*
X028584Y018570D02*
X026934Y018570D01*
X026746Y018570D02*
X024920Y018570D01*
X024920Y018668D02*
X028682Y018668D01*
X028781Y018767D02*
X024920Y018767D01*
X024920Y018865D02*
X028879Y018865D01*
X028978Y018964D02*
X024920Y018964D01*
X024920Y019062D02*
X029076Y019062D01*
X028702Y019259D02*
X028277Y019259D01*
X028376Y019358D02*
X028603Y019358D01*
X028510Y019456D02*
X028470Y019456D01*
X028470Y019555D02*
X028510Y019555D01*
X028510Y019653D02*
X028040Y019653D01*
X028040Y019752D02*
X027940Y019752D01*
X027940Y019850D02*
X028040Y019850D01*
X028040Y019949D02*
X027940Y019949D01*
X027940Y020047D02*
X028040Y020047D01*
X028040Y020170D02*
X028188Y020170D01*
X028470Y020451D01*
X028470Y020600D01*
X028040Y020600D01*
X028040Y020170D01*
X028040Y020244D02*
X027940Y020244D01*
X027940Y020343D02*
X028040Y020343D01*
X028040Y020441D02*
X027940Y020441D01*
X027940Y020540D02*
X028040Y020540D01*
X028040Y020638D02*
X028510Y020638D01*
X028510Y020540D02*
X028470Y020540D01*
X028459Y020441D02*
X028520Y020441D01*
X028618Y020343D02*
X028361Y020343D01*
X028262Y020244D02*
X028717Y020244D01*
X028708Y020047D02*
X028271Y020047D01*
X028370Y019949D02*
X028609Y019949D01*
X028511Y019850D02*
X028468Y019850D01*
X028470Y019752D02*
X028510Y019752D01*
X027609Y019949D02*
X027056Y019949D01*
X026993Y019850D02*
X027511Y019850D01*
X027618Y020343D02*
X027020Y020343D01*
X027020Y020441D02*
X027520Y020441D01*
X027510Y020540D02*
X027020Y020540D01*
X027082Y020638D02*
X027940Y020638D01*
X027510Y020737D02*
X027167Y020737D01*
X027251Y020835D02*
X027510Y020835D01*
X027594Y020934D02*
X027336Y020934D01*
X027420Y021032D02*
X027693Y021032D01*
X028286Y021032D02*
X028693Y021032D01*
X028594Y020934D02*
X028385Y020934D01*
X028470Y020835D02*
X028510Y020835D01*
X028510Y020737D02*
X028470Y020737D01*
X027236Y021525D02*
X025170Y021525D01*
X025144Y021426D02*
X027152Y021426D01*
X027067Y021328D02*
X025046Y021328D01*
X024740Y021328D02*
X024640Y021328D01*
X024640Y021426D02*
X024740Y021426D01*
X024740Y021229D02*
X024640Y021229D01*
X024432Y021229D02*
X023947Y021229D01*
X024046Y021328D02*
X024333Y021328D01*
X024235Y021426D02*
X024144Y021426D01*
X024170Y021525D02*
X024210Y021525D01*
X024210Y021722D02*
X024170Y021722D01*
X024170Y021820D02*
X024210Y021820D01*
X024279Y021919D02*
X024100Y021919D01*
X024001Y022017D02*
X024378Y022017D01*
X024476Y022116D02*
X023903Y022116D01*
X023740Y022116D02*
X023640Y022116D01*
X023640Y022017D02*
X023740Y022017D01*
X023740Y021919D02*
X023640Y021919D01*
X023640Y021820D02*
X023740Y021820D01*
X023740Y021722D02*
X023640Y021722D01*
X023640Y021426D02*
X023740Y021426D01*
X023740Y021328D02*
X023640Y021328D01*
X023640Y021229D02*
X023740Y021229D01*
X023986Y021032D02*
X024393Y021032D01*
X024294Y020934D02*
X024085Y020934D01*
X024170Y020835D02*
X024210Y020835D01*
X024210Y020737D02*
X024170Y020737D01*
X024170Y020638D02*
X024210Y020638D01*
X024210Y020540D02*
X024170Y020540D01*
X024159Y020441D02*
X024220Y020441D01*
X024318Y020343D02*
X024061Y020343D01*
X023962Y020244D02*
X024417Y020244D01*
X024408Y020047D02*
X023971Y020047D01*
X024070Y019949D02*
X024309Y019949D01*
X024211Y019850D02*
X024168Y019850D01*
X024170Y019752D02*
X024210Y019752D01*
X024210Y019653D02*
X024170Y019653D01*
X024170Y019555D02*
X024210Y019555D01*
X024210Y019456D02*
X024170Y019456D01*
X024076Y019358D02*
X024303Y019358D01*
X024402Y019259D02*
X023977Y019259D01*
X023920Y019161D02*
X024460Y019161D01*
X024460Y019062D02*
X023920Y019062D01*
X023920Y018964D02*
X024460Y018964D01*
X024460Y018865D02*
X023920Y018865D01*
X023920Y018767D02*
X024460Y018767D01*
X024460Y018668D02*
X023920Y018668D01*
X023920Y018570D02*
X024460Y018570D01*
X024460Y018471D02*
X023920Y018471D01*
X023920Y018373D02*
X024460Y018373D01*
X024460Y018274D02*
X023920Y018274D01*
X023920Y018176D02*
X024460Y018176D01*
X024460Y018077D02*
X023920Y018077D01*
X023920Y017979D02*
X024460Y017979D01*
X024460Y017880D02*
X023920Y017880D01*
X023920Y017782D02*
X024460Y017782D01*
X024460Y017683D02*
X023920Y017683D01*
X023920Y017585D02*
X024460Y017585D01*
X024460Y017486D02*
X023920Y017486D01*
X023920Y017388D02*
X024460Y017388D01*
X024403Y017289D02*
X023920Y017289D01*
X023920Y017191D02*
X024305Y017191D01*
X024206Y017092D02*
X023857Y017092D01*
X023758Y016994D02*
X024108Y016994D01*
X024009Y016895D02*
X023660Y016895D01*
X023561Y016797D02*
X023911Y016797D01*
X023812Y016698D02*
X023463Y016698D01*
X023364Y016600D02*
X023714Y016600D01*
X023615Y016501D02*
X023266Y016501D01*
X023167Y016403D02*
X023517Y016403D01*
X023460Y016304D02*
X023069Y016304D01*
X022970Y016206D02*
X023460Y016206D01*
X023460Y016107D02*
X022920Y016107D01*
X022978Y016009D02*
X023402Y016009D01*
X023303Y015910D02*
X023076Y015910D01*
X023118Y015812D02*
X023262Y015812D01*
X023232Y015713D02*
X023147Y015713D01*
X023147Y015615D02*
X023232Y015615D01*
X023250Y015516D02*
X023129Y015516D01*
X023088Y015418D02*
X023291Y015418D01*
X023374Y015319D02*
X023005Y015319D01*
X022847Y015221D02*
X023532Y015221D01*
X023847Y015221D02*
X024532Y015221D01*
X024599Y015193D02*
X024431Y015262D01*
X024302Y015391D01*
X024232Y015559D01*
X024232Y015741D01*
X024302Y015909D01*
X024431Y016038D01*
X024599Y016107D01*
X024781Y016107D01*
X025598Y016107D01*
X025599Y016107D02*
X025431Y016038D01*
X025302Y015909D01*
X025232Y015741D01*
X025232Y015559D01*
X025302Y015391D01*
X025431Y015262D01*
X025599Y015193D01*
X025781Y015193D01*
X025949Y015262D01*
X026077Y015391D01*
X026147Y015559D01*
X026147Y015741D01*
X026077Y015909D01*
X025949Y016038D01*
X025781Y016107D01*
X026598Y016107D01*
X026599Y016107D02*
X026431Y016038D01*
X026302Y015909D01*
X026232Y015741D01*
X026232Y015559D01*
X026302Y015391D01*
X026431Y015262D01*
X026599Y015193D01*
X026781Y015193D01*
X026949Y015262D01*
X027077Y015391D01*
X027147Y015559D01*
X027147Y015741D01*
X027077Y015909D01*
X026949Y016038D01*
X026781Y016107D01*
X027598Y016107D01*
X027599Y016107D02*
X027431Y016038D01*
X027302Y015909D01*
X027232Y015741D01*
X027232Y015559D01*
X027302Y015391D01*
X027431Y015262D01*
X027599Y015193D01*
X027781Y015193D01*
X027949Y015262D01*
X028077Y015391D01*
X028147Y015559D01*
X028147Y015741D01*
X028077Y015909D01*
X027949Y016038D01*
X027781Y016107D01*
X028460Y016107D01*
X028460Y016206D02*
X023970Y016206D01*
X023920Y016107D02*
X024598Y016107D01*
X024781Y016107D02*
X024949Y016038D01*
X025077Y015909D01*
X025147Y015741D01*
X025147Y015559D01*
X025077Y015391D01*
X024949Y015262D01*
X024781Y015193D01*
X024599Y015193D01*
X024847Y015221D02*
X025532Y015221D01*
X025374Y015319D02*
X025005Y015319D01*
X025088Y015418D02*
X025291Y015418D01*
X025250Y015516D02*
X025129Y015516D01*
X025147Y015615D02*
X025232Y015615D01*
X025232Y015713D02*
X025147Y015713D01*
X025118Y015812D02*
X025262Y015812D01*
X025303Y015910D02*
X025076Y015910D01*
X024978Y016009D02*
X025402Y016009D01*
X025599Y016107D02*
X025781Y016107D01*
X025978Y016009D02*
X026402Y016009D01*
X026303Y015910D02*
X026076Y015910D01*
X026118Y015812D02*
X026262Y015812D01*
X026232Y015713D02*
X026147Y015713D01*
X026147Y015615D02*
X026232Y015615D01*
X026250Y015516D02*
X026129Y015516D01*
X026088Y015418D02*
X026291Y015418D01*
X026374Y015319D02*
X026005Y015319D01*
X025847Y015221D02*
X026532Y015221D01*
X026847Y015221D02*
X027532Y015221D01*
X027374Y015319D02*
X027005Y015319D01*
X027088Y015418D02*
X027291Y015418D01*
X027250Y015516D02*
X027129Y015516D01*
X027147Y015615D02*
X027232Y015615D01*
X027232Y015713D02*
X027147Y015713D01*
X027118Y015812D02*
X027262Y015812D01*
X027303Y015910D02*
X027076Y015910D01*
X026978Y016009D02*
X027402Y016009D01*
X027599Y016107D02*
X027781Y016107D01*
X027978Y016009D02*
X028402Y016009D01*
X028303Y015910D02*
X028076Y015910D01*
X028118Y015812D02*
X028262Y015812D01*
X028232Y015713D02*
X028147Y015713D01*
X028147Y015615D02*
X028232Y015615D01*
X028250Y015516D02*
X028129Y015516D01*
X028088Y015418D02*
X028291Y015418D01*
X028374Y015319D02*
X028005Y015319D01*
X027847Y015221D02*
X028532Y015221D01*
X028847Y015221D02*
X029532Y015221D01*
X029374Y015319D02*
X029005Y015319D01*
X029088Y015418D02*
X029291Y015418D01*
X029250Y015516D02*
X029129Y015516D01*
X029147Y015615D02*
X029232Y015615D01*
X029232Y015713D02*
X029147Y015713D01*
X029118Y015812D02*
X029262Y015812D01*
X029303Y015910D02*
X029076Y015910D01*
X028978Y016009D02*
X029402Y016009D01*
X029460Y016107D02*
X028972Y016107D01*
X029070Y016206D02*
X029460Y016206D01*
X029518Y016304D02*
X029169Y016304D01*
X029267Y016403D02*
X029617Y016403D01*
X029715Y016501D02*
X029366Y016501D01*
X029464Y016600D02*
X029814Y016600D01*
X029306Y017092D02*
X024857Y017092D01*
X024920Y017191D02*
X032680Y017191D01*
X032680Y017289D02*
X024920Y017289D01*
X024920Y017388D02*
X032642Y017388D01*
X032638Y017486D02*
X024920Y017486D01*
X024920Y017585D02*
X032638Y017585D01*
X032638Y017683D02*
X024920Y017683D01*
X024920Y017782D02*
X032638Y017782D01*
X032638Y017880D02*
X024920Y017880D01*
X024920Y017979D02*
X032695Y017979D01*
X033315Y017979D02*
X033386Y017979D01*
X033376Y018077D02*
X033315Y018077D01*
X033626Y018077D02*
X033723Y018077D01*
X033723Y018053D02*
X033911Y018053D01*
X033949Y018063D01*
X033983Y018083D01*
X034011Y018111D01*
X034031Y018145D01*
X034041Y018183D01*
X034041Y018352D01*
X033723Y018352D01*
X033723Y018053D01*
X033723Y017979D02*
X033626Y017979D01*
X033626Y017880D02*
X033723Y017880D01*
X033723Y017782D02*
X033626Y017782D01*
X033723Y017683D02*
X035740Y017683D01*
X035740Y017585D02*
X034041Y017585D01*
X034041Y017602D02*
X033723Y017602D01*
X033723Y017303D01*
X033911Y017303D01*
X033949Y017313D01*
X033983Y017333D01*
X034011Y017361D01*
X034031Y017395D01*
X034041Y017433D01*
X034041Y017602D01*
X034041Y017486D02*
X035740Y017486D01*
X035740Y017388D02*
X034026Y017388D01*
X034040Y017130D02*
X034188Y017130D01*
X034470Y016849D01*
X034470Y016700D01*
X034040Y016700D01*
X034040Y016600D01*
X034470Y016600D01*
X034470Y016451D01*
X034188Y016170D01*
X034040Y016170D01*
X034040Y016600D01*
X033940Y016600D01*
X033940Y016170D01*
X033791Y016170D01*
X033510Y016451D01*
X033510Y016600D01*
X033940Y016600D01*
X033940Y016700D01*
X033940Y017130D01*
X033791Y017130D01*
X033510Y016849D01*
X033510Y016700D01*
X033940Y016700D01*
X034040Y016700D01*
X034040Y017130D01*
X034040Y017092D02*
X033940Y017092D01*
X033940Y016994D02*
X034040Y016994D01*
X034040Y016895D02*
X033940Y016895D01*
X033940Y016797D02*
X034040Y016797D01*
X034040Y016698D02*
X035740Y016698D01*
X035740Y016600D02*
X034470Y016600D01*
X034470Y016501D02*
X035740Y016501D01*
X035740Y016403D02*
X034421Y016403D01*
X034322Y016304D02*
X035740Y016304D01*
X035740Y016206D02*
X034224Y016206D01*
X034188Y016130D02*
X034040Y016130D01*
X034040Y015700D01*
X034470Y015700D01*
X034470Y015849D01*
X034188Y016130D01*
X034211Y016107D02*
X035740Y016107D01*
X035740Y016009D02*
X034310Y016009D01*
X034408Y015910D02*
X035740Y015910D01*
X035740Y015812D02*
X034470Y015812D01*
X034470Y015713D02*
X035740Y015713D01*
X035740Y015615D02*
X034040Y015615D01*
X034040Y015600D02*
X034040Y015700D01*
X033940Y015700D01*
X033940Y016130D01*
X033791Y016130D01*
X033510Y015849D01*
X033510Y015700D01*
X033940Y015700D01*
X033940Y015600D01*
X034040Y015600D01*
X034470Y015600D01*
X034470Y015451D01*
X034188Y015170D01*
X034040Y015170D01*
X034040Y015600D01*
X034040Y015516D02*
X033940Y015516D01*
X033940Y015600D02*
X033940Y015170D01*
X033791Y015170D01*
X033510Y015451D01*
X033510Y015600D01*
X033940Y015600D01*
X033940Y015615D02*
X033470Y015615D01*
X033470Y015713D02*
X033510Y015713D01*
X033510Y015812D02*
X033470Y015812D01*
X033470Y015849D02*
X033188Y016130D01*
X032791Y016130D01*
X032510Y015849D01*
X032510Y015451D01*
X032791Y015170D01*
X033188Y015170D01*
X033470Y015451D01*
X033470Y015849D01*
X033408Y015910D02*
X033571Y015910D01*
X033669Y016009D02*
X033310Y016009D01*
X033211Y016107D02*
X033768Y016107D01*
X033755Y016206D02*
X033224Y016206D01*
X033322Y016304D02*
X033657Y016304D01*
X033558Y016403D02*
X033421Y016403D01*
X033470Y016501D02*
X033510Y016501D01*
X033510Y016600D02*
X033470Y016600D01*
X033470Y016698D02*
X033940Y016698D01*
X033940Y016600D02*
X034040Y016600D01*
X034040Y016501D02*
X033940Y016501D01*
X033940Y016403D02*
X034040Y016403D01*
X034040Y016304D02*
X033940Y016304D01*
X033940Y016206D02*
X034040Y016206D01*
X034040Y016107D02*
X033940Y016107D01*
X033940Y016009D02*
X034040Y016009D01*
X034040Y015910D02*
X033940Y015910D01*
X033940Y015812D02*
X034040Y015812D01*
X034040Y015713D02*
X033940Y015713D01*
X033940Y015418D02*
X034040Y015418D01*
X034040Y015319D02*
X033940Y015319D01*
X033940Y015221D02*
X034040Y015221D01*
X034040Y015122D02*
X033940Y015122D01*
X033940Y015024D02*
X034040Y015024D01*
X034040Y014925D02*
X033940Y014925D01*
X033940Y014827D02*
X034040Y014827D01*
X034040Y014531D02*
X033940Y014531D01*
X033940Y014433D02*
X034040Y014433D01*
X034040Y014334D02*
X033940Y014334D01*
X033940Y014236D02*
X034040Y014236D01*
X034040Y014039D02*
X033940Y014039D01*
X033510Y013546D02*
X033470Y013546D01*
X033466Y013448D02*
X033513Y013448D01*
X033612Y013349D02*
X033367Y013349D01*
X033269Y013251D02*
X033710Y013251D01*
X033714Y013054D02*
X033265Y013054D01*
X033188Y013130D02*
X033470Y012849D01*
X033470Y012451D01*
X033188Y012170D01*
X032791Y012170D01*
X032510Y012451D01*
X032510Y012849D01*
X032791Y013130D01*
X033188Y013130D01*
X033363Y012955D02*
X033616Y012955D01*
X033517Y012857D02*
X033462Y012857D01*
X033470Y012758D02*
X033510Y012758D01*
X033470Y012660D02*
X033940Y012660D01*
X033940Y012561D02*
X034040Y012561D01*
X034040Y012463D02*
X033940Y012463D01*
X033940Y012364D02*
X034040Y012364D01*
X034040Y012266D02*
X033940Y012266D01*
X033940Y012130D02*
X033791Y012130D01*
X033510Y011849D01*
X033510Y011700D01*
X033940Y011700D01*
X033940Y012130D01*
X033940Y012069D02*
X034040Y012069D01*
X034040Y012130D02*
X034188Y012130D01*
X034470Y011849D01*
X034470Y011700D01*
X034040Y011700D01*
X034040Y011600D01*
X034470Y011600D01*
X034470Y011451D01*
X034188Y011170D01*
X034040Y011170D01*
X034040Y011600D01*
X033940Y011600D01*
X033940Y011170D01*
X033791Y011170D01*
X033510Y011451D01*
X033510Y011600D01*
X033940Y011600D01*
X033940Y011700D01*
X034040Y011700D01*
X034040Y012130D01*
X034040Y011970D02*
X033940Y011970D01*
X033940Y011872D02*
X034040Y011872D01*
X034040Y011773D02*
X033940Y011773D01*
X033940Y011675D02*
X033470Y011675D01*
X033470Y011773D02*
X033510Y011773D01*
X033470Y011849D02*
X033470Y011451D01*
X033188Y011170D01*
X032791Y011170D01*
X032510Y011451D01*
X032510Y011849D01*
X032791Y012130D01*
X033188Y012130D01*
X033470Y011849D01*
X033447Y011872D02*
X033532Y011872D01*
X033631Y011970D02*
X033348Y011970D01*
X033250Y012069D02*
X033729Y012069D01*
X033695Y012266D02*
X033284Y012266D01*
X033382Y012364D02*
X033597Y012364D01*
X033510Y012463D02*
X033470Y012463D01*
X033470Y012561D02*
X033510Y012561D01*
X034284Y012266D02*
X035740Y012266D01*
X035740Y012364D02*
X034382Y012364D01*
X034470Y012463D02*
X035740Y012463D01*
X035740Y012561D02*
X034470Y012561D01*
X034250Y012069D02*
X035740Y012069D01*
X035740Y012167D02*
X020532Y012167D01*
X020586Y011872D02*
X020236Y011872D01*
X020138Y011773D02*
X020487Y011773D01*
X020389Y011675D02*
X020039Y011675D01*
X019941Y011576D02*
X020290Y011576D01*
X020192Y011478D02*
X019842Y011478D01*
X019744Y011379D02*
X020093Y011379D01*
X019995Y011281D02*
X019645Y011281D01*
X019547Y011182D02*
X019896Y011182D01*
X019798Y011084D02*
X019448Y011084D01*
X019350Y010985D02*
X019699Y010985D01*
X019601Y010887D02*
X019251Y010887D01*
X019153Y010788D02*
X019502Y010788D01*
X019404Y010690D02*
X019054Y010690D01*
X018956Y010591D02*
X019305Y010591D01*
X019207Y010493D02*
X018857Y010493D01*
X018759Y010394D02*
X019108Y010394D01*
X019010Y010296D02*
X018660Y010296D01*
X018562Y010197D02*
X018911Y010197D01*
X018813Y010099D02*
X018463Y010099D01*
X018365Y010000D02*
X018714Y010000D01*
X018616Y009902D02*
X018266Y009902D01*
X018168Y009803D02*
X018517Y009803D01*
X018419Y009705D02*
X018069Y009705D01*
X017971Y009606D02*
X018320Y009606D01*
X018222Y009508D02*
X017872Y009508D01*
X017774Y009409D02*
X018123Y009409D01*
X018025Y009311D02*
X017675Y009311D01*
X017577Y009212D02*
X017926Y009212D01*
X017828Y009114D02*
X017478Y009114D01*
X017380Y009015D02*
X017729Y009015D01*
X017631Y008917D02*
X017281Y008917D01*
X017183Y008818D02*
X017532Y008818D01*
X017434Y008720D02*
X017084Y008720D01*
X016986Y008621D02*
X017335Y008621D01*
X017237Y008523D02*
X016887Y008523D01*
X016789Y008424D02*
X017138Y008424D01*
X017040Y008326D02*
X016690Y008326D01*
X016592Y008227D02*
X016941Y008227D01*
X016843Y008129D02*
X016493Y008129D01*
X016395Y008030D02*
X016744Y008030D01*
X016646Y007932D02*
X016296Y007932D01*
X016198Y007833D02*
X016547Y007833D01*
X016449Y007735D02*
X016099Y007735D01*
X016001Y007636D02*
X016350Y007636D01*
X016252Y007538D02*
X015902Y007538D01*
X015804Y007439D02*
X016153Y007439D01*
X016055Y007341D02*
X015705Y007341D01*
X015607Y007242D02*
X015956Y007242D01*
X015858Y007144D02*
X015508Y007144D01*
X015449Y007045D02*
X015410Y007045D01*
X015340Y006947D02*
X015311Y006947D01*
X015277Y006848D02*
X015213Y006848D01*
X015236Y006750D02*
X015143Y006750D01*
X015147Y006651D02*
X015232Y006651D01*
X015235Y006553D02*
X015144Y006553D01*
X015103Y006454D02*
X015276Y006454D01*
X015338Y006356D02*
X015042Y006356D01*
X014935Y006257D02*
X015444Y006257D01*
X015827Y005863D02*
X008802Y005863D01*
X008900Y005765D02*
X014329Y005765D01*
X014260Y005695D02*
X014260Y005695D01*
X014230Y005666D02*
X008920Y005666D01*
X008920Y005745D02*
X008135Y006530D01*
X008147Y006559D01*
X008147Y006741D01*
X008077Y006909D01*
X007949Y007038D01*
X007781Y007107D01*
X007599Y007107D01*
X007431Y007038D01*
X007302Y006909D01*
X007232Y006741D01*
X007232Y006559D01*
X007302Y006391D01*
X007431Y006262D01*
X007599Y006193D01*
X007781Y006193D01*
X007810Y006205D01*
X008460Y005555D01*
X008460Y003130D01*
X008297Y003130D01*
X008210Y003042D01*
X008210Y002258D01*
X008297Y002170D01*
X009082Y002170D01*
X009170Y002258D01*
X009170Y003042D01*
X009082Y003130D01*
X008920Y003130D01*
X008920Y005745D01*
X008920Y005568D02*
X014132Y005568D01*
X014033Y005469D02*
X008920Y005469D01*
X008920Y005371D02*
X013935Y005371D01*
X013836Y005272D02*
X008920Y005272D01*
X008920Y005174D02*
X013738Y005174D01*
X013639Y005075D02*
X008920Y005075D01*
X008920Y004977D02*
X013541Y004977D01*
X013460Y004878D02*
X008920Y004878D01*
X008920Y004780D02*
X011365Y004780D01*
X011373Y004793D02*
X011353Y004759D01*
X011343Y004721D01*
X011343Y004533D01*
X011641Y004533D01*
X011641Y004436D01*
X011343Y004436D01*
X011343Y004248D01*
X011353Y004210D01*
X011373Y004176D01*
X011399Y004150D01*
X011343Y004094D01*
X011343Y003537D01*
X011380Y003500D01*
X011380Y003130D01*
X011297Y003130D01*
X011210Y003042D01*
X011210Y002258D01*
X011297Y002170D01*
X012082Y002170D01*
X012170Y002258D01*
X012170Y003042D01*
X012082Y003130D01*
X012000Y003130D01*
X012000Y003500D01*
X012036Y003537D01*
X012036Y004094D01*
X011980Y004150D01*
X012006Y004176D01*
X012026Y004210D01*
X012036Y004248D01*
X012036Y004436D01*
X011738Y004436D01*
X011738Y004533D01*
X012036Y004533D01*
X012036Y004721D01*
X012026Y004759D01*
X012006Y004793D01*
X011979Y004821D01*
X011944Y004841D01*
X011906Y004851D01*
X011738Y004851D01*
X011738Y004533D01*
X011641Y004533D01*
X011641Y004851D01*
X011473Y004851D01*
X011435Y004841D01*
X011401Y004821D01*
X011373Y004793D01*
X011343Y004681D02*
X008920Y004681D01*
X008920Y004583D02*
X011343Y004583D01*
X011343Y004386D02*
X008920Y004386D01*
X008920Y004484D02*
X011641Y004484D01*
X011738Y004484D02*
X012641Y004484D01*
X012641Y004533D02*
X012343Y004533D01*
X012343Y004721D01*
X012353Y004759D01*
X012373Y004793D01*
X012401Y004821D01*
X012435Y004841D01*
X012473Y004851D01*
X012641Y004851D01*
X012641Y004533D01*
X012641Y004583D02*
X012738Y004583D01*
X012738Y004681D02*
X012641Y004681D01*
X012641Y004780D02*
X012738Y004780D01*
X013014Y004780D02*
X013359Y004780D01*
X013323Y004681D02*
X013036Y004681D01*
X013036Y004583D02*
X013323Y004583D01*
X013323Y004484D02*
X012738Y004484D01*
X013036Y004386D02*
X013323Y004386D01*
X013323Y004287D02*
X013036Y004287D01*
X013014Y004189D02*
X013360Y004189D01*
X013339Y004090D02*
X013036Y004090D01*
X013036Y003992D02*
X013323Y003992D01*
X013323Y003893D02*
X013036Y003893D01*
X013036Y003795D02*
X013323Y003795D01*
X013323Y003696D02*
X013036Y003696D01*
X013036Y003598D02*
X013323Y003598D01*
X013380Y003499D02*
X013000Y003499D01*
X013000Y003401D02*
X013460Y003401D01*
X013460Y003302D02*
X013000Y003302D01*
X013000Y003204D02*
X013460Y003204D01*
X013460Y003105D02*
X013000Y003105D01*
X013012Y003007D02*
X013367Y003007D01*
X013269Y002908D02*
X013110Y002908D01*
X013170Y002810D02*
X013210Y002810D01*
X013210Y002711D02*
X013170Y002711D01*
X013170Y002613D02*
X013210Y002613D01*
X013210Y002514D02*
X013170Y002514D01*
X013558Y002120D02*
X017721Y002120D01*
X017623Y002022D02*
X013657Y002022D01*
X013937Y002219D02*
X014442Y002219D01*
X014491Y002170D02*
X014888Y002170D01*
X015170Y002451D01*
X015170Y002849D01*
X014920Y003099D01*
X014920Y003469D01*
X014968Y003469D01*
X015056Y003556D01*
X015056Y004074D01*
X014980Y004150D01*
X015056Y004226D01*
X015056Y004744D01*
X015032Y004767D01*
X015085Y004820D01*
X016585Y004820D01*
X016720Y004955D01*
X017920Y006155D01*
X017920Y006250D01*
X017949Y006262D01*
X018077Y006391D01*
X018147Y006559D01*
X018147Y006741D01*
X018077Y006909D01*
X017949Y007038D01*
X017781Y007107D01*
X017599Y007107D01*
X017431Y007038D01*
X017302Y006909D01*
X017232Y006741D01*
X017232Y006559D01*
X017302Y006391D01*
X017404Y006289D01*
X016394Y005280D01*
X014894Y005280D01*
X014594Y004980D01*
X014460Y004845D01*
X014460Y004831D01*
X014411Y004831D01*
X014323Y004744D01*
X014323Y004226D01*
X014399Y004150D01*
X014323Y004074D01*
X014323Y003556D01*
X014411Y003469D01*
X014460Y003469D01*
X014460Y003099D01*
X014210Y002849D01*
X014210Y002451D01*
X014491Y002170D01*
X014344Y002317D02*
X014035Y002317D01*
X014134Y002416D02*
X014245Y002416D01*
X014210Y002514D02*
X014170Y002514D01*
X014170Y002613D02*
X014210Y002613D01*
X014210Y002711D02*
X014170Y002711D01*
X014170Y002810D02*
X014210Y002810D01*
X014269Y002908D02*
X014110Y002908D01*
X014012Y003007D02*
X014367Y003007D01*
X014460Y003105D02*
X013920Y003105D01*
X013920Y003204D02*
X014460Y003204D01*
X014460Y003302D02*
X013920Y003302D01*
X013920Y003401D02*
X014460Y003401D01*
X014380Y003499D02*
X013999Y003499D01*
X014056Y003598D02*
X014323Y003598D01*
X014323Y003696D02*
X014056Y003696D01*
X014056Y003795D02*
X014323Y003795D01*
X014323Y003893D02*
X014056Y003893D01*
X014056Y003992D02*
X014323Y003992D01*
X014339Y004090D02*
X014040Y004090D01*
X014019Y004189D02*
X014360Y004189D01*
X014323Y004287D02*
X014056Y004287D01*
X014056Y004386D02*
X014323Y004386D01*
X014323Y004484D02*
X014056Y004484D01*
X014056Y004583D02*
X014323Y004583D01*
X014323Y004681D02*
X014056Y004681D01*
X014020Y004780D02*
X014359Y004780D01*
X014492Y004878D02*
X014093Y004878D01*
X014191Y004977D02*
X014591Y004977D01*
X014689Y005075D02*
X014290Y005075D01*
X014388Y005174D02*
X014788Y005174D01*
X014886Y005272D02*
X014487Y005272D01*
X015044Y004780D02*
X017365Y004780D01*
X017373Y004793D02*
X017353Y004759D01*
X017343Y004721D01*
X017343Y004533D01*
X017641Y004533D01*
X017641Y004851D01*
X017473Y004851D01*
X017435Y004841D01*
X017401Y004821D01*
X017373Y004793D01*
X017343Y004681D02*
X015056Y004681D01*
X015056Y004583D02*
X017343Y004583D01*
X017343Y004386D02*
X015056Y004386D01*
X015056Y004484D02*
X017641Y004484D01*
X017738Y004484D02*
X018641Y004484D01*
X018641Y004533D02*
X018343Y004533D01*
X018343Y004721D01*
X018353Y004759D01*
X018373Y004793D01*
X018401Y004821D01*
X018435Y004841D01*
X018473Y004851D01*
X018641Y004851D01*
X018641Y004533D01*
X018641Y004583D02*
X018738Y004583D01*
X018738Y004681D02*
X018641Y004681D01*
X018641Y004780D02*
X018738Y004780D01*
X019014Y004780D02*
X019359Y004780D01*
X019323Y004681D02*
X019036Y004681D01*
X019036Y004583D02*
X019323Y004583D01*
X019323Y004484D02*
X018738Y004484D01*
X019036Y004386D02*
X019323Y004386D01*
X019323Y004287D02*
X019036Y004287D01*
X019014Y004189D02*
X019360Y004189D01*
X019339Y004090D02*
X019036Y004090D01*
X019036Y003992D02*
X019323Y003992D01*
X019323Y003893D02*
X019036Y003893D01*
X019036Y003795D02*
X019323Y003795D01*
X019323Y003696D02*
X019036Y003696D01*
X019036Y003598D02*
X019323Y003598D01*
X019380Y003499D02*
X019000Y003499D01*
X019000Y003401D02*
X019460Y003401D01*
X019460Y003302D02*
X019000Y003302D01*
X019000Y003204D02*
X019460Y003204D01*
X019460Y003105D02*
X019000Y003105D01*
X019012Y003007D02*
X019367Y003007D01*
X019269Y002908D02*
X019110Y002908D01*
X019170Y002810D02*
X019210Y002810D01*
X019210Y002711D02*
X019170Y002711D01*
X019170Y002613D02*
X019210Y002613D01*
X019210Y002514D02*
X019170Y002514D01*
X019558Y002120D02*
X023721Y002120D01*
X023623Y002022D02*
X019657Y002022D01*
X019937Y002219D02*
X020442Y002219D01*
X020491Y002170D02*
X020888Y002170D01*
X021170Y002451D01*
X021170Y002849D01*
X020920Y003099D01*
X020920Y003469D01*
X020968Y003469D01*
X021056Y003556D01*
X021056Y004074D01*
X020980Y004150D01*
X021056Y004226D01*
X021056Y004744D01*
X020968Y004831D01*
X020920Y004831D01*
X020920Y005055D01*
X021785Y005920D01*
X021920Y006055D01*
X021920Y006250D01*
X021949Y006262D01*
X022077Y006391D01*
X022147Y006559D01*
X022147Y006741D01*
X022077Y006909D01*
X021949Y007038D01*
X021781Y007107D01*
X021599Y007107D01*
X021431Y007038D01*
X021302Y006909D01*
X021232Y006741D01*
X021232Y006559D01*
X021302Y006391D01*
X021431Y006262D01*
X021460Y006250D01*
X021460Y006245D01*
X020460Y005245D01*
X020460Y004831D01*
X020411Y004831D01*
X020323Y004744D01*
X020323Y004226D01*
X020399Y004150D01*
X020323Y004074D01*
X020323Y003556D01*
X020411Y003469D01*
X020460Y003469D01*
X020460Y003099D01*
X020210Y002849D01*
X020210Y002451D01*
X020491Y002170D01*
X020344Y002317D02*
X020035Y002317D01*
X020134Y002416D02*
X020245Y002416D01*
X020210Y002514D02*
X020170Y002514D01*
X020170Y002613D02*
X020210Y002613D01*
X020210Y002711D02*
X020170Y002711D01*
X020170Y002810D02*
X020210Y002810D01*
X020269Y002908D02*
X020110Y002908D01*
X020012Y003007D02*
X020367Y003007D01*
X020460Y003105D02*
X019920Y003105D01*
X019920Y003204D02*
X020460Y003204D01*
X020460Y003302D02*
X019920Y003302D01*
X019920Y003401D02*
X020460Y003401D01*
X020380Y003499D02*
X019999Y003499D01*
X020056Y003598D02*
X020323Y003598D01*
X020323Y003696D02*
X020056Y003696D01*
X020056Y003795D02*
X020323Y003795D01*
X020323Y003893D02*
X020056Y003893D01*
X020056Y003992D02*
X020323Y003992D01*
X020339Y004090D02*
X020040Y004090D01*
X020019Y004189D02*
X020360Y004189D01*
X020323Y004287D02*
X020056Y004287D01*
X020056Y004386D02*
X020323Y004386D01*
X020323Y004484D02*
X020056Y004484D01*
X020056Y004583D02*
X020323Y004583D01*
X020323Y004681D02*
X020056Y004681D01*
X020020Y004780D02*
X020359Y004780D01*
X020460Y004878D02*
X019920Y004878D01*
X019920Y004977D02*
X020460Y004977D01*
X020460Y005075D02*
X019940Y005075D01*
X020038Y005174D02*
X020460Y005174D01*
X020486Y005272D02*
X020137Y005272D01*
X020235Y005371D02*
X020585Y005371D01*
X020683Y005469D02*
X020334Y005469D01*
X020432Y005568D02*
X020782Y005568D01*
X020880Y005666D02*
X020531Y005666D01*
X020629Y005765D02*
X020979Y005765D01*
X021077Y005863D02*
X020728Y005863D01*
X020826Y005962D02*
X021176Y005962D01*
X021274Y006060D02*
X020920Y006060D01*
X020920Y006159D02*
X021373Y006159D01*
X021444Y006257D02*
X020935Y006257D01*
X021042Y006356D02*
X021338Y006356D01*
X021276Y006454D02*
X021103Y006454D01*
X021144Y006553D02*
X021235Y006553D01*
X021232Y006651D02*
X021147Y006651D01*
X021143Y006750D02*
X021236Y006750D01*
X021277Y006848D02*
X021102Y006848D01*
X021040Y006947D02*
X021340Y006947D01*
X021449Y007045D02*
X020931Y007045D01*
X020449Y007045D02*
X019931Y007045D01*
X019949Y007038D02*
X019781Y007107D01*
X019599Y007107D01*
X019431Y007038D01*
X019302Y006909D01*
X019232Y006741D01*
X019232Y006559D01*
X019302Y006391D01*
X019431Y006262D01*
X019599Y006193D01*
X019781Y006193D01*
X019949Y006262D01*
X020077Y006391D01*
X020147Y006559D01*
X020147Y006741D01*
X020077Y006909D01*
X019949Y007038D01*
X020040Y006947D02*
X020340Y006947D01*
X020277Y006848D02*
X020102Y006848D01*
X020143Y006750D02*
X020236Y006750D01*
X020232Y006651D02*
X020147Y006651D01*
X020144Y006553D02*
X020235Y006553D01*
X020276Y006454D02*
X020103Y006454D01*
X020042Y006356D02*
X020338Y006356D01*
X020444Y006257D02*
X019935Y006257D01*
X020176Y005962D02*
X017726Y005962D01*
X017825Y006060D02*
X020274Y006060D01*
X020373Y006159D02*
X017920Y006159D01*
X017935Y006257D02*
X018444Y006257D01*
X018431Y006262D02*
X018599Y006193D01*
X018781Y006193D01*
X018949Y006262D01*
X019077Y006391D01*
X019147Y006559D01*
X019147Y006741D01*
X019077Y006909D01*
X018949Y007038D01*
X018781Y007107D01*
X018599Y007107D01*
X018431Y007038D01*
X018302Y006909D01*
X018232Y006741D01*
X018232Y006559D01*
X018302Y006391D01*
X018431Y006262D01*
X018338Y006356D02*
X018042Y006356D01*
X018103Y006454D02*
X018276Y006454D01*
X018235Y006553D02*
X018144Y006553D01*
X018147Y006651D02*
X018232Y006651D01*
X018236Y006750D02*
X018143Y006750D01*
X018102Y006848D02*
X018277Y006848D01*
X018340Y006947D02*
X018040Y006947D01*
X017931Y007045D02*
X018449Y007045D01*
X018931Y007045D02*
X019449Y007045D01*
X019340Y006947D02*
X019040Y006947D01*
X019102Y006848D02*
X019277Y006848D01*
X019236Y006750D02*
X019143Y006750D01*
X019147Y006651D02*
X019232Y006651D01*
X019235Y006553D02*
X019144Y006553D01*
X019103Y006454D02*
X019276Y006454D01*
X019338Y006356D02*
X019042Y006356D01*
X018935Y006257D02*
X019444Y006257D01*
X019979Y005765D02*
X017529Y005765D01*
X017628Y005863D02*
X020077Y005863D01*
X019880Y005666D02*
X017431Y005666D01*
X017332Y005568D02*
X019782Y005568D01*
X019683Y005469D02*
X017234Y005469D01*
X017135Y005371D02*
X019585Y005371D01*
X019486Y005272D02*
X017037Y005272D01*
X016938Y005174D02*
X019460Y005174D01*
X019460Y005075D02*
X016840Y005075D01*
X016741Y004977D02*
X019460Y004977D01*
X019460Y004878D02*
X016643Y004878D01*
X016485Y005371D02*
X015985Y005371D01*
X016084Y005469D02*
X016583Y005469D01*
X016682Y005568D02*
X016182Y005568D01*
X016281Y005666D02*
X016780Y005666D01*
X016879Y005765D02*
X016379Y005765D01*
X016478Y005863D02*
X016977Y005863D01*
X017076Y005962D02*
X016576Y005962D01*
X016675Y006060D02*
X017174Y006060D01*
X017273Y006159D02*
X016773Y006159D01*
X016935Y006257D02*
X017371Y006257D01*
X017338Y006356D02*
X017042Y006356D01*
X017103Y006454D02*
X017276Y006454D01*
X017235Y006553D02*
X017144Y006553D01*
X017147Y006651D02*
X017232Y006651D01*
X017236Y006750D02*
X017143Y006750D01*
X017102Y006848D02*
X017277Y006848D01*
X017340Y006947D02*
X017040Y006947D01*
X016931Y007045D02*
X017449Y007045D01*
X016902Y007538D02*
X026460Y007538D01*
X026460Y007636D02*
X017001Y007636D01*
X017099Y007735D02*
X026460Y007735D01*
X026460Y007833D02*
X017198Y007833D01*
X017296Y007932D02*
X026460Y007932D01*
X026460Y008030D02*
X017395Y008030D01*
X017493Y008129D02*
X026460Y008129D01*
X026460Y008227D02*
X017592Y008227D01*
X017690Y008326D02*
X026460Y008326D01*
X026460Y008424D02*
X017789Y008424D01*
X017887Y008523D02*
X026460Y008523D01*
X026460Y008621D02*
X017986Y008621D01*
X018084Y008720D02*
X026460Y008720D01*
X026460Y008818D02*
X018183Y008818D01*
X018281Y008917D02*
X026460Y008917D01*
X026460Y009015D02*
X018380Y009015D01*
X018478Y009114D02*
X026460Y009114D01*
X026460Y009212D02*
X018577Y009212D01*
X018675Y009311D02*
X026460Y009311D01*
X026460Y009409D02*
X018774Y009409D01*
X018872Y009508D02*
X026460Y009508D01*
X026460Y009606D02*
X018971Y009606D01*
X019069Y009705D02*
X026460Y009705D01*
X026517Y009803D02*
X019168Y009803D01*
X019266Y009902D02*
X026616Y009902D01*
X026714Y010000D02*
X019365Y010000D01*
X019463Y010099D02*
X026813Y010099D01*
X026911Y010197D02*
X019562Y010197D01*
X019660Y010296D02*
X027010Y010296D01*
X027108Y010394D02*
X019759Y010394D01*
X019857Y010493D02*
X027207Y010493D01*
X027305Y010591D02*
X019956Y010591D01*
X020054Y010690D02*
X027404Y010690D01*
X027502Y010788D02*
X020153Y010788D01*
X020567Y013448D02*
X012467Y013448D01*
X012420Y013546D02*
X020468Y013546D01*
X020582Y014433D02*
X020232Y014433D01*
X020134Y014531D02*
X020483Y014531D01*
X020385Y014630D02*
X020035Y014630D01*
X019937Y014728D02*
X020286Y014728D01*
X020188Y014827D02*
X019838Y014827D01*
X019740Y014925D02*
X020089Y014925D01*
X019991Y015024D02*
X019641Y015024D01*
X019543Y015122D02*
X019892Y015122D01*
X019532Y015221D02*
X019444Y015221D01*
X019374Y015319D02*
X019346Y015319D01*
X019291Y015418D02*
X019247Y015418D01*
X019250Y015516D02*
X019149Y015516D01*
X019147Y015615D02*
X019232Y015615D01*
X019232Y015713D02*
X019147Y015713D01*
X019118Y015812D02*
X019262Y015812D01*
X019303Y015910D02*
X019076Y015910D01*
X018978Y016009D02*
X019402Y016009D01*
X019599Y016107D02*
X019781Y016107D01*
X018781Y016107D02*
X018599Y016107D01*
X017374Y015319D02*
X017005Y015319D01*
X017088Y015418D02*
X017291Y015418D01*
X017250Y015516D02*
X017129Y015516D01*
X017147Y015615D02*
X017232Y015615D01*
X017232Y015713D02*
X017147Y015713D01*
X017118Y015812D02*
X017262Y015812D01*
X017303Y015910D02*
X017076Y015910D01*
X016847Y015221D02*
X017532Y015221D01*
X016209Y016206D02*
X012420Y016206D01*
X012420Y016107D02*
X012598Y016107D01*
X012361Y016304D02*
X016110Y016304D01*
X016012Y016403D02*
X012262Y016403D01*
X012170Y016501D02*
X015913Y016501D01*
X015815Y016600D02*
X012170Y016600D01*
X012170Y016698D02*
X015716Y016698D01*
X015618Y016797D02*
X012170Y016797D01*
X012170Y016895D02*
X015519Y016895D01*
X015421Y016994D02*
X012170Y016994D01*
X012170Y017092D02*
X015322Y017092D01*
X015224Y017191D02*
X012170Y017191D01*
X012170Y017289D02*
X015125Y017289D01*
X015027Y017388D02*
X012170Y017388D01*
X012170Y017486D02*
X014928Y017486D01*
X014830Y017585D02*
X012170Y017585D01*
X012170Y017683D02*
X014731Y017683D01*
X014633Y017782D02*
X012170Y017782D01*
X012170Y017880D02*
X012399Y017880D01*
X012401Y017879D02*
X012435Y017859D01*
X012473Y017849D01*
X012641Y017849D01*
X012641Y018167D01*
X012343Y018167D01*
X012343Y017979D01*
X012353Y017941D01*
X012373Y017907D01*
X012401Y017879D01*
X012343Y017979D02*
X012170Y017979D01*
X012170Y018077D02*
X012343Y018077D01*
X012343Y018264D02*
X012641Y018264D01*
X012641Y018167D01*
X012738Y018167D01*
X012738Y018264D01*
X013036Y018264D01*
X013036Y018452D01*
X013026Y018490D01*
X013006Y018524D01*
X012980Y018550D01*
X013036Y018606D01*
X013036Y019163D01*
X013030Y019170D01*
X013082Y019170D01*
X013170Y019258D01*
X013170Y020042D01*
X013082Y020130D01*
X012297Y020130D01*
X012210Y020042D01*
X012210Y019258D01*
X012297Y019170D01*
X012349Y019170D01*
X012343Y019163D01*
X012343Y018606D01*
X012399Y018550D01*
X012373Y018524D01*
X012353Y018490D01*
X012343Y018452D01*
X012343Y018264D01*
X012343Y018274D02*
X012170Y018274D01*
X012170Y018176D02*
X012641Y018176D01*
X012738Y018176D02*
X013641Y018176D01*
X013641Y018167D02*
X013343Y018167D01*
X013343Y017979D01*
X013353Y017941D01*
X013373Y017907D01*
X013401Y017879D01*
X013435Y017859D01*
X013473Y017849D01*
X013641Y017849D01*
X013641Y018167D01*
X013641Y018264D01*
X013343Y018264D01*
X013343Y018452D01*
X013353Y018490D01*
X013373Y018524D01*
X013399Y018550D01*
X013343Y018606D01*
X013343Y019163D01*
X013380Y019200D01*
X013380Y019281D01*
X013210Y019451D01*
X013210Y019849D01*
X013491Y020130D01*
X013888Y020130D01*
X014170Y019849D01*
X014170Y019451D01*
X014000Y019281D01*
X014000Y019200D01*
X014036Y019163D01*
X014036Y018606D01*
X013980Y018550D01*
X014006Y018524D01*
X014026Y018490D01*
X014036Y018452D01*
X014036Y018264D01*
X013738Y018264D01*
X013738Y018167D01*
X014036Y018167D01*
X014036Y017979D01*
X014026Y017941D01*
X014006Y017907D01*
X013979Y017879D01*
X013944Y017859D01*
X013906Y017849D01*
X013738Y017849D01*
X013738Y018167D01*
X013641Y018167D01*
X013641Y018077D02*
X013738Y018077D01*
X013738Y017979D02*
X013641Y017979D01*
X013641Y017880D02*
X013738Y017880D01*
X013980Y017880D02*
X014399Y017880D01*
X014323Y017979D02*
X014036Y017979D01*
X014036Y018077D02*
X014323Y018077D01*
X014323Y018176D02*
X013738Y018176D01*
X014036Y018274D02*
X014323Y018274D01*
X014323Y018373D02*
X014036Y018373D01*
X014031Y018471D02*
X014323Y018471D01*
X014379Y018570D02*
X014000Y018570D01*
X014036Y018668D02*
X014323Y018668D01*
X014323Y018767D02*
X014036Y018767D01*
X014036Y018865D02*
X014323Y018865D01*
X014323Y018964D02*
X014036Y018964D01*
X014036Y019062D02*
X014323Y019062D01*
X014340Y019161D02*
X014036Y019161D01*
X014000Y019259D02*
X014402Y019259D01*
X014303Y019358D02*
X014076Y019358D01*
X014170Y019456D02*
X014210Y019456D01*
X014210Y019555D02*
X014170Y019555D01*
X014170Y019653D02*
X014210Y019653D01*
X014210Y019752D02*
X014170Y019752D01*
X014168Y019850D02*
X014211Y019850D01*
X014309Y019949D02*
X014070Y019949D01*
X013971Y020047D02*
X014408Y020047D01*
X013408Y020047D02*
X013165Y020047D01*
X013170Y019949D02*
X013309Y019949D01*
X013211Y019850D02*
X013170Y019850D01*
X013170Y019752D02*
X013210Y019752D01*
X013210Y019653D02*
X013170Y019653D01*
X013170Y019555D02*
X013210Y019555D01*
X013210Y019456D02*
X013170Y019456D01*
X013170Y019358D02*
X013303Y019358D01*
X013380Y019259D02*
X013170Y019259D01*
X013036Y019161D02*
X013343Y019161D01*
X013343Y019062D02*
X013036Y019062D01*
X013036Y018964D02*
X013343Y018964D01*
X013343Y018865D02*
X013036Y018865D01*
X013036Y018767D02*
X013343Y018767D01*
X013343Y018668D02*
X013036Y018668D01*
X013000Y018570D02*
X013379Y018570D01*
X013348Y018471D02*
X013031Y018471D01*
X013036Y018373D02*
X013343Y018373D01*
X013343Y018274D02*
X013036Y018274D01*
X013036Y018167D02*
X013036Y017979D01*
X013026Y017941D01*
X013006Y017907D01*
X012979Y017879D01*
X012944Y017859D01*
X012906Y017849D01*
X012738Y017849D01*
X012738Y018167D01*
X013036Y018167D01*
X013036Y018077D02*
X013343Y018077D01*
X013343Y017979D02*
X013036Y017979D01*
X012980Y017880D02*
X013399Y017880D01*
X012738Y017880D02*
X012641Y017880D01*
X012641Y017979D02*
X012738Y017979D01*
X012738Y018077D02*
X012641Y018077D01*
X012343Y018373D02*
X012170Y018373D01*
X012170Y018471D02*
X012348Y018471D01*
X012379Y018570D02*
X012170Y018570D01*
X012170Y018668D02*
X012343Y018668D01*
X012343Y018767D02*
X012170Y018767D01*
X012170Y018865D02*
X012343Y018865D01*
X012343Y018964D02*
X012170Y018964D01*
X012170Y019062D02*
X012343Y019062D01*
X012343Y019161D02*
X012170Y019161D01*
X012170Y019259D02*
X012210Y019259D01*
X012210Y019358D02*
X012170Y019358D01*
X012170Y019456D02*
X012210Y019456D01*
X012210Y019555D02*
X012170Y019555D01*
X012170Y019653D02*
X012210Y019653D01*
X012210Y019752D02*
X012170Y019752D01*
X012170Y019850D02*
X012210Y019850D01*
X012210Y019949D02*
X012170Y019949D01*
X012170Y020047D02*
X012215Y020047D01*
X011210Y020047D02*
X011165Y020047D01*
X011170Y020042D02*
X011082Y020130D01*
X010297Y020130D01*
X010210Y020042D01*
X010210Y019258D01*
X010297Y019170D01*
X011082Y019170D01*
X011170Y019258D01*
X011170Y020042D01*
X011170Y019949D02*
X011210Y019949D01*
X011210Y019850D02*
X011170Y019850D01*
X011170Y019752D02*
X011210Y019752D01*
X011210Y019653D02*
X011170Y019653D01*
X011170Y019555D02*
X011210Y019555D01*
X011210Y019456D02*
X011170Y019456D01*
X011170Y019358D02*
X011210Y019358D01*
X011210Y019259D02*
X011170Y019259D01*
X010210Y019259D02*
X010170Y019259D01*
X010170Y019258D02*
X010170Y020042D01*
X010082Y020130D01*
X009297Y020130D01*
X009210Y020042D01*
X009210Y019258D01*
X009297Y019170D01*
X010082Y019170D01*
X010170Y019258D01*
X010170Y019358D02*
X010210Y019358D01*
X010210Y019456D02*
X010170Y019456D01*
X010170Y019555D02*
X010210Y019555D01*
X010210Y019653D02*
X010170Y019653D01*
X010170Y019752D02*
X010210Y019752D01*
X010210Y019850D02*
X010170Y019850D01*
X010170Y019949D02*
X010210Y019949D01*
X010215Y020047D02*
X010165Y020047D01*
X009962Y020244D02*
X010417Y020244D01*
X009417Y020244D02*
X008962Y020244D01*
X009082Y020130D02*
X009170Y020042D01*
X009170Y019258D01*
X009082Y019170D01*
X008297Y019170D01*
X008210Y019258D01*
X008210Y020042D01*
X008297Y020130D01*
X009082Y020130D01*
X009165Y020047D02*
X009215Y020047D01*
X009210Y019949D02*
X009170Y019949D01*
X009170Y019850D02*
X009210Y019850D01*
X009210Y019752D02*
X009170Y019752D01*
X009170Y019653D02*
X009210Y019653D01*
X009210Y019555D02*
X009170Y019555D01*
X009170Y019456D02*
X009210Y019456D01*
X009210Y019358D02*
X009170Y019358D01*
X009170Y019259D02*
X009210Y019259D01*
X008210Y019259D02*
X008170Y019259D01*
X008170Y019258D02*
X008170Y020042D01*
X008082Y020130D01*
X007297Y020130D01*
X007210Y020042D01*
X007210Y019258D01*
X007297Y019170D01*
X008082Y019170D01*
X008170Y019258D01*
X008170Y019358D02*
X008210Y019358D01*
X008210Y019456D02*
X008170Y019456D01*
X008170Y019555D02*
X008210Y019555D01*
X008210Y019653D02*
X008170Y019653D01*
X008170Y019752D02*
X008210Y019752D01*
X008210Y019850D02*
X008170Y019850D01*
X008170Y019949D02*
X008210Y019949D01*
X008215Y020047D02*
X008165Y020047D01*
X007962Y020244D02*
X008417Y020244D01*
X008393Y021032D02*
X007986Y021032D01*
X007947Y021229D02*
X008432Y021229D01*
X008333Y021328D02*
X008046Y021328D01*
X008100Y021919D02*
X008279Y021919D01*
X008378Y022017D02*
X008001Y022017D01*
X007903Y022116D02*
X008476Y022116D01*
X008447Y022214D02*
X007932Y022214D01*
X008031Y022313D02*
X008348Y022313D01*
X008250Y022411D02*
X008129Y022411D01*
X008115Y022904D02*
X008264Y022904D01*
X008363Y023002D02*
X008016Y023002D01*
X007918Y023101D02*
X008461Y023101D01*
X008491Y023170D02*
X008210Y023451D01*
X008210Y023600D01*
X008640Y023600D01*
X008740Y023600D01*
X008740Y023700D01*
X009170Y023700D01*
X009170Y023849D01*
X008888Y024130D01*
X008740Y024130D01*
X008740Y023700D01*
X008640Y023700D01*
X008640Y024130D01*
X008491Y024130D01*
X008210Y023849D01*
X008210Y023700D01*
X008640Y023700D01*
X008640Y023600D01*
X008640Y023170D01*
X008491Y023170D01*
X008462Y023199D02*
X007917Y023199D01*
X007888Y023170D02*
X008170Y023451D01*
X008170Y023600D01*
X007740Y023600D01*
X007740Y023700D01*
X008170Y023700D01*
X008170Y023849D01*
X007888Y024130D01*
X007740Y024130D01*
X007740Y023700D01*
X007640Y023700D01*
X007640Y024130D01*
X007491Y024130D01*
X007210Y023849D01*
X007210Y023700D01*
X007640Y023700D01*
X007640Y023600D01*
X007740Y023600D01*
X007740Y023170D01*
X007888Y023170D01*
X007740Y023199D02*
X007640Y023199D01*
X007640Y023170D02*
X007640Y023600D01*
X007210Y023600D01*
X007210Y023451D01*
X007491Y023170D01*
X007640Y023170D01*
X007640Y023298D02*
X007740Y023298D01*
X007740Y023396D02*
X007640Y023396D01*
X007640Y023495D02*
X007740Y023495D01*
X007740Y023593D02*
X007640Y023593D01*
X007640Y023692D02*
X006740Y023692D01*
X006740Y023700D02*
X007170Y023700D01*
X007170Y023849D01*
X006888Y024130D01*
X006740Y024130D01*
X006740Y023700D01*
X006740Y023600D01*
X007170Y023600D01*
X007170Y023451D01*
X006888Y023170D01*
X006740Y023170D01*
X006740Y023600D01*
X006640Y023600D01*
X006640Y023170D01*
X006491Y023170D01*
X006210Y023451D01*
X006210Y023600D01*
X006640Y023600D01*
X006640Y023700D01*
X006640Y024130D01*
X006491Y024130D01*
X006210Y023849D01*
X006210Y023700D01*
X006640Y023700D01*
X006740Y023700D01*
X006740Y023790D02*
X006640Y023790D01*
X006640Y023692D02*
X001890Y023692D01*
X001890Y023790D02*
X006210Y023790D01*
X006249Y023889D02*
X001890Y023889D01*
X001896Y023987D02*
X006348Y023987D01*
X006446Y024086D02*
X001919Y024086D01*
X001951Y024184D02*
X035678Y024184D01*
X035710Y024086D02*
X010933Y024086D01*
X010888Y024130D02*
X010740Y024130D01*
X010740Y023700D01*
X011170Y023700D01*
X011170Y023849D01*
X010888Y024130D01*
X010740Y024086D02*
X010640Y024086D01*
X010640Y024130D02*
X010491Y024130D01*
X010210Y023849D01*
X010210Y023700D01*
X010640Y023700D01*
X010640Y024130D01*
X010640Y023987D02*
X010740Y023987D01*
X010740Y023889D02*
X010640Y023889D01*
X010640Y023790D02*
X010740Y023790D01*
X010740Y023700D02*
X010640Y023700D01*
X010640Y023600D01*
X010740Y023600D01*
X010740Y023700D01*
X010740Y023692D02*
X035740Y023692D01*
X035740Y023790D02*
X011170Y023790D01*
X011130Y023889D02*
X035740Y023889D01*
X035733Y023987D02*
X011031Y023987D01*
X011170Y023600D02*
X010740Y023600D01*
X010740Y023170D01*
X010888Y023170D01*
X011170Y023451D01*
X011170Y023600D01*
X011170Y023593D02*
X035740Y023593D01*
X035740Y023495D02*
X011170Y023495D01*
X011114Y023396D02*
X035740Y023396D01*
X035740Y023298D02*
X011016Y023298D01*
X010917Y023199D02*
X035740Y023199D01*
X035740Y023101D02*
X010918Y023101D01*
X011016Y023002D02*
X035740Y023002D01*
X035740Y022904D02*
X011115Y022904D01*
X011170Y022805D02*
X035740Y022805D01*
X035740Y022707D02*
X011170Y022707D01*
X011170Y022608D02*
X035740Y022608D01*
X035740Y022510D02*
X011170Y022510D01*
X011254Y022411D02*
X035740Y022411D01*
X035740Y022313D02*
X011352Y022313D01*
X011451Y022214D02*
X035740Y022214D01*
X035740Y022116D02*
X034403Y022116D01*
X034501Y022017D02*
X035740Y022017D01*
X035740Y021919D02*
X034600Y021919D01*
X034670Y021820D02*
X035740Y021820D01*
X035740Y021722D02*
X034670Y021722D01*
X034240Y021722D02*
X034140Y021722D01*
X034140Y021820D02*
X034240Y021820D01*
X034240Y021919D02*
X034140Y021919D01*
X034140Y022017D02*
X034240Y022017D01*
X034240Y022116D02*
X034140Y022116D01*
X033976Y022116D02*
X024903Y022116D01*
X025001Y022017D02*
X033878Y022017D01*
X033779Y021919D02*
X025100Y021919D01*
X025170Y021820D02*
X033710Y021820D01*
X033710Y021722D02*
X025170Y021722D01*
X024740Y021722D02*
X024640Y021722D01*
X024640Y021820D02*
X024740Y021820D01*
X024740Y021919D02*
X024640Y021919D01*
X024640Y022017D02*
X024740Y022017D01*
X024740Y022116D02*
X024640Y022116D01*
X023476Y022116D02*
X022903Y022116D01*
X023001Y022017D02*
X023378Y022017D01*
X023279Y021919D02*
X023100Y021919D01*
X023170Y021820D02*
X023210Y021820D01*
X023210Y021722D02*
X023170Y021722D01*
X023170Y021525D02*
X023210Y021525D01*
X023235Y021426D02*
X023144Y021426D01*
X023046Y021328D02*
X023333Y021328D01*
X021740Y021328D02*
X021640Y021328D01*
X021640Y021426D02*
X021740Y021426D01*
X021740Y021525D02*
X021640Y021525D01*
X021640Y021623D02*
X012042Y021623D01*
X012140Y021525D02*
X021210Y021525D01*
X021235Y021426D02*
X012170Y021426D01*
X012170Y021328D02*
X021333Y021328D01*
X021640Y021229D02*
X021740Y021229D01*
X021210Y021722D02*
X011943Y021722D01*
X011845Y021820D02*
X021210Y021820D01*
X021279Y021919D02*
X011746Y021919D01*
X011648Y022017D02*
X021378Y022017D01*
X024920Y018471D02*
X026608Y018471D01*
X026561Y018373D02*
X024920Y018373D01*
X024920Y018274D02*
X026555Y018274D01*
X026583Y018176D02*
X024920Y018176D01*
X024920Y018077D02*
X026660Y018077D01*
X024758Y016994D02*
X029208Y016994D01*
X029109Y016895D02*
X024660Y016895D01*
X024561Y016797D02*
X029011Y016797D01*
X028912Y016698D02*
X024463Y016698D01*
X024364Y016600D02*
X028814Y016600D01*
X028715Y016501D02*
X024266Y016501D01*
X024167Y016403D02*
X028617Y016403D01*
X028518Y016304D02*
X024069Y016304D01*
X023978Y016009D02*
X024402Y016009D01*
X024303Y015910D02*
X024076Y015910D01*
X024118Y015812D02*
X024262Y015812D01*
X024232Y015713D02*
X024147Y015713D01*
X024147Y015615D02*
X024232Y015615D01*
X024250Y015516D02*
X024129Y015516D01*
X024088Y015418D02*
X024291Y015418D01*
X024374Y015319D02*
X024005Y015319D01*
X026599Y016107D02*
X026781Y016107D01*
X031365Y016600D02*
X031510Y016600D01*
X031510Y016501D02*
X031464Y016501D01*
X032224Y016206D02*
X032755Y016206D01*
X032768Y016107D02*
X032211Y016107D01*
X032310Y016009D02*
X032669Y016009D01*
X032571Y015910D02*
X032408Y015910D01*
X032470Y015812D02*
X032510Y015812D01*
X032510Y015713D02*
X032470Y015713D01*
X032470Y015615D02*
X032510Y015615D01*
X032510Y015516D02*
X032470Y015516D01*
X032436Y015418D02*
X032543Y015418D01*
X032642Y015319D02*
X032337Y015319D01*
X032239Y015221D02*
X032740Y015221D01*
X032783Y015122D02*
X032196Y015122D01*
X032295Y015024D02*
X032684Y015024D01*
X032586Y014925D02*
X032393Y014925D01*
X032470Y014827D02*
X032510Y014827D01*
X032510Y014728D02*
X032470Y014728D01*
X032470Y014630D02*
X032510Y014630D01*
X032510Y014531D02*
X032470Y014531D01*
X032451Y014433D02*
X032528Y014433D01*
X032627Y014334D02*
X032352Y014334D01*
X032254Y014236D02*
X032725Y014236D01*
X032699Y014039D02*
X032280Y014039D01*
X032378Y013940D02*
X032601Y013940D01*
X032510Y013842D02*
X032470Y013842D01*
X032470Y013743D02*
X032510Y013743D01*
X032510Y013645D02*
X032470Y013645D01*
X032470Y013546D02*
X032510Y013546D01*
X032513Y013448D02*
X032466Y013448D01*
X032367Y013349D02*
X032612Y013349D01*
X032710Y013251D02*
X032269Y013251D01*
X032265Y013054D02*
X032714Y013054D01*
X032616Y012955D02*
X032363Y012955D01*
X032462Y012857D02*
X032517Y012857D01*
X032510Y012758D02*
X032470Y012758D01*
X032470Y012660D02*
X032510Y012660D01*
X032510Y012561D02*
X032470Y012561D01*
X032470Y012463D02*
X032510Y012463D01*
X032597Y012364D02*
X032382Y012364D01*
X032284Y012266D02*
X032695Y012266D01*
X032729Y012069D02*
X032250Y012069D01*
X032348Y011970D02*
X032631Y011970D01*
X032532Y011872D02*
X032447Y011872D01*
X032470Y011773D02*
X032510Y011773D01*
X032510Y011675D02*
X032470Y011675D01*
X032470Y011576D02*
X032510Y011576D01*
X032510Y011478D02*
X032470Y011478D01*
X032397Y011379D02*
X032582Y011379D01*
X032680Y011281D02*
X032299Y011281D01*
X032200Y011182D02*
X032779Y011182D01*
X032791Y011130D02*
X032510Y010849D01*
X032510Y010451D01*
X032791Y010170D01*
X033188Y010170D01*
X033470Y010451D01*
X033470Y010849D01*
X033188Y011130D01*
X032791Y011130D01*
X032744Y011084D02*
X032235Y011084D01*
X032333Y010985D02*
X032646Y010985D01*
X032547Y010887D02*
X032432Y010887D01*
X032470Y010788D02*
X032510Y010788D01*
X032510Y010690D02*
X032470Y010690D01*
X032470Y010591D02*
X032510Y010591D01*
X032510Y010493D02*
X032470Y010493D01*
X032412Y010394D02*
X032567Y010394D01*
X032665Y010296D02*
X032314Y010296D01*
X032215Y010197D02*
X032764Y010197D01*
X033215Y010197D02*
X033764Y010197D01*
X033791Y010170D02*
X033940Y010170D01*
X033940Y010600D01*
X034040Y010600D01*
X034040Y010700D01*
X034470Y010700D01*
X034470Y010849D01*
X034188Y011130D01*
X034040Y011130D01*
X034040Y010700D01*
X033940Y010700D01*
X033940Y011130D01*
X033791Y011130D01*
X033510Y010849D01*
X033510Y010700D01*
X033940Y010700D01*
X033940Y010600D01*
X033510Y010600D01*
X033510Y010451D01*
X033791Y010170D01*
X033940Y010197D02*
X034040Y010197D01*
X034040Y010170D02*
X034188Y010170D01*
X034470Y010451D01*
X034470Y010600D01*
X034040Y010600D01*
X034040Y010170D01*
X034040Y010296D02*
X033940Y010296D01*
X033940Y010394D02*
X034040Y010394D01*
X034040Y010493D02*
X033940Y010493D01*
X033940Y010591D02*
X034040Y010591D01*
X034040Y010690D02*
X035740Y010690D01*
X035740Y010788D02*
X034470Y010788D01*
X034432Y010887D02*
X035740Y010887D01*
X035740Y010985D02*
X034333Y010985D01*
X034235Y011084D02*
X035740Y011084D01*
X035740Y011182D02*
X034200Y011182D01*
X034299Y011281D02*
X035740Y011281D01*
X035740Y011379D02*
X034397Y011379D01*
X034470Y011478D02*
X035740Y011478D01*
X035740Y011576D02*
X034470Y011576D01*
X034470Y011773D02*
X035740Y011773D01*
X035740Y011675D02*
X034040Y011675D01*
X034040Y011576D02*
X033940Y011576D01*
X033940Y011478D02*
X034040Y011478D01*
X034040Y011379D02*
X033940Y011379D01*
X033940Y011281D02*
X034040Y011281D01*
X034040Y011182D02*
X033940Y011182D01*
X033940Y011084D02*
X034040Y011084D01*
X034040Y010985D02*
X033940Y010985D01*
X033940Y010887D02*
X034040Y010887D01*
X034040Y010788D02*
X033940Y010788D01*
X033940Y010690D02*
X033470Y010690D01*
X033470Y010788D02*
X033510Y010788D01*
X033547Y010887D02*
X033432Y010887D01*
X033333Y010985D02*
X033646Y010985D01*
X033744Y011084D02*
X033235Y011084D01*
X033200Y011182D02*
X033779Y011182D01*
X033680Y011281D02*
X033299Y011281D01*
X033397Y011379D02*
X033582Y011379D01*
X033510Y011478D02*
X033470Y011478D01*
X033470Y011576D02*
X033510Y011576D01*
X034348Y011970D02*
X035740Y011970D01*
X035740Y011872D02*
X034447Y011872D01*
X034470Y010591D02*
X035740Y010591D01*
X035740Y010493D02*
X034470Y010493D01*
X034412Y010394D02*
X035740Y010394D01*
X035740Y010296D02*
X034314Y010296D01*
X034215Y010197D02*
X035740Y010197D01*
X033665Y010296D02*
X033314Y010296D01*
X033412Y010394D02*
X033567Y010394D01*
X033510Y010493D02*
X033470Y010493D01*
X033470Y010591D02*
X033510Y010591D01*
X031676Y009015D02*
X026920Y009015D01*
X026920Y008917D02*
X031577Y008917D01*
X031510Y008818D02*
X026920Y008818D01*
X026920Y008720D02*
X031510Y008720D01*
X031510Y008621D02*
X026920Y008621D01*
X026920Y008523D02*
X031510Y008523D01*
X031537Y008424D02*
X026920Y008424D01*
X026920Y008326D02*
X031635Y008326D01*
X031734Y008227D02*
X026920Y008227D01*
X026920Y008129D02*
X031789Y008129D01*
X031691Y008030D02*
X026920Y008030D01*
X026920Y007932D02*
X031592Y007932D01*
X031510Y007833D02*
X026920Y007833D01*
X026920Y007735D02*
X031510Y007735D01*
X031510Y007636D02*
X026920Y007636D01*
X026920Y007538D02*
X031510Y007538D01*
X031522Y007439D02*
X026920Y007439D01*
X026920Y007341D02*
X031620Y007341D01*
X031719Y007242D02*
X026920Y007242D01*
X026460Y007242D02*
X016607Y007242D01*
X016705Y007341D02*
X026460Y007341D01*
X026460Y007439D02*
X016804Y007439D01*
X016508Y007144D02*
X026460Y007144D01*
X026449Y007045D02*
X025931Y007045D01*
X026040Y006947D02*
X026340Y006947D01*
X026277Y006848D02*
X026102Y006848D01*
X026143Y006750D02*
X026236Y006750D01*
X026232Y006651D02*
X026147Y006651D01*
X026144Y006553D02*
X026235Y006553D01*
X026276Y006454D02*
X026103Y006454D01*
X026042Y006356D02*
X026338Y006356D01*
X026444Y006257D02*
X025935Y006257D01*
X025953Y005962D02*
X031622Y005962D01*
X031524Y005863D02*
X026052Y005863D01*
X026150Y005765D02*
X031510Y005765D01*
X031510Y005666D02*
X026249Y005666D01*
X026347Y005568D02*
X031510Y005568D01*
X031510Y005469D02*
X026446Y005469D01*
X026544Y005371D02*
X031590Y005371D01*
X031689Y005272D02*
X026643Y005272D01*
X026741Y005174D02*
X031787Y005174D01*
X033215Y004484D02*
X033240Y004509D01*
X033266Y004483D01*
X032580Y003696D02*
X027056Y003696D01*
X027056Y003598D02*
X032580Y003598D01*
X032580Y003499D02*
X026999Y003499D01*
X026920Y003401D02*
X032580Y003401D01*
X032580Y003302D02*
X026920Y003302D01*
X026920Y003204D02*
X032580Y003204D01*
X032506Y003105D02*
X027913Y003105D01*
X027888Y003130D02*
X027740Y003130D01*
X027740Y002700D01*
X028170Y002700D01*
X028170Y002849D01*
X027888Y003130D01*
X027740Y003105D02*
X027640Y003105D01*
X027640Y003130D02*
X027491Y003130D01*
X027210Y002849D01*
X027210Y002700D01*
X027640Y002700D01*
X027640Y003130D01*
X027640Y003007D02*
X027740Y003007D01*
X027740Y002908D02*
X027640Y002908D01*
X027640Y002810D02*
X027740Y002810D01*
X027740Y002711D02*
X027640Y002711D01*
X027640Y002700D02*
X027740Y002700D01*
X027740Y002600D01*
X028170Y002600D01*
X028170Y002451D01*
X027888Y002170D01*
X027740Y002170D01*
X027740Y002600D01*
X027640Y002600D01*
X027640Y002170D01*
X027491Y002170D01*
X027210Y002451D01*
X027210Y002600D01*
X027640Y002600D01*
X027640Y002700D01*
X027640Y002613D02*
X027170Y002613D01*
X027170Y002711D02*
X027210Y002711D01*
X027210Y002810D02*
X027170Y002810D01*
X027110Y002908D02*
X027269Y002908D01*
X027367Y003007D02*
X027012Y003007D01*
X026920Y003105D02*
X027466Y003105D01*
X028012Y003007D02*
X032408Y003007D01*
X032309Y002908D02*
X028110Y002908D01*
X028170Y002810D02*
X032211Y002810D01*
X032112Y002711D02*
X028170Y002711D01*
X028170Y002514D02*
X031915Y002514D01*
X031817Y002416D02*
X028134Y002416D01*
X028035Y002317D02*
X031718Y002317D01*
X031620Y002219D02*
X027937Y002219D01*
X027740Y002219D02*
X027640Y002219D01*
X027640Y002317D02*
X027740Y002317D01*
X027740Y002416D02*
X027640Y002416D01*
X027640Y002514D02*
X027740Y002514D01*
X027740Y002613D02*
X032014Y002613D01*
X031521Y002120D02*
X025658Y002120D01*
X025757Y002022D02*
X031423Y002022D01*
X035314Y000446D02*
X002315Y000446D01*
X001890Y001431D02*
X013371Y001431D01*
X013272Y001529D02*
X001890Y001529D01*
X001890Y001628D02*
X013174Y001628D01*
X013075Y001726D02*
X001890Y001726D01*
X001890Y001825D02*
X012977Y001825D01*
X012878Y001923D02*
X001890Y001923D01*
X001890Y002022D02*
X012780Y002022D01*
X012681Y002120D02*
X001890Y002120D01*
X001890Y002219D02*
X005249Y002219D01*
X005210Y002258D02*
X005297Y002170D01*
X006082Y002170D01*
X006170Y002258D01*
X006170Y003042D01*
X006082Y003130D01*
X005297Y003130D01*
X005210Y003042D01*
X005210Y002258D01*
X005210Y002317D02*
X001890Y002317D01*
X001890Y002416D02*
X005210Y002416D01*
X005210Y002514D02*
X001890Y002514D01*
X001890Y002613D02*
X005210Y002613D01*
X005210Y002711D02*
X001890Y002711D01*
X001890Y002810D02*
X005210Y002810D01*
X005210Y002908D02*
X001890Y002908D01*
X001890Y003007D02*
X005210Y003007D01*
X005272Y003105D02*
X001890Y003105D01*
X001890Y003204D02*
X008460Y003204D01*
X008460Y003302D02*
X001890Y003302D01*
X001890Y003401D02*
X008460Y003401D01*
X008460Y003499D02*
X001890Y003499D01*
X001890Y003598D02*
X008460Y003598D01*
X008460Y003696D02*
X001890Y003696D01*
X001890Y003795D02*
X008460Y003795D01*
X008460Y003893D02*
X001890Y003893D01*
X001890Y003992D02*
X008460Y003992D01*
X008460Y004090D02*
X001890Y004090D01*
X001890Y004189D02*
X008460Y004189D01*
X008460Y004287D02*
X001890Y004287D01*
X001890Y004386D02*
X008460Y004386D01*
X008460Y004484D02*
X001890Y004484D01*
X001890Y004583D02*
X008460Y004583D01*
X008460Y004681D02*
X001890Y004681D01*
X001890Y004780D02*
X008460Y004780D01*
X008460Y004878D02*
X001890Y004878D01*
X001890Y004977D02*
X008460Y004977D01*
X008460Y005075D02*
X001890Y005075D01*
X001890Y005174D02*
X008460Y005174D01*
X008460Y005272D02*
X001890Y005272D01*
X001890Y005371D02*
X008460Y005371D01*
X008460Y005469D02*
X001890Y005469D01*
X001890Y005568D02*
X008447Y005568D01*
X008348Y005666D02*
X001890Y005666D01*
X001890Y005765D02*
X008250Y005765D01*
X008151Y005863D02*
X001890Y005863D01*
X001890Y005962D02*
X008053Y005962D01*
X007954Y006060D02*
X001890Y006060D01*
X001890Y006159D02*
X007856Y006159D01*
X007444Y006257D02*
X006935Y006257D01*
X006949Y006262D02*
X007077Y006391D01*
X007147Y006559D01*
X007147Y006741D01*
X007077Y006909D01*
X006949Y007038D01*
X006781Y007107D01*
X006599Y007107D01*
X006431Y007038D01*
X006302Y006909D01*
X006232Y006741D01*
X006232Y006559D01*
X006302Y006391D01*
X006431Y006262D01*
X006599Y006193D01*
X006781Y006193D01*
X006949Y006262D01*
X007042Y006356D02*
X007338Y006356D01*
X007276Y006454D02*
X007103Y006454D01*
X007144Y006553D02*
X007235Y006553D01*
X007232Y006651D02*
X007147Y006651D01*
X007143Y006750D02*
X007236Y006750D01*
X007277Y006848D02*
X007102Y006848D01*
X007040Y006947D02*
X007340Y006947D01*
X007449Y007045D02*
X006931Y007045D01*
X006449Y007045D02*
X005931Y007045D01*
X005949Y007038D02*
X005781Y007107D01*
X005599Y007107D01*
X005431Y007038D01*
X005302Y006909D01*
X005232Y006741D01*
X005232Y006559D01*
X005302Y006391D01*
X005431Y006262D01*
X005599Y006193D01*
X005781Y006193D01*
X005949Y006262D01*
X006077Y006391D01*
X006147Y006559D01*
X006147Y006741D01*
X006077Y006909D01*
X005949Y007038D01*
X006040Y006947D02*
X006340Y006947D01*
X006277Y006848D02*
X006102Y006848D01*
X006143Y006750D02*
X006236Y006750D01*
X006232Y006651D02*
X006147Y006651D01*
X006144Y006553D02*
X006235Y006553D01*
X006276Y006454D02*
X006103Y006454D01*
X006042Y006356D02*
X006338Y006356D01*
X006444Y006257D02*
X005935Y006257D01*
X005444Y006257D02*
X005120Y006257D01*
X005117Y006251D02*
X005137Y006285D01*
X005147Y006323D01*
X005147Y006611D01*
X004728Y006611D01*
X004728Y006193D01*
X005017Y006193D01*
X005055Y006203D01*
X005089Y006223D01*
X005117Y006251D01*
X005147Y006356D02*
X005338Y006356D01*
X005276Y006454D02*
X005147Y006454D01*
X005147Y006553D02*
X005235Y006553D01*
X005232Y006651D02*
X004728Y006651D01*
X004728Y006689D02*
X005147Y006689D01*
X005147Y006977D01*
X005137Y007015D01*
X005117Y007049D01*
X005089Y007077D01*
X005055Y007097D01*
X005017Y007107D01*
X004728Y007107D01*
X004728Y006689D01*
X004651Y006689D01*
X004651Y007107D01*
X004363Y007107D01*
X004325Y007097D01*
X004290Y007077D01*
X004262Y007049D01*
X004243Y007015D01*
X004232Y006977D01*
X004232Y006689D01*
X004651Y006689D01*
X004651Y006611D01*
X004728Y006611D01*
X004728Y006689D01*
X004728Y006750D02*
X004651Y006750D01*
X004651Y006848D02*
X004728Y006848D01*
X004728Y006947D02*
X004651Y006947D01*
X004651Y007045D02*
X004728Y007045D01*
X005119Y007045D02*
X005449Y007045D01*
X005340Y006947D02*
X005147Y006947D01*
X005147Y006848D02*
X005277Y006848D01*
X005236Y006750D02*
X005147Y006750D01*
X004728Y006553D02*
X004651Y006553D01*
X004651Y006611D02*
X004651Y006193D01*
X004363Y006193D01*
X004325Y006203D01*
X004290Y006223D01*
X004262Y006251D01*
X004243Y006285D01*
X004232Y006323D01*
X004232Y006611D01*
X004651Y006611D01*
X004651Y006651D02*
X001890Y006651D01*
X001890Y006553D02*
X004232Y006553D01*
X004232Y006454D02*
X001890Y006454D01*
X001890Y006356D02*
X004232Y006356D01*
X004259Y006257D02*
X001890Y006257D01*
X001890Y006750D02*
X004232Y006750D01*
X004232Y006848D02*
X001890Y006848D01*
X001890Y006947D02*
X004232Y006947D01*
X004260Y007045D02*
X001890Y007045D01*
X001890Y007144D02*
X009460Y007144D01*
X009460Y007050D02*
X009431Y007038D01*
X009302Y006909D01*
X009232Y006741D01*
X009232Y006559D01*
X009302Y006391D01*
X009431Y006262D01*
X009599Y006193D01*
X009781Y006193D01*
X009949Y006262D01*
X010077Y006391D01*
X010147Y006559D01*
X010147Y006741D01*
X010077Y006909D01*
X009949Y007038D01*
X009920Y007050D01*
X009920Y009495D01*
X009785Y009630D01*
X009035Y010380D01*
X007094Y010380D01*
X006960Y010245D01*
X006416Y009701D01*
X004512Y009701D01*
X004444Y009770D01*
X004444Y009876D01*
X004027Y009876D01*
X004027Y009933D01*
X004444Y009933D01*
X004444Y010039D01*
X004512Y010107D01*
X006722Y010107D01*
X007035Y010420D01*
X009844Y010420D01*
X010460Y009805D01*
X010460Y007050D01*
X010431Y007038D01*
X010302Y006909D01*
X010232Y006741D01*
X010232Y006559D01*
X010302Y006391D01*
X010431Y006262D01*
X010599Y006193D01*
X010781Y006193D01*
X010949Y006262D01*
X011077Y006391D01*
X011147Y006559D01*
X011147Y006741D01*
X011077Y006909D01*
X010949Y007038D01*
X010920Y007050D01*
X010920Y009995D01*
X010785Y010130D01*
X010035Y010880D01*
X006844Y010880D01*
X006710Y010745D01*
X006532Y010567D01*
X006232Y010567D01*
X007630Y011965D01*
X007646Y011965D01*
X007707Y011990D01*
X007707Y011185D01*
X007794Y011097D01*
X008470Y011097D01*
X008558Y011185D01*
X008558Y012018D01*
X008470Y012106D01*
X007838Y012106D01*
X007875Y012193D01*
X007875Y012307D01*
X007831Y012411D01*
X007751Y012492D01*
X007646Y012535D01*
X007533Y012535D01*
X007428Y012492D01*
X007348Y012411D01*
X007305Y012307D01*
X007305Y012290D01*
X006015Y011000D01*
X005693Y011000D01*
X005731Y011039D01*
X005775Y011143D01*
X005775Y011257D01*
X005731Y011361D01*
X005686Y011407D01*
X005732Y011407D01*
X005833Y011365D01*
X005946Y011365D01*
X006051Y011408D01*
X006131Y011489D01*
X006175Y011593D01*
X006175Y011707D01*
X006131Y011811D01*
X006051Y011892D01*
X005946Y011935D01*
X005833Y011935D01*
X005728Y011892D01*
X005703Y011867D01*
X004669Y011867D01*
X004592Y011944D01*
X004522Y011944D01*
X004522Y012289D01*
X004434Y012377D01*
X003720Y012377D01*
X003632Y012289D01*
X003632Y011850D01*
X003720Y011762D01*
X003789Y011762D01*
X003789Y011511D01*
X003720Y011511D01*
X003632Y011423D01*
X003632Y011069D01*
X003553Y010990D01*
X003553Y010551D01*
X003632Y010472D01*
X003632Y010194D01*
X003611Y010182D01*
X003583Y010154D01*
X003563Y010120D01*
X003553Y010082D01*
X003553Y009933D01*
X003970Y009933D01*
X003970Y009876D01*
X003553Y009876D01*
X003553Y009727D01*
X003563Y009689D01*
X003583Y009655D01*
X003611Y009627D01*
X003632Y009615D01*
X003632Y008819D01*
X003720Y008731D01*
X004434Y008731D01*
X004522Y008819D01*
X004522Y009241D01*
X006606Y009241D01*
X007285Y009920D01*
X008844Y009920D01*
X009460Y009305D01*
X009460Y007050D01*
X009449Y007045D02*
X008931Y007045D01*
X008949Y007038D02*
X008781Y007107D01*
X008599Y007107D01*
X008431Y007038D01*
X008302Y006909D01*
X008232Y006741D01*
X008232Y006559D01*
X008302Y006391D01*
X008431Y006262D01*
X008599Y006193D01*
X008781Y006193D01*
X008949Y006262D01*
X009077Y006391D01*
X009147Y006559D01*
X009147Y006741D01*
X009077Y006909D01*
X008949Y007038D01*
X009040Y006947D02*
X009340Y006947D01*
X009277Y006848D02*
X009102Y006848D01*
X009143Y006750D02*
X009236Y006750D01*
X009232Y006651D02*
X009147Y006651D01*
X009144Y006553D02*
X009235Y006553D01*
X009276Y006454D02*
X009103Y006454D01*
X009042Y006356D02*
X009338Y006356D01*
X009444Y006257D02*
X008935Y006257D01*
X008703Y005962D02*
X015926Y005962D01*
X016024Y006060D02*
X008605Y006060D01*
X008506Y006159D02*
X016123Y006159D01*
X016221Y006257D02*
X015935Y006257D01*
X016042Y006356D02*
X016320Y006356D01*
X016276Y006454D02*
X016103Y006454D01*
X016144Y006553D02*
X016235Y006553D01*
X016232Y006651D02*
X016147Y006651D01*
X016143Y006750D02*
X016236Y006750D01*
X016213Y006848D02*
X016277Y006848D01*
X016311Y006947D02*
X016340Y006947D01*
X016410Y007045D02*
X016449Y007045D01*
X017641Y004780D02*
X017738Y004780D01*
X017738Y004681D02*
X017641Y004681D01*
X017641Y004583D02*
X017738Y004583D01*
X018036Y004583D02*
X018343Y004583D01*
X018343Y004681D02*
X018036Y004681D01*
X018014Y004780D02*
X018365Y004780D01*
X018343Y004386D02*
X018036Y004386D01*
X018036Y004287D02*
X018343Y004287D01*
X018366Y004189D02*
X018014Y004189D01*
X018036Y004090D02*
X018343Y004090D01*
X018343Y003992D02*
X018036Y003992D01*
X018036Y003893D02*
X018343Y003893D01*
X018343Y003795D02*
X018036Y003795D01*
X018036Y003696D02*
X018343Y003696D01*
X018343Y003598D02*
X018036Y003598D01*
X018000Y003499D02*
X018380Y003499D01*
X018380Y003401D02*
X018000Y003401D01*
X018000Y003302D02*
X018380Y003302D01*
X018380Y003204D02*
X018000Y003204D01*
X018107Y003105D02*
X018380Y003105D01*
X018367Y003007D02*
X018170Y003007D01*
X018170Y002908D02*
X018269Y002908D01*
X018210Y002810D02*
X018170Y002810D01*
X018170Y002711D02*
X018210Y002711D01*
X018210Y002613D02*
X018170Y002613D01*
X018598Y002120D02*
X018681Y002120D01*
X018780Y002022D02*
X018500Y002022D01*
X018401Y001923D02*
X018878Y001923D01*
X018977Y001825D02*
X018303Y001825D01*
X018204Y001726D02*
X019075Y001726D01*
X019174Y001628D02*
X018106Y001628D01*
X018007Y001529D02*
X019272Y001529D01*
X019371Y001431D02*
X017909Y001431D01*
X017249Y002219D02*
X015937Y002219D01*
X015888Y002170D02*
X016170Y002451D01*
X016170Y002600D01*
X015740Y002600D01*
X015740Y002700D01*
X016170Y002700D01*
X016170Y002849D01*
X015888Y003130D01*
X015740Y003130D01*
X015740Y002700D01*
X015640Y002700D01*
X015640Y003130D01*
X015491Y003130D01*
X015210Y002849D01*
X015210Y002700D01*
X015640Y002700D01*
X015640Y002600D01*
X015740Y002600D01*
X015740Y002170D01*
X015888Y002170D01*
X015740Y002219D02*
X015640Y002219D01*
X015640Y002170D02*
X015640Y002600D01*
X015210Y002600D01*
X015210Y002451D01*
X015491Y002170D01*
X015640Y002170D01*
X015640Y002317D02*
X015740Y002317D01*
X015740Y002416D02*
X015640Y002416D01*
X015640Y002514D02*
X015740Y002514D01*
X015740Y002613D02*
X017210Y002613D01*
X017210Y002711D02*
X016170Y002711D01*
X016170Y002810D02*
X017210Y002810D01*
X017210Y002908D02*
X016110Y002908D01*
X016012Y003007D02*
X017210Y003007D01*
X017272Y003105D02*
X015913Y003105D01*
X015740Y003105D02*
X015640Y003105D01*
X015640Y003007D02*
X015740Y003007D01*
X015740Y002908D02*
X015640Y002908D01*
X015640Y002810D02*
X015740Y002810D01*
X015740Y002711D02*
X015640Y002711D01*
X015640Y002613D02*
X015170Y002613D01*
X015170Y002711D02*
X015210Y002711D01*
X015210Y002810D02*
X015170Y002810D01*
X015110Y002908D02*
X015269Y002908D01*
X015367Y003007D02*
X015012Y003007D01*
X014920Y003105D02*
X015466Y003105D01*
X014920Y003204D02*
X017380Y003204D01*
X017380Y003302D02*
X014920Y003302D01*
X014920Y003401D02*
X017380Y003401D01*
X017380Y003499D02*
X014999Y003499D01*
X015056Y003598D02*
X017343Y003598D01*
X017343Y003696D02*
X015056Y003696D01*
X015056Y003795D02*
X017343Y003795D01*
X017343Y003893D02*
X015056Y003893D01*
X015056Y003992D02*
X017343Y003992D01*
X017343Y004090D02*
X015040Y004090D01*
X015019Y004189D02*
X017366Y004189D01*
X017343Y004287D02*
X015056Y004287D01*
X015170Y002514D02*
X015210Y002514D01*
X015245Y002416D02*
X015134Y002416D01*
X015035Y002317D02*
X015344Y002317D01*
X015442Y002219D02*
X014937Y002219D01*
X016035Y002317D02*
X017210Y002317D01*
X017210Y002416D02*
X016134Y002416D01*
X016170Y002514D02*
X017210Y002514D01*
X020920Y003105D02*
X021466Y003105D01*
X021491Y003130D02*
X021210Y002849D01*
X021210Y002700D01*
X021640Y002700D01*
X021640Y003130D01*
X021491Y003130D01*
X021640Y003105D02*
X021740Y003105D01*
X021740Y003130D02*
X021888Y003130D01*
X022170Y002849D01*
X022170Y002700D01*
X021740Y002700D01*
X021740Y002600D01*
X022170Y002600D01*
X022170Y002451D01*
X021888Y002170D01*
X021740Y002170D01*
X021740Y002600D01*
X021640Y002600D01*
X021640Y002170D01*
X021491Y002170D01*
X021210Y002451D01*
X021210Y002600D01*
X021640Y002600D01*
X021640Y002700D01*
X021740Y002700D01*
X021740Y003130D01*
X021740Y003007D02*
X021640Y003007D01*
X021640Y002908D02*
X021740Y002908D01*
X021740Y002810D02*
X021640Y002810D01*
X021640Y002711D02*
X021740Y002711D01*
X021740Y002613D02*
X023210Y002613D01*
X023210Y002711D02*
X022170Y002711D01*
X022170Y002810D02*
X023210Y002810D01*
X023210Y002908D02*
X022110Y002908D01*
X022012Y003007D02*
X023210Y003007D01*
X023272Y003105D02*
X021913Y003105D01*
X021367Y003007D02*
X021012Y003007D01*
X021110Y002908D02*
X021269Y002908D01*
X021210Y002810D02*
X021170Y002810D01*
X021170Y002711D02*
X021210Y002711D01*
X021170Y002613D02*
X021640Y002613D01*
X021640Y002514D02*
X021740Y002514D01*
X021740Y002416D02*
X021640Y002416D01*
X021640Y002317D02*
X021740Y002317D01*
X021740Y002219D02*
X021640Y002219D01*
X021442Y002219D02*
X020937Y002219D01*
X021035Y002317D02*
X021344Y002317D01*
X021245Y002416D02*
X021134Y002416D01*
X021170Y002514D02*
X021210Y002514D01*
X020920Y003204D02*
X023380Y003204D01*
X023380Y003302D02*
X020920Y003302D01*
X020920Y003401D02*
X023380Y003401D01*
X023380Y003499D02*
X020999Y003499D01*
X021056Y003598D02*
X023343Y003598D01*
X023343Y003696D02*
X021056Y003696D01*
X021056Y003795D02*
X023343Y003795D01*
X023343Y003893D02*
X021056Y003893D01*
X021056Y003992D02*
X023343Y003992D01*
X023343Y004090D02*
X021040Y004090D01*
X021019Y004189D02*
X023366Y004189D01*
X023343Y004287D02*
X021056Y004287D01*
X021056Y004386D02*
X023343Y004386D01*
X023343Y004533D02*
X023641Y004533D01*
X023641Y004851D01*
X023473Y004851D01*
X023435Y004841D01*
X023401Y004821D01*
X023373Y004793D01*
X023353Y004759D01*
X023343Y004721D01*
X023343Y004533D01*
X023343Y004583D02*
X021056Y004583D01*
X021056Y004681D02*
X023343Y004681D01*
X023365Y004780D02*
X021020Y004780D01*
X020920Y004878D02*
X025386Y004878D01*
X025359Y004780D02*
X025014Y004780D01*
X025036Y004681D02*
X025323Y004681D01*
X025323Y004583D02*
X025036Y004583D01*
X025036Y004386D02*
X025323Y004386D01*
X025323Y004484D02*
X024738Y004484D01*
X024641Y004484D02*
X023738Y004484D01*
X023641Y004484D02*
X021056Y004484D01*
X020920Y004977D02*
X025288Y004977D01*
X025189Y005075D02*
X020940Y005075D01*
X021038Y005174D02*
X025091Y005174D01*
X024992Y005272D02*
X021137Y005272D01*
X021235Y005371D02*
X024894Y005371D01*
X024795Y005469D02*
X021334Y005469D01*
X021432Y005568D02*
X024697Y005568D01*
X024598Y005666D02*
X021531Y005666D01*
X021629Y005765D02*
X024500Y005765D01*
X024460Y005863D02*
X021728Y005863D01*
X021826Y005962D02*
X024460Y005962D01*
X024460Y006060D02*
X021920Y006060D01*
X021920Y006159D02*
X024460Y006159D01*
X024444Y006257D02*
X023935Y006257D01*
X023949Y006262D02*
X024077Y006391D01*
X024147Y006559D01*
X024147Y006741D01*
X024077Y006909D01*
X023949Y007038D01*
X023781Y007107D01*
X023599Y007107D01*
X023431Y007038D01*
X023302Y006909D01*
X023232Y006741D01*
X023232Y006559D01*
X023302Y006391D01*
X023431Y006262D01*
X023599Y006193D01*
X023781Y006193D01*
X023949Y006262D01*
X024042Y006356D02*
X024338Y006356D01*
X024276Y006454D02*
X024103Y006454D01*
X024144Y006553D02*
X024235Y006553D01*
X024232Y006651D02*
X024147Y006651D01*
X024143Y006750D02*
X024236Y006750D01*
X024277Y006848D02*
X024102Y006848D01*
X024040Y006947D02*
X024340Y006947D01*
X024449Y007045D02*
X023931Y007045D01*
X023449Y007045D02*
X022931Y007045D01*
X022949Y007038D02*
X022781Y007107D01*
X022599Y007107D01*
X022431Y007038D01*
X022302Y006909D01*
X022232Y006741D01*
X022232Y006559D01*
X022302Y006391D01*
X022431Y006262D01*
X022599Y006193D01*
X022781Y006193D01*
X022949Y006262D01*
X023077Y006391D01*
X023147Y006559D01*
X023147Y006741D01*
X023077Y006909D01*
X022949Y007038D01*
X023040Y006947D02*
X023340Y006947D01*
X023277Y006848D02*
X023102Y006848D01*
X023143Y006750D02*
X023236Y006750D01*
X023232Y006651D02*
X023147Y006651D01*
X023144Y006553D02*
X023235Y006553D01*
X023276Y006454D02*
X023103Y006454D01*
X023042Y006356D02*
X023338Y006356D01*
X023444Y006257D02*
X022935Y006257D01*
X022444Y006257D02*
X021935Y006257D01*
X022042Y006356D02*
X022338Y006356D01*
X022276Y006454D02*
X022103Y006454D01*
X022144Y006553D02*
X022235Y006553D01*
X022232Y006651D02*
X022147Y006651D01*
X022143Y006750D02*
X022236Y006750D01*
X022277Y006848D02*
X022102Y006848D01*
X022040Y006947D02*
X022340Y006947D01*
X022449Y007045D02*
X021931Y007045D01*
X023641Y004780D02*
X023738Y004780D01*
X023738Y004681D02*
X023641Y004681D01*
X023641Y004583D02*
X023738Y004583D01*
X024036Y004583D02*
X024343Y004583D01*
X024343Y004533D02*
X024641Y004533D01*
X024641Y004851D01*
X024473Y004851D01*
X024435Y004841D01*
X024401Y004821D01*
X024373Y004793D01*
X024353Y004759D01*
X024343Y004721D01*
X024343Y004533D01*
X024343Y004386D02*
X024036Y004386D01*
X024036Y004287D02*
X024343Y004287D01*
X024366Y004189D02*
X024014Y004189D01*
X024036Y004090D02*
X024343Y004090D01*
X024343Y003992D02*
X024036Y003992D01*
X024036Y003893D02*
X024343Y003893D01*
X024343Y003795D02*
X024036Y003795D01*
X024036Y003696D02*
X024343Y003696D01*
X024343Y003598D02*
X024036Y003598D01*
X024000Y003499D02*
X024380Y003499D01*
X024380Y003401D02*
X024000Y003401D01*
X024000Y003302D02*
X024380Y003302D01*
X024380Y003204D02*
X024000Y003204D01*
X024107Y003105D02*
X024380Y003105D01*
X024367Y003007D02*
X024170Y003007D01*
X024170Y002908D02*
X024269Y002908D01*
X024210Y002810D02*
X024170Y002810D01*
X024170Y002711D02*
X024210Y002711D01*
X024210Y002613D02*
X024170Y002613D01*
X024598Y002120D02*
X024781Y002120D01*
X024880Y002022D02*
X024500Y002022D01*
X024401Y001923D02*
X024978Y001923D01*
X025077Y001825D02*
X024303Y001825D01*
X024204Y001726D02*
X025175Y001726D01*
X025274Y001628D02*
X024106Y001628D01*
X024007Y001529D02*
X025372Y001529D01*
X025471Y001431D02*
X023909Y001431D01*
X023249Y002219D02*
X021937Y002219D01*
X022035Y002317D02*
X023210Y002317D01*
X023210Y002416D02*
X022134Y002416D01*
X022170Y002514D02*
X023210Y002514D01*
X025012Y003007D02*
X025367Y003007D01*
X025460Y003105D02*
X025000Y003105D01*
X025000Y003204D02*
X025460Y003204D01*
X025460Y003302D02*
X025000Y003302D01*
X025000Y003401D02*
X025460Y003401D01*
X025380Y003499D02*
X025000Y003499D01*
X025036Y003598D02*
X025323Y003598D01*
X025323Y003696D02*
X025036Y003696D01*
X025036Y003795D02*
X025323Y003795D01*
X025323Y003893D02*
X025036Y003893D01*
X025036Y003992D02*
X025323Y003992D01*
X025339Y004090D02*
X025036Y004090D01*
X025014Y004189D02*
X025360Y004189D01*
X025323Y004287D02*
X025036Y004287D01*
X024738Y004583D02*
X024641Y004583D01*
X024641Y004681D02*
X024738Y004681D01*
X024738Y004780D02*
X024641Y004780D01*
X024365Y004780D02*
X024014Y004780D01*
X024036Y004681D02*
X024343Y004681D01*
X025446Y005469D02*
X025795Y005469D01*
X025697Y005568D02*
X025347Y005568D01*
X025249Y005666D02*
X025598Y005666D01*
X025500Y005765D02*
X025150Y005765D01*
X025052Y005863D02*
X025460Y005863D01*
X025460Y005962D02*
X024953Y005962D01*
X024920Y006060D02*
X025460Y006060D01*
X025460Y006159D02*
X024920Y006159D01*
X024935Y006257D02*
X025444Y006257D01*
X025338Y006356D02*
X025042Y006356D01*
X025103Y006454D02*
X025276Y006454D01*
X025235Y006553D02*
X025144Y006553D01*
X025147Y006651D02*
X025232Y006651D01*
X025236Y006750D02*
X025143Y006750D01*
X025102Y006848D02*
X025277Y006848D01*
X025340Y006947D02*
X025040Y006947D01*
X024931Y007045D02*
X025449Y007045D01*
X025544Y005371D02*
X025894Y005371D01*
X025992Y005272D02*
X025643Y005272D01*
X025741Y005174D02*
X026091Y005174D01*
X026189Y005075D02*
X025840Y005075D01*
X025920Y004977D02*
X026288Y004977D01*
X026386Y004878D02*
X025920Y004878D01*
X026020Y004780D02*
X026359Y004780D01*
X026323Y004681D02*
X026056Y004681D01*
X026056Y004583D02*
X026323Y004583D01*
X026323Y004484D02*
X026056Y004484D01*
X026056Y004386D02*
X026323Y004386D01*
X026323Y004287D02*
X026056Y004287D01*
X026019Y004189D02*
X026360Y004189D01*
X026339Y004090D02*
X026040Y004090D01*
X026056Y003992D02*
X026323Y003992D01*
X026323Y003893D02*
X026056Y003893D01*
X026056Y003795D02*
X026323Y003795D01*
X026323Y003696D02*
X026056Y003696D01*
X026056Y003598D02*
X026323Y003598D01*
X026380Y003499D02*
X025999Y003499D01*
X025920Y003401D02*
X026460Y003401D01*
X026460Y003302D02*
X025920Y003302D01*
X025920Y003204D02*
X026460Y003204D01*
X026460Y003105D02*
X025920Y003105D01*
X026012Y003007D02*
X026367Y003007D01*
X026269Y002908D02*
X026110Y002908D01*
X026170Y002810D02*
X026210Y002810D01*
X026210Y002711D02*
X026170Y002711D01*
X026170Y002613D02*
X026210Y002613D01*
X026210Y002514D02*
X026170Y002514D01*
X026134Y002416D02*
X026245Y002416D01*
X026344Y002317D02*
X026035Y002317D01*
X025937Y002219D02*
X026442Y002219D01*
X026937Y002219D02*
X027442Y002219D01*
X027344Y002317D02*
X027035Y002317D01*
X027134Y002416D02*
X027245Y002416D01*
X027210Y002514D02*
X027170Y002514D01*
X025269Y002908D02*
X025110Y002908D01*
X025170Y002810D02*
X025210Y002810D01*
X025210Y002711D02*
X025170Y002711D01*
X025170Y002613D02*
X025210Y002613D01*
X012442Y002219D02*
X012130Y002219D01*
X012170Y002317D02*
X012344Y002317D01*
X012245Y002416D02*
X012170Y002416D01*
X012170Y002514D02*
X012210Y002514D01*
X012210Y002613D02*
X012170Y002613D01*
X012170Y002711D02*
X012210Y002711D01*
X012210Y002810D02*
X012170Y002810D01*
X012170Y002908D02*
X012269Y002908D01*
X012367Y003007D02*
X012170Y003007D01*
X012107Y003105D02*
X012380Y003105D01*
X012380Y003204D02*
X012000Y003204D01*
X012000Y003302D02*
X012380Y003302D01*
X012380Y003401D02*
X012000Y003401D01*
X012000Y003499D02*
X012380Y003499D01*
X012343Y003598D02*
X012036Y003598D01*
X012036Y003696D02*
X012343Y003696D01*
X012343Y003795D02*
X012036Y003795D01*
X012036Y003893D02*
X012343Y003893D01*
X012343Y003992D02*
X012036Y003992D01*
X012036Y004090D02*
X012343Y004090D01*
X012366Y004189D02*
X012014Y004189D01*
X012036Y004287D02*
X012343Y004287D01*
X012343Y004386D02*
X012036Y004386D01*
X012036Y004583D02*
X012343Y004583D01*
X012343Y004681D02*
X012036Y004681D01*
X012014Y004780D02*
X012365Y004780D01*
X011738Y004780D02*
X011641Y004780D01*
X011641Y004681D02*
X011738Y004681D01*
X011738Y004583D02*
X011641Y004583D01*
X011343Y004287D02*
X008920Y004287D01*
X008920Y004189D02*
X011366Y004189D01*
X011343Y004090D02*
X008920Y004090D01*
X008920Y003992D02*
X011343Y003992D01*
X011343Y003893D02*
X008920Y003893D01*
X008920Y003795D02*
X011343Y003795D01*
X011343Y003696D02*
X008920Y003696D01*
X008920Y003598D02*
X011343Y003598D01*
X011380Y003499D02*
X008920Y003499D01*
X008920Y003401D02*
X011380Y003401D01*
X011380Y003302D02*
X008920Y003302D01*
X008920Y003204D02*
X011380Y003204D01*
X011272Y003105D02*
X009913Y003105D01*
X009888Y003130D02*
X009740Y003130D01*
X009740Y002700D01*
X010170Y002700D01*
X010170Y002849D01*
X009888Y003130D01*
X009740Y003105D02*
X009640Y003105D01*
X009640Y003130D02*
X009491Y003130D01*
X009210Y002849D01*
X009210Y002700D01*
X009640Y002700D01*
X009640Y003130D01*
X009640Y003007D02*
X009740Y003007D01*
X009740Y002908D02*
X009640Y002908D01*
X009640Y002810D02*
X009740Y002810D01*
X009740Y002711D02*
X009640Y002711D01*
X009640Y002700D02*
X009740Y002700D01*
X009740Y002600D01*
X010170Y002600D01*
X010170Y002451D01*
X009888Y002170D01*
X009740Y002170D01*
X009740Y002600D01*
X009640Y002600D01*
X009640Y002170D01*
X009491Y002170D01*
X009210Y002451D01*
X009210Y002600D01*
X009640Y002600D01*
X009640Y002700D01*
X009640Y002613D02*
X009170Y002613D01*
X009170Y002711D02*
X009210Y002711D01*
X009210Y002810D02*
X009170Y002810D01*
X009170Y002908D02*
X009269Y002908D01*
X009367Y003007D02*
X009170Y003007D01*
X009107Y003105D02*
X009466Y003105D01*
X010012Y003007D02*
X011210Y003007D01*
X011210Y002908D02*
X010110Y002908D01*
X010170Y002810D02*
X011210Y002810D01*
X011210Y002711D02*
X010170Y002711D01*
X010170Y002514D02*
X011210Y002514D01*
X011210Y002416D02*
X010134Y002416D01*
X010035Y002317D02*
X011210Y002317D01*
X011249Y002219D02*
X009937Y002219D01*
X009740Y002219D02*
X009640Y002219D01*
X009640Y002317D02*
X009740Y002317D01*
X009740Y002416D02*
X009640Y002416D01*
X009640Y002514D02*
X009740Y002514D01*
X009740Y002613D02*
X011210Y002613D01*
X009442Y002219D02*
X009130Y002219D01*
X009170Y002317D02*
X009344Y002317D01*
X009245Y002416D02*
X009170Y002416D01*
X009170Y002514D02*
X009210Y002514D01*
X008210Y002514D02*
X007170Y002514D01*
X007170Y002451D02*
X007170Y002600D01*
X006740Y002600D01*
X006740Y002700D01*
X007170Y002700D01*
X007170Y002849D01*
X006888Y003130D01*
X006740Y003130D01*
X006740Y002700D01*
X006640Y002700D01*
X006640Y003130D01*
X006491Y003130D01*
X006210Y002849D01*
X006210Y002700D01*
X006640Y002700D01*
X006640Y002600D01*
X006740Y002600D01*
X006740Y002170D01*
X006888Y002170D01*
X007170Y002451D01*
X007134Y002416D02*
X008210Y002416D01*
X008210Y002317D02*
X007035Y002317D01*
X006937Y002219D02*
X008249Y002219D01*
X008210Y002613D02*
X006740Y002613D01*
X006740Y002711D02*
X006640Y002711D01*
X006640Y002613D02*
X006170Y002613D01*
X006210Y002600D02*
X006210Y002451D01*
X006491Y002170D01*
X006640Y002170D01*
X006640Y002600D01*
X006210Y002600D01*
X006210Y002514D02*
X006170Y002514D01*
X006170Y002416D02*
X006245Y002416D01*
X006170Y002317D02*
X006344Y002317D01*
X006442Y002219D02*
X006130Y002219D01*
X006170Y002711D02*
X006210Y002711D01*
X006210Y002810D02*
X006170Y002810D01*
X006170Y002908D02*
X006269Y002908D01*
X006367Y003007D02*
X006170Y003007D01*
X006107Y003105D02*
X006466Y003105D01*
X006640Y003105D02*
X006740Y003105D01*
X006740Y003007D02*
X006640Y003007D01*
X006640Y002908D02*
X006740Y002908D01*
X006740Y002810D02*
X006640Y002810D01*
X006640Y002514D02*
X006740Y002514D01*
X006740Y002416D02*
X006640Y002416D01*
X006640Y002317D02*
X006740Y002317D01*
X006740Y002219D02*
X006640Y002219D01*
X007170Y002711D02*
X008210Y002711D01*
X008210Y002810D02*
X007170Y002810D01*
X007110Y002908D02*
X008210Y002908D01*
X008210Y003007D02*
X007012Y003007D01*
X006913Y003105D02*
X008272Y003105D01*
X008408Y006257D02*
X008444Y006257D01*
X008338Y006356D02*
X008309Y006356D01*
X008276Y006454D02*
X008211Y006454D01*
X008235Y006553D02*
X008144Y006553D01*
X008147Y006651D02*
X008232Y006651D01*
X008236Y006750D02*
X008143Y006750D01*
X008102Y006848D02*
X008277Y006848D01*
X008340Y006947D02*
X008040Y006947D01*
X007931Y007045D02*
X008449Y007045D01*
X009460Y007242D02*
X001890Y007242D01*
X001890Y007341D02*
X009460Y007341D01*
X009460Y007439D02*
X001890Y007439D01*
X001890Y007538D02*
X009460Y007538D01*
X009460Y007636D02*
X001890Y007636D01*
X001890Y007735D02*
X009460Y007735D01*
X009460Y007833D02*
X001890Y007833D01*
X001890Y007932D02*
X009460Y007932D01*
X009460Y008030D02*
X001890Y008030D01*
X001890Y008129D02*
X009460Y008129D01*
X009460Y008227D02*
X001890Y008227D01*
X001890Y008326D02*
X002499Y008326D01*
X002489Y008332D02*
X002523Y008312D01*
X002561Y008302D01*
X002905Y008302D01*
X002905Y008677D01*
X003005Y008677D01*
X003005Y008302D01*
X003349Y008302D01*
X003387Y008312D01*
X003421Y008332D01*
X003449Y008359D01*
X003469Y008394D01*
X003479Y008432D01*
X003479Y008677D01*
X003005Y008677D01*
X003005Y008777D01*
X003479Y008777D01*
X003479Y009023D01*
X003469Y009061D01*
X003449Y009095D01*
X003421Y009123D01*
X003387Y009143D01*
X003349Y009153D01*
X003005Y009153D01*
X003005Y008777D01*
X002905Y008777D01*
X002905Y008677D01*
X002431Y008677D01*
X002431Y008432D01*
X002441Y008394D01*
X002461Y008359D01*
X002489Y008332D01*
X002433Y008424D02*
X001890Y008424D01*
X001890Y008523D02*
X002431Y008523D01*
X002431Y008621D02*
X001890Y008621D01*
X001890Y008720D02*
X002905Y008720D01*
X002905Y008777D02*
X002431Y008777D01*
X002431Y009023D01*
X002441Y009061D01*
X002461Y009095D01*
X002489Y009123D01*
X002523Y009143D01*
X002561Y009153D01*
X002905Y009153D01*
X002905Y008777D01*
X002905Y008818D02*
X003005Y008818D01*
X003005Y008720D02*
X009460Y008720D01*
X009460Y008818D02*
X004522Y008818D01*
X004522Y008917D02*
X007731Y008917D01*
X007707Y008941D02*
X007794Y008853D01*
X008470Y008853D01*
X008558Y008941D01*
X008558Y009774D01*
X008470Y009861D01*
X007794Y009861D01*
X007707Y009774D01*
X007707Y008941D01*
X007707Y009015D02*
X004522Y009015D01*
X004522Y009114D02*
X007707Y009114D01*
X007707Y009212D02*
X004522Y009212D01*
X004509Y009705D02*
X006419Y009705D01*
X006517Y009803D02*
X004444Y009803D01*
X004444Y010000D02*
X006714Y010000D01*
X006616Y009902D02*
X004027Y009902D01*
X003970Y009902D02*
X001890Y009902D01*
X001890Y010000D02*
X003553Y010000D01*
X003558Y010099D02*
X001890Y010099D01*
X001890Y010197D02*
X003632Y010197D01*
X003632Y010296D02*
X001890Y010296D01*
X001890Y010394D02*
X003632Y010394D01*
X003611Y010493D02*
X001890Y010493D01*
X001890Y010591D02*
X003553Y010591D01*
X003553Y010690D02*
X001890Y010690D01*
X001890Y010788D02*
X003553Y010788D01*
X003553Y010887D02*
X001890Y010887D01*
X001890Y010985D02*
X003553Y010985D01*
X003632Y011084D02*
X001890Y011084D01*
X001890Y011182D02*
X003632Y011182D01*
X003632Y011281D02*
X001890Y011281D01*
X001890Y011379D02*
X003632Y011379D01*
X003686Y011478D02*
X001890Y011478D01*
X001890Y011576D02*
X003789Y011576D01*
X003789Y011675D02*
X001890Y011675D01*
X001890Y011773D02*
X003709Y011773D01*
X003632Y011872D02*
X001890Y011872D01*
X001890Y011970D02*
X003632Y011970D01*
X003632Y012069D02*
X001890Y012069D01*
X001890Y012167D02*
X003632Y012167D01*
X003632Y012266D02*
X001890Y012266D01*
X001890Y012364D02*
X003706Y012364D01*
X004448Y012364D02*
X007328Y012364D01*
X007280Y012266D02*
X004522Y012266D01*
X004522Y012167D02*
X007181Y012167D01*
X007083Y012069D02*
X004522Y012069D01*
X004522Y011970D02*
X006984Y011970D01*
X006886Y011872D02*
X006071Y011872D01*
X006147Y011773D02*
X006787Y011773D01*
X006689Y011675D02*
X006175Y011675D01*
X006167Y011576D02*
X006590Y011576D01*
X006492Y011478D02*
X006120Y011478D01*
X005980Y011379D02*
X006393Y011379D01*
X006295Y011281D02*
X005765Y011281D01*
X005775Y011182D02*
X006196Y011182D01*
X006098Y011084D02*
X005750Y011084D01*
X005714Y011379D02*
X005799Y011379D01*
X005708Y011872D02*
X004664Y011872D01*
X006256Y010591D02*
X006555Y010591D01*
X006654Y010690D02*
X006354Y010690D01*
X006453Y010788D02*
X006752Y010788D01*
X006650Y010985D02*
X012460Y010985D01*
X012460Y010887D02*
X006551Y010887D01*
X006748Y011084D02*
X012460Y011084D01*
X012460Y011182D02*
X008555Y011182D01*
X008558Y011281D02*
X012460Y011281D01*
X012460Y011379D02*
X008558Y011379D01*
X008558Y011478D02*
X012460Y011478D01*
X012460Y011576D02*
X008558Y011576D01*
X008558Y011675D02*
X012460Y011675D01*
X012460Y011773D02*
X008558Y011773D01*
X008558Y011872D02*
X012393Y011872D01*
X012294Y011970D02*
X008558Y011970D01*
X008507Y012069D02*
X012196Y012069D01*
X012097Y012167D02*
X007864Y012167D01*
X007875Y012266D02*
X011999Y012266D01*
X011900Y012364D02*
X007851Y012364D01*
X007780Y012463D02*
X011802Y012463D01*
X011703Y012561D02*
X001890Y012561D01*
X001890Y012463D02*
X007399Y012463D01*
X007658Y011970D02*
X007707Y011970D01*
X007707Y011872D02*
X007536Y011872D01*
X007438Y011773D02*
X007707Y011773D01*
X007707Y011675D02*
X007339Y011675D01*
X007241Y011576D02*
X007707Y011576D01*
X007707Y011478D02*
X007142Y011478D01*
X007044Y011379D02*
X007707Y011379D01*
X007707Y011281D02*
X006945Y011281D01*
X006847Y011182D02*
X007709Y011182D01*
X007009Y010394D02*
X009870Y010394D01*
X009969Y010296D02*
X009119Y010296D01*
X009218Y010197D02*
X010067Y010197D01*
X010166Y010099D02*
X009316Y010099D01*
X009415Y010000D02*
X010264Y010000D01*
X010363Y009902D02*
X009513Y009902D01*
X009612Y009803D02*
X010460Y009803D01*
X010460Y009705D02*
X009710Y009705D01*
X009809Y009606D02*
X010460Y009606D01*
X010460Y009508D02*
X009907Y009508D01*
X009920Y009409D02*
X010460Y009409D01*
X010460Y009311D02*
X009920Y009311D01*
X009920Y009212D02*
X010460Y009212D01*
X010460Y009114D02*
X009920Y009114D01*
X009920Y009015D02*
X010460Y009015D01*
X010460Y008917D02*
X009920Y008917D01*
X009920Y008818D02*
X010460Y008818D01*
X010460Y008720D02*
X009920Y008720D01*
X009920Y008621D02*
X010460Y008621D01*
X010460Y008523D02*
X009920Y008523D01*
X009920Y008424D02*
X010460Y008424D01*
X010460Y008326D02*
X009920Y008326D01*
X009920Y008227D02*
X010460Y008227D01*
X010460Y008129D02*
X009920Y008129D01*
X009920Y008030D02*
X010460Y008030D01*
X010460Y007932D02*
X009920Y007932D01*
X009920Y007833D02*
X010460Y007833D01*
X010460Y007735D02*
X009920Y007735D01*
X009920Y007636D02*
X010460Y007636D01*
X010460Y007538D02*
X009920Y007538D01*
X009920Y007439D02*
X010460Y007439D01*
X010460Y007341D02*
X009920Y007341D01*
X009920Y007242D02*
X010460Y007242D01*
X010460Y007144D02*
X009920Y007144D01*
X009931Y007045D02*
X010449Y007045D01*
X010340Y006947D02*
X010040Y006947D01*
X010102Y006848D02*
X010277Y006848D01*
X010236Y006750D02*
X010143Y006750D01*
X010147Y006651D02*
X010232Y006651D01*
X010235Y006553D02*
X010144Y006553D01*
X010103Y006454D02*
X010276Y006454D01*
X010338Y006356D02*
X010042Y006356D01*
X009935Y006257D02*
X010444Y006257D01*
X010935Y006257D02*
X011444Y006257D01*
X011431Y006262D02*
X011599Y006193D01*
X011781Y006193D01*
X011949Y006262D01*
X012077Y006391D01*
X012147Y006559D01*
X012147Y006741D01*
X012077Y006909D01*
X011949Y007038D01*
X011781Y007107D01*
X011599Y007107D01*
X011431Y007038D01*
X011302Y006909D01*
X011232Y006741D01*
X011232Y006559D01*
X011302Y006391D01*
X011431Y006262D01*
X011338Y006356D02*
X011042Y006356D01*
X011103Y006454D02*
X011276Y006454D01*
X011235Y006553D02*
X011144Y006553D01*
X011147Y006651D02*
X011232Y006651D01*
X011236Y006750D02*
X011143Y006750D01*
X011102Y006848D02*
X011277Y006848D01*
X011340Y006947D02*
X011040Y006947D01*
X010931Y007045D02*
X011449Y007045D01*
X010920Y007144D02*
X012460Y007144D01*
X012460Y007242D02*
X010920Y007242D01*
X010920Y007341D02*
X012460Y007341D01*
X012460Y007439D02*
X010920Y007439D01*
X010920Y007538D02*
X012460Y007538D01*
X012460Y007636D02*
X010920Y007636D01*
X010920Y007735D02*
X012460Y007735D01*
X012460Y007833D02*
X010920Y007833D01*
X010920Y007932D02*
X012460Y007932D01*
X012460Y008030D02*
X010920Y008030D01*
X010920Y008129D02*
X012460Y008129D01*
X012460Y008227D02*
X010920Y008227D01*
X010920Y008326D02*
X012460Y008326D01*
X012460Y008424D02*
X010920Y008424D01*
X010920Y008523D02*
X012460Y008523D01*
X012460Y008621D02*
X010920Y008621D01*
X010920Y008720D02*
X012460Y008720D01*
X012460Y008818D02*
X010920Y008818D01*
X010920Y008917D02*
X012460Y008917D01*
X012460Y009015D02*
X010920Y009015D01*
X010920Y009114D02*
X012460Y009114D01*
X012460Y009212D02*
X010920Y009212D01*
X010920Y009311D02*
X012460Y009311D01*
X012460Y009409D02*
X010920Y009409D01*
X010920Y009508D02*
X012460Y009508D01*
X012460Y009606D02*
X010920Y009606D01*
X010920Y009705D02*
X012460Y009705D01*
X012460Y009803D02*
X010920Y009803D01*
X010920Y009902D02*
X012460Y009902D01*
X012460Y010000D02*
X010915Y010000D01*
X010816Y010099D02*
X012460Y010099D01*
X012460Y010197D02*
X010718Y010197D01*
X010619Y010296D02*
X012460Y010296D01*
X012460Y010394D02*
X010521Y010394D01*
X010422Y010493D02*
X012460Y010493D01*
X012460Y010591D02*
X010324Y010591D01*
X010225Y010690D02*
X012460Y010690D01*
X012460Y010788D02*
X010127Y010788D01*
X008961Y009803D02*
X008528Y009803D01*
X008558Y009705D02*
X009060Y009705D01*
X009158Y009606D02*
X008558Y009606D01*
X008558Y009508D02*
X009257Y009508D01*
X009355Y009409D02*
X008558Y009409D01*
X008558Y009311D02*
X009454Y009311D01*
X009460Y009212D02*
X008558Y009212D01*
X008558Y009114D02*
X009460Y009114D01*
X009460Y009015D02*
X008558Y009015D01*
X008534Y008917D02*
X009460Y008917D01*
X009460Y008621D02*
X003479Y008621D01*
X003479Y008523D02*
X009460Y008523D01*
X009460Y008424D02*
X003477Y008424D01*
X003411Y008326D02*
X009460Y008326D01*
X007707Y009311D02*
X006675Y009311D01*
X006774Y009409D02*
X007707Y009409D01*
X007707Y009508D02*
X006872Y009508D01*
X006971Y009606D02*
X007707Y009606D01*
X007707Y009705D02*
X007069Y009705D01*
X007168Y009803D02*
X007736Y009803D01*
X007266Y009902D02*
X008863Y009902D01*
X007010Y010296D02*
X006910Y010296D01*
X006911Y010197D02*
X006812Y010197D01*
X006813Y010099D02*
X004503Y010099D01*
X003632Y009606D02*
X001890Y009606D01*
X001890Y009508D02*
X003632Y009508D01*
X003632Y009409D02*
X001890Y009409D01*
X001890Y009311D02*
X003632Y009311D01*
X003632Y009212D02*
X001890Y009212D01*
X001890Y009114D02*
X002480Y009114D01*
X002431Y009015D02*
X001890Y009015D01*
X001890Y008917D02*
X002431Y008917D01*
X002431Y008818D02*
X001890Y008818D01*
X001890Y009705D02*
X003559Y009705D01*
X003553Y009803D02*
X001890Y009803D01*
X002905Y009114D02*
X003005Y009114D01*
X003005Y009015D02*
X002905Y009015D01*
X002905Y008917D02*
X003005Y008917D01*
X003005Y008621D02*
X002905Y008621D01*
X002905Y008523D02*
X003005Y008523D01*
X003005Y008424D02*
X002905Y008424D01*
X002905Y008326D02*
X003005Y008326D01*
X003479Y008818D02*
X003632Y008818D01*
X003632Y008917D02*
X003479Y008917D01*
X003479Y009015D02*
X003632Y009015D01*
X003632Y009114D02*
X003430Y009114D01*
X004651Y006454D02*
X004728Y006454D01*
X004728Y006356D02*
X004651Y006356D01*
X004651Y006257D02*
X004728Y006257D01*
X011935Y006257D02*
X012444Y006257D01*
X012338Y006356D02*
X012042Y006356D01*
X012103Y006454D02*
X012276Y006454D01*
X012235Y006553D02*
X012144Y006553D01*
X012147Y006651D02*
X012232Y006651D01*
X012236Y006750D02*
X012143Y006750D01*
X012102Y006848D02*
X012277Y006848D01*
X012340Y006947D02*
X012040Y006947D01*
X011931Y007045D02*
X012449Y007045D01*
X011605Y012660D02*
X001890Y012660D01*
X001890Y012758D02*
X011506Y012758D01*
X011408Y012857D02*
X001890Y012857D01*
X001890Y012955D02*
X011309Y012955D01*
X011211Y013054D02*
X001890Y013054D01*
X001890Y013152D02*
X011112Y013152D01*
X011014Y013251D02*
X001890Y013251D01*
X001890Y013349D02*
X010960Y013349D01*
X010960Y013448D02*
X001890Y013448D01*
X001890Y013546D02*
X002062Y013546D01*
X002067Y013537D02*
X002095Y013509D01*
X002129Y013489D01*
X002167Y013479D01*
X002511Y013479D01*
X002511Y013854D01*
X002611Y013854D01*
X002611Y013479D01*
X002955Y013479D01*
X002993Y013489D01*
X003027Y013509D01*
X003055Y013537D01*
X003075Y013571D01*
X003085Y013609D01*
X003085Y013854D01*
X002611Y013854D01*
X002611Y013954D01*
X003085Y013954D01*
X003085Y014200D01*
X003075Y014238D01*
X003055Y014272D01*
X003027Y014300D01*
X002993Y014320D01*
X002955Y014330D01*
X002611Y014330D01*
X002611Y013954D01*
X002511Y013954D01*
X002511Y013854D01*
X002037Y013854D01*
X002037Y013609D01*
X002047Y013571D01*
X002067Y013537D01*
X002037Y013645D02*
X001890Y013645D01*
X001890Y013743D02*
X002037Y013743D01*
X002037Y013842D02*
X001890Y013842D01*
X001890Y013940D02*
X002511Y013940D01*
X002511Y013954D02*
X002037Y013954D01*
X002037Y014200D01*
X002047Y014238D01*
X002067Y014272D01*
X002095Y014300D01*
X002129Y014320D01*
X002167Y014330D01*
X002511Y014330D01*
X002511Y013954D01*
X002511Y014039D02*
X002611Y014039D01*
X002611Y014137D02*
X002511Y014137D01*
X002511Y014236D02*
X002611Y014236D01*
X002611Y013940D02*
X010960Y013940D01*
X010960Y013842D02*
X003085Y013842D01*
X003085Y013743D02*
X010960Y013743D01*
X010960Y013645D02*
X003085Y013645D01*
X003061Y013546D02*
X010960Y013546D01*
X010960Y014039D02*
X003085Y014039D01*
X003085Y014137D02*
X010960Y014137D01*
X010960Y014236D02*
X003076Y014236D01*
X002611Y013842D02*
X002511Y013842D01*
X002511Y013743D02*
X002611Y013743D01*
X002611Y013645D02*
X002511Y013645D01*
X002511Y013546D02*
X002611Y013546D01*
X002037Y014039D02*
X001890Y014039D01*
X001890Y014137D02*
X002037Y014137D01*
X002047Y014236D02*
X001890Y014236D01*
X001890Y014334D02*
X010960Y014334D01*
X010960Y014433D02*
X001890Y014433D01*
X001890Y014531D02*
X010960Y014531D01*
X010960Y014630D02*
X001890Y014630D01*
X001890Y014728D02*
X010960Y014728D01*
X010960Y014827D02*
X001890Y014827D01*
X001890Y014925D02*
X010960Y014925D01*
X010960Y015024D02*
X001890Y015024D01*
X001890Y015122D02*
X010960Y015122D01*
X010960Y015221D02*
X010847Y015221D01*
X010532Y015221D02*
X009847Y015221D01*
X010005Y015319D02*
X010374Y015319D01*
X010291Y015418D02*
X010088Y015418D01*
X010129Y015516D02*
X010250Y015516D01*
X010232Y015615D02*
X010147Y015615D01*
X010147Y015713D02*
X010232Y015713D01*
X010262Y015812D02*
X010118Y015812D01*
X010076Y015910D02*
X010303Y015910D01*
X010402Y016009D02*
X009978Y016009D01*
X009781Y016107D02*
X009599Y016107D01*
X009402Y016009D02*
X008978Y016009D01*
X009076Y015910D02*
X009303Y015910D01*
X009262Y015812D02*
X009118Y015812D01*
X009147Y015713D02*
X009232Y015713D01*
X009232Y015615D02*
X009147Y015615D01*
X009129Y015516D02*
X009250Y015516D01*
X009291Y015418D02*
X009088Y015418D01*
X009005Y015319D02*
X009374Y015319D01*
X009532Y015221D02*
X008847Y015221D01*
X008532Y015221D02*
X007847Y015221D01*
X008005Y015319D02*
X008374Y015319D01*
X008291Y015418D02*
X008088Y015418D01*
X008129Y015516D02*
X008250Y015516D01*
X008232Y015615D02*
X008147Y015615D01*
X008147Y015713D02*
X008232Y015713D01*
X008262Y015812D02*
X008118Y015812D01*
X008076Y015910D02*
X008303Y015910D01*
X008402Y016009D02*
X007978Y016009D01*
X007781Y016107D02*
X007599Y016107D01*
X007402Y016009D02*
X006978Y016009D01*
X007076Y015910D02*
X007303Y015910D01*
X007262Y015812D02*
X007118Y015812D01*
X007147Y015713D02*
X007232Y015713D01*
X007232Y015615D02*
X007147Y015615D01*
X007129Y015516D02*
X007250Y015516D01*
X007291Y015418D02*
X007088Y015418D01*
X007005Y015319D02*
X007374Y015319D01*
X007532Y015221D02*
X006847Y015221D01*
X006532Y015221D02*
X005847Y015221D01*
X006005Y015319D02*
X006374Y015319D01*
X006291Y015418D02*
X006088Y015418D01*
X006129Y015516D02*
X006250Y015516D01*
X006232Y015615D02*
X006147Y015615D01*
X006147Y015713D02*
X006232Y015713D01*
X006262Y015812D02*
X006118Y015812D01*
X006076Y015910D02*
X006303Y015910D01*
X006402Y016009D02*
X005978Y016009D01*
X005781Y016107D02*
X005599Y016107D01*
X005431Y016038D01*
X005302Y015909D01*
X005232Y015741D01*
X005232Y015559D01*
X005302Y015391D01*
X005431Y015262D01*
X005599Y015193D01*
X005374Y015319D02*
X005005Y015319D01*
X005088Y015418D02*
X005291Y015418D01*
X005250Y015516D02*
X005129Y015516D01*
X005147Y015615D02*
X005232Y015615D01*
X005232Y015713D02*
X005147Y015713D01*
X005118Y015812D02*
X005262Y015812D01*
X005303Y015910D02*
X005076Y015910D01*
X005000Y016009D02*
X005402Y016009D01*
X005598Y016107D02*
X005000Y016107D01*
X006599Y016107D02*
X006781Y016107D01*
X008599Y016107D02*
X008781Y016107D01*
X010599Y016107D02*
X010781Y016107D01*
X011960Y016055D02*
X011960Y016027D01*
X013599Y016107D02*
X013781Y016107D01*
X015599Y016107D02*
X015781Y016107D01*
X010393Y021032D02*
X009986Y021032D01*
X009947Y021229D02*
X010432Y021229D01*
X010333Y021328D02*
X010046Y021328D01*
X009432Y021229D02*
X008947Y021229D01*
X009046Y021328D02*
X009333Y021328D01*
X009393Y021032D02*
X008986Y021032D01*
X009100Y021919D02*
X009279Y021919D01*
X009378Y022017D02*
X009001Y022017D01*
X008903Y022116D02*
X009476Y022116D01*
X009447Y022214D02*
X008932Y022214D01*
X009031Y022313D02*
X009348Y022313D01*
X009250Y022411D02*
X009129Y022411D01*
X009115Y022904D02*
X009264Y022904D01*
X009363Y023002D02*
X009016Y023002D01*
X008918Y023101D02*
X009461Y023101D01*
X009491Y023170D02*
X009210Y023451D01*
X009210Y023600D01*
X009640Y023600D01*
X009740Y023600D01*
X009740Y023700D01*
X010170Y023700D01*
X010170Y023849D01*
X009888Y024130D01*
X009740Y024130D01*
X009740Y023700D01*
X009640Y023700D01*
X009640Y024130D01*
X009491Y024130D01*
X009210Y023849D01*
X009210Y023700D01*
X009640Y023700D01*
X009640Y023600D01*
X009640Y023170D01*
X009491Y023170D01*
X009462Y023199D02*
X008917Y023199D01*
X008888Y023170D02*
X009170Y023451D01*
X009170Y023600D01*
X008740Y023600D01*
X008740Y023170D01*
X008888Y023170D01*
X008740Y023199D02*
X008640Y023199D01*
X008640Y023298D02*
X008740Y023298D01*
X008740Y023396D02*
X008640Y023396D01*
X008640Y023495D02*
X008740Y023495D01*
X008740Y023593D02*
X008640Y023593D01*
X008640Y023692D02*
X007740Y023692D01*
X007740Y023790D02*
X007640Y023790D01*
X007640Y023889D02*
X007740Y023889D01*
X007740Y023987D02*
X007640Y023987D01*
X007640Y024086D02*
X007740Y024086D01*
X007933Y024086D02*
X008446Y024086D01*
X008348Y023987D02*
X008031Y023987D01*
X008130Y023889D02*
X008249Y023889D01*
X008210Y023790D02*
X008170Y023790D01*
X008170Y023593D02*
X008210Y023593D01*
X008210Y023495D02*
X008170Y023495D01*
X008114Y023396D02*
X008265Y023396D01*
X008363Y023298D02*
X008016Y023298D01*
X008640Y023790D02*
X008740Y023790D01*
X008740Y023692D02*
X009640Y023692D01*
X009640Y023790D02*
X009740Y023790D01*
X009740Y023692D02*
X010640Y023692D01*
X010640Y023600D02*
X010210Y023600D01*
X010210Y023451D01*
X010491Y023170D01*
X010640Y023170D01*
X010640Y023600D01*
X010640Y023593D02*
X010740Y023593D01*
X010740Y023495D02*
X010640Y023495D01*
X010640Y023396D02*
X010740Y023396D01*
X010740Y023298D02*
X010640Y023298D01*
X010640Y023199D02*
X010740Y023199D01*
X010462Y023199D02*
X009917Y023199D01*
X009888Y023170D02*
X010170Y023451D01*
X010170Y023600D01*
X009740Y023600D01*
X009740Y023170D01*
X009888Y023170D01*
X009918Y023101D02*
X010461Y023101D01*
X010363Y023002D02*
X010016Y023002D01*
X010115Y022904D02*
X010264Y022904D01*
X010363Y023298D02*
X010016Y023298D01*
X010114Y023396D02*
X010265Y023396D01*
X010210Y023495D02*
X010170Y023495D01*
X010170Y023593D02*
X010210Y023593D01*
X010210Y023790D02*
X010170Y023790D01*
X010130Y023889D02*
X010249Y023889D01*
X010348Y023987D02*
X010031Y023987D01*
X009933Y024086D02*
X010446Y024086D01*
X009740Y024086D02*
X009640Y024086D01*
X009640Y023987D02*
X009740Y023987D01*
X009740Y023889D02*
X009640Y023889D01*
X009446Y024086D02*
X008933Y024086D01*
X009031Y023987D02*
X009348Y023987D01*
X009249Y023889D02*
X009130Y023889D01*
X009170Y023790D02*
X009210Y023790D01*
X009210Y023593D02*
X009170Y023593D01*
X009170Y023495D02*
X009210Y023495D01*
X009265Y023396D02*
X009114Y023396D01*
X009016Y023298D02*
X009363Y023298D01*
X009640Y023298D02*
X009740Y023298D01*
X009740Y023396D02*
X009640Y023396D01*
X009640Y023495D02*
X009740Y023495D01*
X009740Y023593D02*
X009640Y023593D01*
X009640Y023199D02*
X009740Y023199D01*
X010129Y022411D02*
X010250Y022411D01*
X010348Y022313D02*
X010031Y022313D01*
X009932Y022214D02*
X010447Y022214D01*
X010476Y022116D02*
X009903Y022116D01*
X010001Y022017D02*
X010378Y022017D01*
X010279Y021919D02*
X010100Y021919D01*
X007476Y022116D02*
X006903Y022116D01*
X006932Y022214D02*
X007447Y022214D01*
X007348Y022313D02*
X007031Y022313D01*
X007129Y022411D02*
X007250Y022411D01*
X007378Y022017D02*
X007001Y022017D01*
X007100Y021919D02*
X007279Y021919D01*
X007333Y021328D02*
X007046Y021328D01*
X006947Y021229D02*
X007432Y021229D01*
X007393Y021032D02*
X006986Y021032D01*
X006393Y021032D02*
X005797Y021032D01*
X005714Y020934D02*
X006294Y020934D01*
X006962Y020244D02*
X007417Y020244D01*
X007215Y020047D02*
X007165Y020047D01*
X007170Y019949D02*
X007210Y019949D01*
X007210Y019850D02*
X007170Y019850D01*
X007170Y019752D02*
X007210Y019752D01*
X007210Y019653D02*
X007170Y019653D01*
X007170Y019555D02*
X007210Y019555D01*
X007210Y019456D02*
X007170Y019456D01*
X007170Y019358D02*
X007210Y019358D01*
X007210Y019259D02*
X007170Y019259D01*
X005099Y020900D02*
X005040Y020959D01*
X004980Y020900D01*
X005005Y020875D01*
X005074Y020875D01*
X005099Y020900D01*
X005065Y020934D02*
X005014Y020934D01*
X006264Y022904D02*
X001890Y022904D01*
X001890Y023002D02*
X006363Y023002D01*
X006461Y023101D02*
X001890Y023101D01*
X001890Y023199D02*
X006462Y023199D01*
X006363Y023298D02*
X001890Y023298D01*
X001890Y023396D02*
X006265Y023396D01*
X006210Y023495D02*
X001890Y023495D01*
X001890Y023593D02*
X006210Y023593D01*
X006640Y023593D02*
X006740Y023593D01*
X006740Y023495D02*
X006640Y023495D01*
X006640Y023396D02*
X006740Y023396D01*
X006740Y023298D02*
X006640Y023298D01*
X006640Y023199D02*
X006740Y023199D01*
X006917Y023199D02*
X007462Y023199D01*
X007461Y023101D02*
X006918Y023101D01*
X007016Y023002D02*
X007363Y023002D01*
X007264Y022904D02*
X007115Y022904D01*
X007016Y023298D02*
X007363Y023298D01*
X007265Y023396D02*
X007114Y023396D01*
X007170Y023495D02*
X007210Y023495D01*
X007210Y023593D02*
X007170Y023593D01*
X007170Y023790D02*
X007210Y023790D01*
X007249Y023889D02*
X007130Y023889D01*
X007031Y023987D02*
X007348Y023987D01*
X007446Y024086D02*
X006933Y024086D01*
X006740Y024086D02*
X006640Y024086D01*
X006640Y023987D02*
X006740Y023987D01*
X006740Y023889D02*
X006640Y023889D01*
X008640Y023889D02*
X008740Y023889D01*
X008740Y023987D02*
X008640Y023987D01*
X008640Y024086D02*
X008740Y024086D01*
X002523Y024677D02*
X035107Y024677D01*
X035351Y024578D02*
X002279Y024578D01*
X002143Y024480D02*
X035486Y024480D01*
X035567Y024381D02*
X002062Y024381D01*
X001991Y024283D02*
X035638Y024283D01*
X034240Y021426D02*
X034140Y021426D01*
X034140Y021328D02*
X034240Y021328D01*
X034240Y021229D02*
X034140Y021229D01*
X033797Y021130D02*
X033710Y021042D01*
X033710Y020258D01*
X033797Y020170D01*
X034582Y020170D01*
X034670Y020258D01*
X034670Y021042D01*
X034582Y021130D01*
X033797Y021130D01*
X033710Y021032D02*
X031470Y021032D01*
X031470Y020934D02*
X033710Y020934D01*
X033710Y020835D02*
X031470Y020835D01*
X031470Y020737D02*
X033710Y020737D01*
X033710Y020638D02*
X031470Y020638D01*
X031470Y020540D02*
X033710Y020540D01*
X033710Y020441D02*
X031470Y020441D01*
X031470Y020343D02*
X033710Y020343D01*
X033723Y020244D02*
X031456Y020244D01*
X031300Y020146D02*
X035740Y020146D01*
X035740Y020244D02*
X034656Y020244D01*
X034670Y020343D02*
X035740Y020343D01*
X035740Y020441D02*
X034670Y020441D01*
X034670Y020540D02*
X035740Y020540D01*
X035740Y020638D02*
X034670Y020638D01*
X034670Y020737D02*
X035740Y020737D01*
X035740Y020835D02*
X034670Y020835D01*
X034670Y020934D02*
X035740Y020934D01*
X035740Y021032D02*
X034670Y021032D01*
X035740Y020047D02*
X031465Y020047D01*
X031979Y019949D02*
X035740Y019949D01*
X035740Y019850D02*
X032128Y019850D01*
X032226Y019752D02*
X035740Y019752D01*
X035740Y019653D02*
X032325Y019653D01*
X032423Y019555D02*
X035740Y019555D01*
X035740Y019456D02*
X032522Y019456D01*
X032620Y019358D02*
X035740Y019358D01*
X035740Y019259D02*
X032719Y019259D01*
X032817Y019161D02*
X035740Y019161D01*
X035740Y019062D02*
X032916Y019062D01*
X033014Y018964D02*
X035740Y018964D01*
X035740Y018865D02*
X033113Y018865D01*
X033211Y018767D02*
X035740Y018767D01*
X035740Y018668D02*
X034023Y018668D01*
X034041Y018570D02*
X035740Y018570D01*
X035740Y018471D02*
X034041Y018471D01*
X034041Y018274D02*
X035740Y018274D01*
X035740Y018176D02*
X034039Y018176D01*
X033972Y018077D02*
X035740Y018077D01*
X035740Y017979D02*
X033963Y017979D01*
X034037Y017880D02*
X035740Y017880D01*
X035740Y017782D02*
X034041Y017782D01*
X033723Y017585D02*
X033626Y017585D01*
X033626Y017486D02*
X033723Y017486D01*
X033723Y017388D02*
X033626Y017388D01*
X033753Y017092D02*
X033300Y017092D01*
X033300Y017191D02*
X035740Y017191D01*
X035740Y017289D02*
X033300Y017289D01*
X033325Y016994D02*
X033654Y016994D01*
X033556Y016895D02*
X033423Y016895D01*
X033470Y016797D02*
X033510Y016797D01*
X034226Y017092D02*
X035740Y017092D01*
X035740Y016994D02*
X034325Y016994D01*
X034423Y016895D02*
X035740Y016895D01*
X035740Y016797D02*
X034470Y016797D01*
X033723Y018176D02*
X033626Y018176D01*
X033626Y018274D02*
X033723Y018274D01*
X033723Y018373D02*
X035740Y018373D01*
X033723Y018471D02*
X033626Y018471D01*
X033626Y018570D02*
X033723Y018570D01*
X033723Y018668D02*
X033626Y018668D01*
X032680Y017092D02*
X032226Y017092D01*
X032325Y016994D02*
X032654Y016994D01*
X032556Y016895D02*
X032423Y016895D01*
X032470Y016797D02*
X032510Y016797D01*
X032510Y016698D02*
X032470Y016698D01*
X032470Y016600D02*
X032510Y016600D01*
X032510Y016501D02*
X032470Y016501D01*
X032421Y016403D02*
X032558Y016403D01*
X032657Y016304D02*
X032322Y016304D01*
X033470Y015516D02*
X033510Y015516D01*
X033543Y015418D02*
X033436Y015418D01*
X033337Y015319D02*
X033642Y015319D01*
X033740Y015221D02*
X033239Y015221D01*
X033196Y015122D02*
X033783Y015122D01*
X033684Y015024D02*
X033295Y015024D01*
X033393Y014925D02*
X033586Y014925D01*
X033510Y014827D02*
X033470Y014827D01*
X033470Y014728D02*
X033510Y014728D01*
X034196Y015122D02*
X035740Y015122D01*
X035740Y015024D02*
X034295Y015024D01*
X034393Y014925D02*
X035740Y014925D01*
X035740Y014827D02*
X034470Y014827D01*
X034239Y015221D02*
X035740Y015221D01*
X035740Y015319D02*
X034337Y015319D01*
X034436Y015418D02*
X035740Y015418D01*
X035740Y015516D02*
X034470Y015516D01*
X034470Y013546D02*
X035740Y013546D01*
X035740Y013448D02*
X034466Y013448D01*
X034367Y013349D02*
X035740Y013349D01*
X035740Y013251D02*
X034269Y013251D01*
X030523Y020244D02*
X030262Y020244D01*
X030361Y020343D02*
X030510Y020343D01*
X030510Y020441D02*
X030459Y020441D01*
X030470Y020540D02*
X030510Y020540D01*
X030510Y020638D02*
X030470Y020638D01*
X030470Y020737D02*
X030510Y020737D01*
X030510Y020835D02*
X030470Y020835D01*
X030510Y020934D02*
X030385Y020934D01*
X030286Y021032D02*
X030510Y021032D01*
D21*
X029990Y020650D02*
X029390Y021350D01*
X027390Y021350D01*
X026790Y020650D01*
X026790Y020050D01*
X024690Y019650D02*
X024690Y017250D01*
X023690Y016250D01*
X023690Y015650D01*
X022690Y015650D02*
X022690Y016250D01*
X023690Y017250D01*
X023690Y019650D01*
X022690Y019650D02*
X022690Y017250D01*
X021690Y016250D01*
X021690Y015650D01*
X020690Y015650D02*
X020690Y016250D01*
X021690Y017250D01*
X021690Y019650D01*
X026840Y018300D02*
X028640Y018300D01*
X029990Y019650D01*
X029440Y016900D02*
X028690Y016150D01*
X028690Y015650D01*
X029690Y015650D02*
X029690Y016150D01*
X029940Y016400D01*
X031240Y016400D01*
X031990Y015650D01*
X031990Y014650D02*
X020690Y014650D01*
X019690Y015650D01*
X018690Y015650D02*
X020690Y013650D01*
X031990Y013650D01*
X031990Y012650D02*
X020690Y012650D01*
X014690Y006650D01*
X015690Y006650D02*
X020690Y011650D01*
X031990Y011650D01*
X031990Y010650D02*
X027690Y010650D01*
X026690Y009650D01*
X026690Y006650D01*
X025690Y006650D02*
X025690Y005900D01*
X026690Y004900D01*
X026690Y004485D01*
X026690Y003815D02*
X026690Y002650D01*
X025690Y002650D02*
X025690Y003815D01*
X025690Y004485D02*
X025690Y004900D01*
X024690Y005900D01*
X024690Y006650D01*
X021690Y006650D02*
X021690Y006150D01*
X020690Y005150D01*
X020690Y004485D01*
X020690Y003815D02*
X020690Y002650D01*
X019690Y002650D02*
X019690Y003815D01*
X019690Y004485D02*
X019690Y005150D01*
X020690Y006150D01*
X020690Y006650D01*
X017690Y006650D02*
X017690Y006250D01*
X016490Y005050D01*
X014990Y005050D01*
X014690Y004750D01*
X014690Y004485D01*
X014690Y003815D02*
X014690Y002650D01*
X013690Y002650D02*
X013690Y003815D01*
X013690Y004485D02*
X013690Y004800D01*
X014490Y005600D01*
X015890Y005600D01*
X016690Y006400D01*
X016690Y006650D01*
X013690Y006650D02*
X013690Y011900D01*
X012190Y013400D01*
X012190Y016150D01*
X011940Y016400D01*
X011940Y021400D01*
X010690Y022650D01*
X009690Y022650D01*
X008690Y022650D01*
X007690Y022650D01*
X006690Y022650D01*
X005790Y022650D01*
X004690Y021550D01*
X004690Y021235D01*
X005390Y021235D02*
X005674Y021235D01*
X006090Y021650D01*
X006690Y021650D01*
X007690Y021650D01*
X008690Y021650D01*
X009690Y021650D01*
X010690Y021650D01*
X011440Y020900D01*
X011440Y016400D01*
X011190Y016150D01*
X011190Y013400D01*
X012690Y011900D01*
X012690Y006650D01*
X010690Y006650D02*
X010690Y009900D01*
X009940Y010650D01*
X006940Y010650D01*
X006627Y010337D01*
X004077Y010337D01*
X003998Y010770D02*
X006110Y010770D01*
X007590Y012250D01*
X005890Y011650D02*
X005876Y011637D01*
X004234Y011637D01*
X004077Y011204D02*
X004986Y011204D01*
X005490Y011200D01*
X007190Y010150D02*
X008940Y010150D01*
X009690Y009400D01*
X009690Y006650D01*
X008690Y005650D02*
X007690Y006650D01*
X008690Y005650D02*
X008690Y002650D01*
X006511Y009471D02*
X004077Y009471D01*
X006511Y009471D02*
X007190Y010150D01*
X014690Y018050D02*
X016690Y016050D01*
X016690Y015650D01*
X017690Y015650D02*
X017690Y016050D01*
X015690Y018050D01*
X015690Y018150D01*
X015690Y018215D01*
X015690Y018885D02*
X015690Y019650D01*
X014690Y019650D02*
X014690Y018885D01*
X014690Y018215D02*
X014690Y018150D01*
X014690Y018050D01*
X029440Y016900D02*
X031740Y016900D01*
X031990Y016650D01*
D22*
X026840Y018300D03*
X026790Y020050D03*
X007590Y012250D03*
X005890Y011650D03*
X005490Y011200D03*
D23*
X004690Y015650D02*
X004690Y020565D01*
X005390Y020565D01*
X006605Y020565D01*
X006690Y020650D01*
X007690Y020650D01*
X008690Y020650D01*
X009690Y020650D01*
X010690Y020650D01*
X012690Y019650D02*
X012690Y018885D01*
X013690Y018885D02*
X013690Y019650D01*
X030990Y019650D02*
X031890Y019650D01*
X033005Y018535D01*
X033005Y018400D01*
X033005Y017650D01*
X032990Y017635D01*
X032990Y016650D01*
X030990Y019650D02*
X030990Y020650D01*
X032990Y005650D02*
X032905Y005565D01*
X032905Y004800D01*
X032905Y004100D01*
X032890Y004085D01*
X032890Y003050D01*
X031490Y001650D01*
X025690Y001650D01*
X024690Y002650D01*
X023690Y001650D01*
X019590Y001650D01*
X018690Y002550D01*
X018690Y002650D01*
X017690Y001650D01*
X013590Y001650D01*
X012690Y002550D01*
X012690Y002650D01*
X012690Y003815D01*
X011690Y003815D02*
X011690Y002650D01*
X017690Y002650D02*
X017690Y003815D01*
X018690Y003815D02*
X018690Y002650D01*
X023690Y002650D02*
X023690Y003815D01*
X024690Y003815D02*
X024690Y002650D01*
M02*
