G75*
G70*
%OFA0B0*%
%FSLAX24Y24*%
%IPPOS*%
%LPD*%
%AMOC8*
5,1,8,0,0,1.08239X$1,22.5*
%
%ADD10R,0.0513X0.0474*%
%ADD11R,0.0740X0.0740*%
%ADD12OC8,0.0740*%
%ADD13R,0.0631X0.0789*%
%ADD14R,0.0828X0.0631*%
%ADD15R,0.0671X0.0395*%
%ADD16R,0.0694X0.0694*%
%ADD17C,0.0694*%
%ADD18R,0.0474X0.0513*%
%ADD19C,0.1661*%
D10*
X013690Y003815D03*
X013690Y004485D03*
X014690Y004485D03*
X014690Y003815D03*
X019690Y003815D03*
X019690Y004485D03*
X020690Y004485D03*
X020690Y003815D03*
X025690Y003815D03*
X025690Y004485D03*
X026690Y004485D03*
X026690Y003815D03*
X032905Y004100D03*
X033574Y004100D03*
X033574Y004800D03*
X032905Y004800D03*
X033005Y017650D03*
X033674Y017650D03*
X033674Y018400D03*
X033005Y018400D03*
X015690Y018215D03*
X015690Y018885D03*
X014690Y018885D03*
X014690Y018215D03*
X005390Y020565D03*
X005390Y021235D03*
X004690Y021235D03*
X004690Y020565D03*
D11*
X006690Y019650D03*
X007690Y019650D03*
X008690Y019650D03*
X009690Y019650D03*
X010690Y019650D03*
X012690Y019650D03*
X030990Y019650D03*
X030990Y020650D03*
X034190Y020650D03*
X023690Y002650D03*
X017690Y002650D03*
X011690Y002650D03*
X008690Y002650D03*
X005690Y002650D03*
D12*
X006690Y002650D03*
X009690Y002650D03*
X012690Y002650D03*
X013690Y002650D03*
X014690Y002650D03*
X015690Y002650D03*
X018690Y002650D03*
X019690Y002650D03*
X020690Y002650D03*
X021690Y002650D03*
X024690Y002650D03*
X025690Y002650D03*
X026690Y002650D03*
X027690Y002650D03*
X031990Y005650D03*
X032990Y005650D03*
X033990Y005650D03*
X033990Y006650D03*
X032990Y006650D03*
X031990Y006650D03*
X031990Y007650D03*
X032990Y007650D03*
X033990Y007650D03*
X033990Y008650D03*
X032990Y008650D03*
X031990Y008650D03*
X031990Y010650D03*
X032990Y010650D03*
X033990Y010650D03*
X033990Y011650D03*
X032990Y011650D03*
X031990Y011650D03*
X031990Y012650D03*
X032990Y012650D03*
X033990Y012650D03*
X033990Y013650D03*
X032990Y013650D03*
X031990Y013650D03*
X031990Y014650D03*
X032990Y014650D03*
X033990Y014650D03*
X033990Y015650D03*
X032990Y015650D03*
X031990Y015650D03*
X031990Y016650D03*
X032990Y016650D03*
X033990Y016650D03*
X029990Y019650D03*
X028990Y019650D03*
X027990Y019650D03*
X027990Y020650D03*
X028990Y020650D03*
X029990Y020650D03*
X034190Y021650D03*
X024690Y021650D03*
X023690Y021650D03*
X022690Y021650D03*
X021690Y021650D03*
X021690Y020650D03*
X022690Y020650D03*
X023690Y020650D03*
X024690Y020650D03*
X024690Y019650D03*
X023690Y019650D03*
X022690Y019650D03*
X021690Y019650D03*
X016690Y019650D03*
X015690Y019650D03*
X014690Y019650D03*
X013690Y019650D03*
X010690Y020650D03*
X009690Y020650D03*
X008690Y020650D03*
X007690Y020650D03*
X006690Y020650D03*
X006690Y021650D03*
X007690Y021650D03*
X008690Y021650D03*
X009690Y021650D03*
X010690Y021650D03*
X010690Y022650D03*
X009690Y022650D03*
X008690Y022650D03*
X007690Y022650D03*
X006690Y022650D03*
X006690Y023650D03*
X007690Y023650D03*
X008690Y023650D03*
X009690Y023650D03*
X010690Y023650D03*
D13*
X008132Y011601D03*
X008132Y009357D03*
D14*
X002955Y008727D03*
X002561Y013904D03*
D15*
X004077Y012070D03*
X004234Y011637D03*
X004077Y011204D03*
X003998Y010770D03*
X004077Y010337D03*
X003998Y009904D03*
X004077Y009471D03*
X004077Y009038D03*
D16*
X004690Y006650D03*
D17*
X005690Y006650D03*
X006690Y006650D03*
X007690Y006650D03*
X008690Y006650D03*
X009690Y006650D03*
X010690Y006650D03*
X011690Y006650D03*
X012690Y006650D03*
X013690Y006650D03*
X014690Y006650D03*
X015690Y006650D03*
X016690Y006650D03*
X017690Y006650D03*
X018690Y006650D03*
X019690Y006650D03*
X020690Y006650D03*
X021690Y006650D03*
X022690Y006650D03*
X023690Y006650D03*
X024690Y006650D03*
X025690Y006650D03*
X026690Y006650D03*
X027690Y006650D03*
X028690Y006650D03*
X029690Y006650D03*
X030690Y006650D03*
X030690Y015650D03*
X029690Y015650D03*
X028690Y015650D03*
X027690Y015650D03*
X026690Y015650D03*
X025690Y015650D03*
X024690Y015650D03*
X023690Y015650D03*
X022690Y015650D03*
X021690Y015650D03*
X020690Y015650D03*
X019690Y015650D03*
X018690Y015650D03*
X017690Y015650D03*
X016690Y015650D03*
X015690Y015650D03*
X014690Y015650D03*
X013690Y015650D03*
X012690Y015650D03*
X011690Y015650D03*
X010690Y015650D03*
X009690Y015650D03*
X008690Y015650D03*
X007690Y015650D03*
X006690Y015650D03*
X005690Y015650D03*
X004690Y015650D03*
D18*
X012690Y018215D03*
X013690Y018215D03*
X013690Y018885D03*
X012690Y018885D03*
X012690Y004485D03*
X012690Y003815D03*
X011690Y003815D03*
X011690Y004485D03*
X017690Y004485D03*
X017690Y003815D03*
X018690Y003815D03*
X018690Y004485D03*
X023690Y004485D03*
X023690Y003815D03*
X024690Y003815D03*
X024690Y004485D03*
D19*
X002940Y001400D03*
X034690Y001400D03*
X034690Y023650D03*
X002940Y023650D03*
M02*
