G75*
G70*
%OFA0B0*%
%FSLAX24Y24*%
%IPPOS*%
%LPD*%
%AMOC8*
5,1,8,0,0,1.08239X$1,22.5*
%
%ADD10R,0.0394X0.0433*%
%ADD11C,0.0740*%
%ADD12R,0.0236X0.0866*%
%ADD13C,0.0480*%
%ADD14R,0.0433X0.0394*%
%ADD15R,0.0472X0.0709*%
%ADD16C,0.0120*%
%ADD17C,0.0337*%
D10*
X001277Y007061D03*
X001946Y007061D03*
D11*
X002961Y007161D03*
X003961Y007161D03*
X004961Y007161D03*
X005961Y007161D03*
X006961Y007161D03*
X007961Y007161D03*
X007961Y008161D03*
X006961Y008161D03*
X005961Y008161D03*
X004961Y008161D03*
X003961Y008161D03*
X002961Y008161D03*
X002961Y006161D03*
X003961Y006161D03*
X004961Y006161D03*
X005961Y006161D03*
X006961Y006161D03*
X007961Y006161D03*
D12*
X002961Y004785D03*
X002461Y004785D03*
X001961Y004785D03*
X001461Y004785D03*
X001461Y002738D03*
X001961Y002738D03*
X002461Y002738D03*
X002961Y002738D03*
D13*
X009171Y003061D02*
X009651Y003061D01*
X009651Y004061D02*
X009171Y004061D01*
X009171Y005061D02*
X009651Y005061D01*
D14*
X009061Y006127D03*
X009061Y006796D03*
D15*
X006957Y003839D03*
X006091Y003839D03*
X005225Y003839D03*
X003965Y003839D03*
X003965Y001083D03*
X005225Y001083D03*
X006091Y001083D03*
X006957Y001083D03*
D16*
X002461Y001661D02*
X001961Y002161D01*
X001961Y002738D01*
X001961Y003761D01*
X001861Y003861D01*
X001261Y003861D01*
X000796Y004327D01*
X001461Y004785D02*
X001461Y004861D01*
X001461Y004785D02*
X001461Y005561D01*
X001277Y005746D01*
X001277Y006161D01*
X000761Y006161D01*
X001277Y006161D02*
X001277Y006330D01*
X001277Y007061D01*
X001946Y007061D02*
X001961Y007046D01*
X001961Y005796D01*
X001961Y004785D01*
X001961Y004461D01*
X001961Y004361D01*
X002461Y003861D01*
X002961Y003761D02*
X002961Y003461D01*
X002961Y002738D01*
X002461Y002738D02*
X002461Y002261D01*
X002661Y002061D01*
X003161Y002061D01*
X003561Y002461D01*
X004261Y002161D02*
X004261Y002761D01*
X004661Y002861D02*
X004661Y001961D01*
X004261Y002161D02*
X003761Y001661D01*
X003361Y001661D01*
X002461Y001661D01*
X003155Y001083D02*
X003965Y001083D01*
X005225Y001083D02*
X005225Y002697D01*
X004561Y003361D01*
X004561Y004561D01*
X002961Y006161D01*
X002461Y005709D02*
X002461Y004785D01*
X002961Y004785D01*
X003461Y004561D02*
X003461Y004261D01*
X002961Y003761D01*
X003965Y003839D02*
X003965Y003557D01*
X004661Y002861D01*
X005661Y002861D02*
X005661Y005561D01*
X004961Y006161D01*
X003961Y006161D02*
X005225Y004897D01*
X005225Y003839D01*
X006091Y003839D02*
X006091Y006031D01*
X005961Y006161D01*
X006957Y006157D02*
X006961Y006161D01*
X006957Y006157D02*
X006957Y003839D01*
X008211Y004511D02*
X008261Y004461D01*
X008427Y004296D01*
X008427Y002427D01*
X007961Y002361D02*
X007961Y006161D01*
X008561Y006161D02*
X008561Y005861D01*
X008211Y005511D01*
X008211Y004511D01*
X008461Y004761D02*
X008461Y005227D01*
X008461Y005261D01*
X009061Y005861D01*
X009061Y006127D01*
X008561Y006161D02*
X008561Y006561D01*
X009061Y006796D02*
X009061Y007061D01*
X007961Y008161D01*
X008461Y004761D02*
X009161Y004061D01*
X009411Y004061D01*
X007961Y002361D02*
X006957Y001357D01*
X006957Y001083D01*
X006091Y001083D02*
X006091Y002431D01*
X005661Y002861D01*
X001461Y002738D02*
X001461Y003461D01*
D17*
X001461Y003461D03*
X002461Y003861D03*
X002961Y003461D03*
X003561Y002461D03*
X004261Y002761D03*
X004661Y001961D03*
X003155Y001083D03*
X000796Y004327D03*
X002461Y005709D03*
X003461Y004561D03*
X000761Y006161D03*
X008427Y002427D03*
X008561Y006561D03*
M02*
