%
M48
M72
T01C0.0197
T02C0.0320
T03C0.0400
T04C0.1260
%
T01
X3155Y1083
X3561Y2461
X4261Y2761
X4661Y1961
X2961Y3461
X2461Y3861
X1461Y3461
X796Y4327
X2461Y5709
X3461Y4561
X761Y6161
X8427Y2427
X8561Y6561
T02
X9411Y5061
X9411Y4061
X9411Y3061
T03
X7961Y6161
X6961Y6161
X5961Y6161
X4961Y6161
X3961Y6161
X2961Y6161
X2961Y7161
X3961Y7161
X4961Y7161
X5961Y7161
X6961Y7161
X7961Y7161
X7961Y8161
X6961Y8161
X5961Y8161
X4961Y8161
X3961Y8161
X2961Y8161
T04
X1261Y1261
X1261Y8261
X9661Y8261
X9661Y1261
M30
