G75*
G70*
%OFA0B0*%
%FSLAX24Y24*%
%IPPOS*%
%LPD*%
%AMOC8*
5,1,8,0,0,1.08239X$1,22.5*
%
%ADD10C,0.0000*%
D10*
X000161Y000161D02*
X000161Y009357D01*
X010756Y009357D01*
X010756Y000161D01*
X000161Y000161D01*
X000631Y001261D02*
X000633Y001311D01*
X000639Y001361D01*
X000649Y001410D01*
X000663Y001458D01*
X000680Y001505D01*
X000701Y001550D01*
X000726Y001594D01*
X000754Y001635D01*
X000786Y001674D01*
X000820Y001711D01*
X000857Y001745D01*
X000897Y001775D01*
X000939Y001802D01*
X000983Y001826D01*
X001029Y001847D01*
X001076Y001863D01*
X001124Y001876D01*
X001174Y001885D01*
X001223Y001890D01*
X001274Y001891D01*
X001324Y001888D01*
X001373Y001881D01*
X001422Y001870D01*
X001470Y001855D01*
X001516Y001837D01*
X001561Y001815D01*
X001604Y001789D01*
X001645Y001760D01*
X001684Y001728D01*
X001720Y001693D01*
X001752Y001655D01*
X001782Y001615D01*
X001809Y001572D01*
X001832Y001528D01*
X001851Y001482D01*
X001867Y001434D01*
X001879Y001385D01*
X001887Y001336D01*
X001891Y001286D01*
X001891Y001236D01*
X001887Y001186D01*
X001879Y001137D01*
X001867Y001088D01*
X001851Y001040D01*
X001832Y000994D01*
X001809Y000950D01*
X001782Y000907D01*
X001752Y000867D01*
X001720Y000829D01*
X001684Y000794D01*
X001645Y000762D01*
X001604Y000733D01*
X001561Y000707D01*
X001516Y000685D01*
X001470Y000667D01*
X001422Y000652D01*
X001373Y000641D01*
X001324Y000634D01*
X001274Y000631D01*
X001223Y000632D01*
X001174Y000637D01*
X001124Y000646D01*
X001076Y000659D01*
X001029Y000675D01*
X000983Y000696D01*
X000939Y000720D01*
X000897Y000747D01*
X000857Y000777D01*
X000820Y000811D01*
X000786Y000848D01*
X000754Y000887D01*
X000726Y000928D01*
X000701Y000972D01*
X000680Y001017D01*
X000663Y001064D01*
X000649Y001112D01*
X000639Y001161D01*
X000633Y001211D01*
X000631Y001261D01*
X000631Y008261D02*
X000633Y008311D01*
X000639Y008361D01*
X000649Y008410D01*
X000663Y008458D01*
X000680Y008505D01*
X000701Y008550D01*
X000726Y008594D01*
X000754Y008635D01*
X000786Y008674D01*
X000820Y008711D01*
X000857Y008745D01*
X000897Y008775D01*
X000939Y008802D01*
X000983Y008826D01*
X001029Y008847D01*
X001076Y008863D01*
X001124Y008876D01*
X001174Y008885D01*
X001223Y008890D01*
X001274Y008891D01*
X001324Y008888D01*
X001373Y008881D01*
X001422Y008870D01*
X001470Y008855D01*
X001516Y008837D01*
X001561Y008815D01*
X001604Y008789D01*
X001645Y008760D01*
X001684Y008728D01*
X001720Y008693D01*
X001752Y008655D01*
X001782Y008615D01*
X001809Y008572D01*
X001832Y008528D01*
X001851Y008482D01*
X001867Y008434D01*
X001879Y008385D01*
X001887Y008336D01*
X001891Y008286D01*
X001891Y008236D01*
X001887Y008186D01*
X001879Y008137D01*
X001867Y008088D01*
X001851Y008040D01*
X001832Y007994D01*
X001809Y007950D01*
X001782Y007907D01*
X001752Y007867D01*
X001720Y007829D01*
X001684Y007794D01*
X001645Y007762D01*
X001604Y007733D01*
X001561Y007707D01*
X001516Y007685D01*
X001470Y007667D01*
X001422Y007652D01*
X001373Y007641D01*
X001324Y007634D01*
X001274Y007631D01*
X001223Y007632D01*
X001174Y007637D01*
X001124Y007646D01*
X001076Y007659D01*
X001029Y007675D01*
X000983Y007696D01*
X000939Y007720D01*
X000897Y007747D01*
X000857Y007777D01*
X000820Y007811D01*
X000786Y007848D01*
X000754Y007887D01*
X000726Y007928D01*
X000701Y007972D01*
X000680Y008017D01*
X000663Y008064D01*
X000649Y008112D01*
X000639Y008161D01*
X000633Y008211D01*
X000631Y008261D01*
X009031Y008261D02*
X009033Y008311D01*
X009039Y008361D01*
X009049Y008410D01*
X009063Y008458D01*
X009080Y008505D01*
X009101Y008550D01*
X009126Y008594D01*
X009154Y008635D01*
X009186Y008674D01*
X009220Y008711D01*
X009257Y008745D01*
X009297Y008775D01*
X009339Y008802D01*
X009383Y008826D01*
X009429Y008847D01*
X009476Y008863D01*
X009524Y008876D01*
X009574Y008885D01*
X009623Y008890D01*
X009674Y008891D01*
X009724Y008888D01*
X009773Y008881D01*
X009822Y008870D01*
X009870Y008855D01*
X009916Y008837D01*
X009961Y008815D01*
X010004Y008789D01*
X010045Y008760D01*
X010084Y008728D01*
X010120Y008693D01*
X010152Y008655D01*
X010182Y008615D01*
X010209Y008572D01*
X010232Y008528D01*
X010251Y008482D01*
X010267Y008434D01*
X010279Y008385D01*
X010287Y008336D01*
X010291Y008286D01*
X010291Y008236D01*
X010287Y008186D01*
X010279Y008137D01*
X010267Y008088D01*
X010251Y008040D01*
X010232Y007994D01*
X010209Y007950D01*
X010182Y007907D01*
X010152Y007867D01*
X010120Y007829D01*
X010084Y007794D01*
X010045Y007762D01*
X010004Y007733D01*
X009961Y007707D01*
X009916Y007685D01*
X009870Y007667D01*
X009822Y007652D01*
X009773Y007641D01*
X009724Y007634D01*
X009674Y007631D01*
X009623Y007632D01*
X009574Y007637D01*
X009524Y007646D01*
X009476Y007659D01*
X009429Y007675D01*
X009383Y007696D01*
X009339Y007720D01*
X009297Y007747D01*
X009257Y007777D01*
X009220Y007811D01*
X009186Y007848D01*
X009154Y007887D01*
X009126Y007928D01*
X009101Y007972D01*
X009080Y008017D01*
X009063Y008064D01*
X009049Y008112D01*
X009039Y008161D01*
X009033Y008211D01*
X009031Y008261D01*
X009031Y001261D02*
X009033Y001311D01*
X009039Y001361D01*
X009049Y001410D01*
X009063Y001458D01*
X009080Y001505D01*
X009101Y001550D01*
X009126Y001594D01*
X009154Y001635D01*
X009186Y001674D01*
X009220Y001711D01*
X009257Y001745D01*
X009297Y001775D01*
X009339Y001802D01*
X009383Y001826D01*
X009429Y001847D01*
X009476Y001863D01*
X009524Y001876D01*
X009574Y001885D01*
X009623Y001890D01*
X009674Y001891D01*
X009724Y001888D01*
X009773Y001881D01*
X009822Y001870D01*
X009870Y001855D01*
X009916Y001837D01*
X009961Y001815D01*
X010004Y001789D01*
X010045Y001760D01*
X010084Y001728D01*
X010120Y001693D01*
X010152Y001655D01*
X010182Y001615D01*
X010209Y001572D01*
X010232Y001528D01*
X010251Y001482D01*
X010267Y001434D01*
X010279Y001385D01*
X010287Y001336D01*
X010291Y001286D01*
X010291Y001236D01*
X010287Y001186D01*
X010279Y001137D01*
X010267Y001088D01*
X010251Y001040D01*
X010232Y000994D01*
X010209Y000950D01*
X010182Y000907D01*
X010152Y000867D01*
X010120Y000829D01*
X010084Y000794D01*
X010045Y000762D01*
X010004Y000733D01*
X009961Y000707D01*
X009916Y000685D01*
X009870Y000667D01*
X009822Y000652D01*
X009773Y000641D01*
X009724Y000634D01*
X009674Y000631D01*
X009623Y000632D01*
X009574Y000637D01*
X009524Y000646D01*
X009476Y000659D01*
X009429Y000675D01*
X009383Y000696D01*
X009339Y000720D01*
X009297Y000747D01*
X009257Y000777D01*
X009220Y000811D01*
X009186Y000848D01*
X009154Y000887D01*
X009126Y000928D01*
X009101Y000972D01*
X009080Y001017D01*
X009063Y001064D01*
X009049Y001112D01*
X009039Y001161D01*
X009033Y001211D01*
X009031Y001261D01*
M02*
