G75*
G70*
%OFA0B0*%
%FSLAX24Y24*%
%IPPOS*%
%LPD*%
%AMOC8*
5,1,8,0,0,1.08239X$1,22.5*
%
%ADD10C,0.0080*%
D10*
X002251Y001651D02*
X002391Y001651D01*
X002321Y001651D02*
X002321Y002072D01*
X002251Y002072D02*
X002391Y002072D01*
X002558Y002002D02*
X002558Y001721D01*
X002628Y001651D01*
X002768Y001651D01*
X002838Y001721D01*
X003019Y001651D02*
X003299Y001651D01*
X003159Y001651D02*
X003159Y002072D01*
X003019Y001931D01*
X002838Y002002D02*
X002768Y002072D01*
X002628Y002072D01*
X002558Y002002D01*
X003493Y001162D02*
X003690Y001162D01*
X003493Y001162D02*
X003493Y003760D01*
X003690Y003760D01*
X004241Y003760D02*
X004949Y003760D01*
X005501Y003760D02*
X005816Y003760D01*
X006367Y003760D02*
X006682Y003760D01*
X007272Y003760D02*
X007430Y003760D01*
X007430Y001162D01*
X007272Y001162D01*
X007701Y001251D02*
X007701Y001672D01*
X007771Y001461D02*
X007981Y001251D01*
X008162Y001251D02*
X008442Y001251D01*
X008302Y001251D02*
X008302Y001672D01*
X008162Y001531D01*
X007981Y001672D02*
X007701Y001391D01*
X006682Y001162D02*
X006367Y001162D01*
X005816Y001162D02*
X005501Y001162D01*
X004949Y001162D02*
X004280Y001162D01*
X004142Y005001D02*
X003862Y005422D01*
X003681Y005352D02*
X003681Y005211D01*
X003611Y005141D01*
X003401Y005141D01*
X003401Y005001D02*
X003401Y005422D01*
X003611Y005422D01*
X003681Y005352D01*
X003541Y005141D02*
X003681Y005001D01*
X003862Y005001D02*
X004142Y005422D01*
X004211Y005661D02*
X003711Y005661D01*
X003461Y005911D01*
X003211Y005661D01*
X002711Y005661D01*
X002461Y005911D01*
X002461Y006411D01*
X002711Y006661D01*
X002461Y006911D01*
X002461Y007411D01*
X002711Y007661D01*
X002461Y007911D01*
X002461Y008411D01*
X002711Y008661D01*
X003211Y008661D01*
X003461Y008411D01*
X003461Y007911D01*
X003211Y007661D01*
X003461Y007411D01*
X003461Y006911D01*
X003211Y006661D01*
X003461Y006411D01*
X003461Y005911D01*
X003461Y006411D01*
X003711Y006661D01*
X003461Y006911D01*
X003461Y007411D01*
X003711Y007661D01*
X003461Y007911D01*
X003461Y008411D01*
X003711Y008661D01*
X004211Y008661D01*
X004461Y008411D01*
X004461Y007911D01*
X004711Y007661D01*
X004461Y007411D01*
X004461Y006911D01*
X004711Y006661D01*
X004461Y006411D01*
X004461Y005911D01*
X004711Y005661D01*
X005211Y005661D01*
X005461Y005911D01*
X005461Y006411D01*
X005211Y006661D01*
X005461Y006911D01*
X005461Y007411D01*
X005211Y007661D01*
X005461Y007911D01*
X005461Y008411D01*
X005211Y008661D01*
X004711Y008661D01*
X004461Y008411D01*
X004461Y007911D01*
X004211Y007661D01*
X004461Y007411D01*
X004461Y006911D01*
X004211Y006661D01*
X004461Y006411D01*
X004461Y005911D01*
X004211Y005661D01*
X004801Y005352D02*
X004801Y005071D01*
X004871Y005001D01*
X005011Y005001D01*
X005081Y005071D01*
X005262Y005001D02*
X005262Y005281D01*
X005402Y005422D01*
X005542Y005281D01*
X005542Y005001D01*
X005722Y005001D02*
X005722Y005422D01*
X005932Y005422D01*
X006002Y005352D01*
X006002Y005211D01*
X005932Y005141D01*
X005722Y005141D01*
X005862Y005141D02*
X006002Y005001D01*
X005542Y005211D02*
X005262Y005211D01*
X005081Y005352D02*
X005011Y005422D01*
X004871Y005422D01*
X004801Y005352D01*
X005461Y005911D02*
X005461Y006411D01*
X005711Y006661D01*
X005461Y006911D01*
X005461Y007411D01*
X005711Y007661D01*
X005461Y007911D01*
X005461Y008411D01*
X005711Y008661D01*
X006211Y008661D01*
X006461Y008411D01*
X006461Y007911D01*
X006211Y007661D01*
X006461Y007411D01*
X006461Y006911D01*
X006211Y006661D01*
X006461Y006411D01*
X006461Y005911D01*
X006211Y005661D01*
X005711Y005661D01*
X005461Y005911D01*
X006461Y005911D02*
X006461Y006411D01*
X006711Y006661D01*
X006461Y006911D01*
X006461Y007411D01*
X006711Y007661D01*
X006461Y007911D01*
X006461Y008411D01*
X006711Y008661D01*
X007211Y008661D01*
X007461Y008411D01*
X007461Y007911D01*
X007711Y007661D01*
X007461Y007411D01*
X007461Y006911D01*
X007711Y006661D01*
X007461Y006411D01*
X007461Y005911D01*
X007711Y005661D01*
X008211Y005661D01*
X008461Y005911D01*
X008461Y006411D01*
X008211Y006661D01*
X008461Y006911D01*
X008461Y007411D01*
X008211Y007661D01*
X008461Y007911D01*
X008461Y008411D01*
X008211Y008661D01*
X007711Y008661D01*
X007461Y008411D01*
X007461Y007911D01*
X007211Y007661D01*
X007461Y007411D01*
X007461Y006911D01*
X007211Y006661D01*
X007461Y006411D01*
X007461Y005911D01*
X007211Y005661D01*
X006711Y005661D01*
X006461Y005911D01*
X006901Y005422D02*
X007041Y005281D01*
X007181Y005422D01*
X007181Y005001D01*
X007362Y005071D02*
X007432Y005001D01*
X007572Y005001D01*
X007642Y005071D01*
X007822Y005071D02*
X007892Y005001D01*
X008032Y005001D01*
X008102Y005071D01*
X008102Y005422D01*
X007822Y005422D02*
X007822Y005071D01*
X007642Y005352D02*
X007572Y005422D01*
X007432Y005422D01*
X007362Y005352D01*
X007362Y005071D01*
X006901Y005001D02*
X006901Y005422D01*
X008461Y006161D02*
X008861Y005761D01*
X009561Y005761D01*
X009751Y005790D02*
X009805Y005736D01*
X009911Y005736D01*
X009965Y005683D01*
X009965Y005630D01*
X009911Y005576D01*
X009805Y005576D01*
X009751Y005630D01*
X009751Y005790D02*
X009751Y005843D01*
X009805Y005896D01*
X009911Y005896D01*
X009965Y005843D01*
X010120Y005896D02*
X010226Y005896D01*
X010173Y005896D02*
X010173Y005576D01*
X010120Y005576D02*
X010226Y005576D01*
X010365Y005630D02*
X010418Y005576D01*
X010525Y005576D01*
X010579Y005630D01*
X010579Y005736D01*
X010472Y005736D01*
X010365Y005630D02*
X010365Y005843D01*
X010418Y005896D01*
X010525Y005896D01*
X010579Y005843D01*
X009771Y006315D02*
X009451Y006315D01*
X009451Y006475D01*
X009504Y006528D01*
X009611Y006528D01*
X009665Y006475D01*
X009665Y006315D01*
X009665Y006421D02*
X009771Y006528D01*
X009718Y006683D02*
X009771Y006736D01*
X009771Y006843D01*
X009718Y006896D01*
X009504Y006896D01*
X009451Y006843D01*
X009451Y006736D01*
X009504Y006683D01*
X009558Y006683D01*
X009611Y006736D01*
X009611Y006896D01*
X009711Y005061D02*
X009911Y005061D01*
X009911Y004811D01*
X010211Y004811D01*
X009911Y004311D01*
X009611Y004811D01*
X009911Y004811D01*
X009911Y004311D02*
X009611Y004311D01*
X009711Y004061D02*
X009911Y004061D01*
X009911Y004311D01*
X010211Y004311D01*
X009911Y004061D02*
X009911Y003811D01*
X010211Y003311D01*
X009911Y003311D01*
X009911Y003061D01*
X009711Y003061D01*
X009611Y003311D02*
X009911Y003811D01*
X009611Y003811D01*
X009911Y003811D02*
X010211Y003811D01*
X009911Y003311D02*
X009611Y003311D01*
X009241Y003591D02*
X008941Y003891D01*
X009091Y003841D01*
X008991Y003741D01*
X008941Y003891D01*
X008991Y003791D02*
X009041Y003841D01*
X008941Y003591D02*
X008791Y003641D01*
X008841Y003491D01*
X008941Y003591D01*
X008891Y003591D02*
X008841Y003541D01*
X008791Y003641D02*
X009091Y003341D01*
X009031Y004331D02*
X009181Y004381D01*
X009081Y004481D01*
X009031Y004331D01*
X009331Y004631D01*
X009081Y004781D02*
X008781Y004481D01*
X008831Y004631D01*
X008931Y004531D01*
X008781Y004481D01*
X008811Y004561D02*
X008831Y004581D01*
X009081Y004431D02*
X009131Y004381D01*
X007826Y008833D02*
X007826Y009046D01*
X007826Y008940D02*
X008146Y008940D01*
X007121Y008993D02*
X007121Y008886D01*
X007068Y008833D01*
X006961Y008886D02*
X006961Y008993D01*
X007015Y009046D01*
X007068Y009046D01*
X007121Y008993D01*
X006961Y008886D02*
X006908Y008833D01*
X006854Y008833D01*
X006801Y008886D01*
X006801Y008993D01*
X006854Y009046D01*
X006071Y008993D02*
X006071Y008886D01*
X006018Y008833D01*
X005911Y008886D02*
X005911Y008993D01*
X005965Y009046D01*
X006018Y009046D01*
X006071Y008993D01*
X005911Y008886D02*
X005858Y008833D01*
X005804Y008833D01*
X005751Y008886D01*
X005751Y008993D01*
X005804Y009046D01*
X005071Y008940D02*
X004751Y008940D01*
X004751Y009046D02*
X004751Y008833D01*
X004071Y008886D02*
X004018Y008833D01*
X004071Y008886D02*
X004071Y008993D01*
X004018Y009046D01*
X003965Y009046D01*
X003911Y008993D01*
X003911Y008886D01*
X003858Y008833D01*
X003804Y008833D01*
X003751Y008886D01*
X003751Y008993D01*
X003804Y009046D01*
X003071Y008940D02*
X002751Y008940D01*
X002751Y009046D02*
X002751Y008833D01*
X001840Y006671D02*
X001840Y006351D01*
X001946Y006351D02*
X001733Y006351D01*
X001578Y006351D02*
X001471Y006458D01*
X001525Y006458D02*
X001365Y006458D01*
X001365Y006351D02*
X001365Y006671D01*
X001525Y006671D01*
X001578Y006618D01*
X001578Y006511D01*
X001525Y006458D01*
X001733Y006565D02*
X001840Y006671D01*
M02*
