G75*
G70*
%OFA0B0*%
%FSLAX24Y24*%
%IPPOS*%
%LPD*%
%AMOC8*
5,1,8,0,0,1.08239X$1,22.5*
%
%ADD10C,0.0080*%
%ADD11C,0.0060*%
D10*
X001939Y000552D02*
X001939Y000792D01*
X002020Y000712D01*
X002100Y000792D01*
X002100Y000552D01*
X002234Y000592D02*
X002234Y000752D01*
X002274Y000792D01*
X002354Y000792D01*
X002394Y000752D01*
X002394Y000592D01*
X002354Y000552D01*
X002274Y000552D01*
X002234Y000592D01*
X002529Y000592D02*
X002569Y000552D01*
X002649Y000552D01*
X002689Y000592D01*
X002689Y000752D01*
X002649Y000792D01*
X002569Y000792D01*
X002529Y000752D01*
X002796Y000592D02*
X002796Y000552D01*
X002836Y000552D01*
X002836Y000592D01*
X002796Y000592D01*
X002971Y000592D02*
X003011Y000552D01*
X003091Y000552D01*
X003131Y000592D01*
X003091Y000672D02*
X003011Y000672D01*
X002971Y000632D01*
X002971Y000592D01*
X003091Y000672D02*
X003131Y000712D01*
X003131Y000752D01*
X003091Y000792D01*
X003011Y000792D01*
X002971Y000752D01*
X003265Y000792D02*
X003426Y000792D01*
X003345Y000792D02*
X003345Y000552D01*
X003560Y000552D02*
X003560Y000792D01*
X003560Y000672D02*
X003720Y000672D01*
X003720Y000552D02*
X003720Y000792D01*
X003855Y000752D02*
X003895Y000792D01*
X003975Y000792D01*
X004015Y000752D01*
X004015Y000592D01*
X003975Y000552D01*
X003895Y000552D01*
X003855Y000592D01*
X003855Y000672D01*
X003935Y000672D01*
X004149Y000592D02*
X004149Y000792D01*
X004309Y000792D02*
X004309Y000592D01*
X004269Y000552D01*
X004189Y000552D01*
X004149Y000592D01*
X004444Y000592D02*
X004444Y000752D01*
X004484Y000792D01*
X004564Y000792D01*
X004604Y000752D01*
X004604Y000592D01*
X004564Y000552D01*
X004484Y000552D01*
X004444Y000592D01*
X004739Y000552D02*
X004739Y000792D01*
X004739Y000672D02*
X004899Y000672D01*
X004899Y000552D02*
X004899Y000792D01*
X005033Y000792D02*
X005193Y000792D01*
X005113Y000792D02*
X005113Y000552D01*
X005328Y000672D02*
X005488Y000672D01*
X005623Y000792D02*
X005783Y000792D01*
X005703Y000792D02*
X005703Y000552D01*
X005917Y000592D02*
X005917Y000752D01*
X005957Y000792D01*
X006037Y000792D01*
X006077Y000752D01*
X006077Y000592D01*
X006037Y000552D01*
X005957Y000552D01*
X005917Y000592D01*
X006212Y000592D02*
X006252Y000552D01*
X006372Y000552D01*
X006372Y000792D01*
X006252Y000792D01*
X006212Y000752D01*
X006212Y000712D01*
X006252Y000672D01*
X006372Y000672D01*
X006252Y000672D02*
X006212Y000632D01*
X006212Y000592D01*
X004722Y001802D02*
X004562Y001802D01*
X004427Y001802D02*
X004267Y001802D01*
X004347Y001922D02*
X004427Y001922D01*
X004427Y002042D02*
X004427Y001802D01*
X004427Y002042D02*
X004267Y002042D01*
X004133Y002042D02*
X003973Y002042D01*
X003838Y002042D02*
X003678Y002042D01*
X003758Y002042D02*
X003758Y001802D01*
X004053Y001922D02*
X004133Y001922D01*
X004133Y001802D02*
X004133Y002042D01*
X004722Y002042D02*
X004722Y001802D01*
X004642Y002802D02*
X004562Y002882D01*
X004562Y003042D01*
X004427Y003002D02*
X004427Y002842D01*
X004387Y002802D01*
X004307Y002802D01*
X004267Y002842D01*
X004133Y002842D02*
X004133Y003002D01*
X004093Y003042D01*
X004013Y003042D01*
X003973Y003002D01*
X003973Y002842D02*
X004013Y002802D01*
X004093Y002802D01*
X004133Y002842D01*
X004267Y003002D02*
X004307Y003042D01*
X004387Y003042D01*
X004427Y003002D01*
X004642Y002802D02*
X004722Y002882D01*
X004722Y003042D01*
X004682Y003802D02*
X004602Y003802D01*
X004562Y003842D01*
X004562Y003922D01*
X004642Y003922D01*
X004722Y003842D02*
X004682Y003802D01*
X004722Y003842D02*
X004722Y004002D01*
X004682Y004042D01*
X004602Y004042D01*
X004562Y004002D01*
X004427Y004042D02*
X004427Y003802D01*
X004267Y003802D02*
X004267Y004042D01*
X004133Y004042D02*
X004133Y003802D01*
X004013Y003802D01*
X003973Y003842D01*
X003973Y004002D01*
X004013Y004042D01*
X004133Y004042D01*
X004267Y003802D02*
X004427Y004042D01*
X004427Y004802D02*
X004427Y005042D01*
X004267Y004802D01*
X004267Y005042D01*
X004133Y005042D02*
X004013Y005042D01*
X003973Y005002D01*
X003973Y004842D01*
X004013Y004802D01*
X004133Y004802D01*
X004133Y005042D01*
X004562Y005002D02*
X004602Y005042D01*
X004682Y005042D01*
X004722Y005002D01*
X004722Y004842D01*
X004682Y004802D01*
X004602Y004802D01*
X004562Y004842D01*
X004562Y004922D01*
X004642Y004922D01*
X004642Y005702D02*
X004562Y005782D01*
X004562Y005942D01*
X004427Y005902D02*
X004427Y005742D01*
X004387Y005702D01*
X004307Y005702D01*
X004267Y005742D01*
X004267Y005902D02*
X004307Y005942D01*
X004387Y005942D01*
X004427Y005902D01*
X004642Y005702D02*
X004722Y005782D01*
X004722Y005942D01*
X004133Y005902D02*
X004133Y005742D01*
X004093Y005702D01*
X004013Y005702D01*
X003973Y005742D01*
X003973Y005902D02*
X004013Y005942D01*
X004093Y005942D01*
X004133Y005902D01*
X003462Y004952D02*
X003195Y004952D01*
X003142Y004899D01*
X003142Y004792D01*
X003195Y004739D01*
X003462Y004739D01*
X003409Y004584D02*
X003462Y004530D01*
X003462Y004424D01*
X003409Y004370D01*
X003195Y004370D01*
X003142Y004424D01*
X003142Y004530D01*
X003195Y004584D01*
X003142Y004216D02*
X003462Y004216D01*
X003355Y004109D01*
X003462Y004002D01*
X003142Y004002D01*
X001652Y003992D02*
X001652Y003752D01*
X001492Y003752D01*
X001357Y003752D02*
X001197Y003752D01*
X001063Y003752D02*
X001063Y003992D01*
X000903Y003992D01*
X000768Y003992D02*
X000608Y003992D01*
X000688Y003992D02*
X000688Y003752D01*
X000983Y003872D02*
X001063Y003872D01*
X001197Y003992D02*
X001357Y003992D01*
X001357Y003752D01*
X001357Y003872D02*
X001277Y003872D01*
X001277Y004752D02*
X001357Y004752D01*
X001317Y004752D02*
X001317Y004992D01*
X001357Y004992D02*
X001277Y004992D01*
X001161Y004952D02*
X001161Y004792D01*
X001121Y004752D01*
X001041Y004752D01*
X001001Y004792D01*
X001001Y004872D01*
X001081Y004872D01*
X001161Y004952D02*
X001121Y004992D01*
X001041Y004992D01*
X001001Y004952D01*
X000866Y004992D02*
X000866Y004752D01*
X000866Y004872D02*
X000706Y004872D01*
X000706Y004992D02*
X000706Y004752D01*
X000492Y004752D02*
X000492Y004992D01*
X000572Y004992D02*
X000411Y004992D01*
X000943Y005752D02*
X000903Y005792D01*
X000903Y005952D01*
X000943Y005992D01*
X001063Y005992D01*
X001063Y005752D01*
X000943Y005752D01*
X001197Y005752D02*
X001197Y005992D01*
X001357Y005992D02*
X001197Y005752D01*
X001357Y005752D02*
X001357Y005992D01*
X001492Y005952D02*
X001532Y005992D01*
X001612Y005992D01*
X001652Y005952D01*
X001652Y005792D01*
X001612Y005752D01*
X001532Y005752D01*
X001492Y005792D01*
X001492Y005872D01*
X001572Y005872D01*
X001532Y004992D02*
X001492Y004952D01*
X001492Y004872D01*
X001532Y004832D01*
X001652Y004832D01*
X001652Y004752D02*
X001652Y004992D01*
X001532Y004992D01*
X001572Y004832D02*
X001492Y004752D01*
X001492Y002992D02*
X001492Y002832D01*
X001572Y002752D01*
X001652Y002832D01*
X001652Y002992D01*
X001357Y002952D02*
X001357Y002792D01*
X001317Y002752D01*
X001237Y002752D01*
X001197Y002792D01*
X001063Y002792D02*
X001023Y002752D01*
X000943Y002752D01*
X000903Y002792D01*
X000903Y002952D02*
X000943Y002992D01*
X001023Y002992D01*
X001063Y002952D01*
X001063Y002792D01*
X001197Y002952D02*
X001237Y002992D01*
X001317Y002992D01*
X001357Y002952D01*
X003562Y006802D02*
X003562Y007042D01*
X003642Y007042D02*
X003481Y007042D01*
X003776Y007042D02*
X003776Y006802D01*
X003776Y006922D02*
X003936Y006922D01*
X003936Y006802D02*
X003936Y007042D01*
X004071Y007002D02*
X004111Y007042D01*
X004191Y007042D01*
X004231Y007002D01*
X004231Y006842D01*
X004191Y006802D01*
X004111Y006802D01*
X004071Y006842D01*
X004071Y006922D01*
X004151Y006922D01*
X004347Y006802D02*
X004427Y006802D01*
X004387Y006802D02*
X004387Y007042D01*
X004427Y007042D02*
X004347Y007042D01*
X004562Y007002D02*
X004562Y006922D01*
X004602Y006882D01*
X004722Y006882D01*
X004722Y006802D02*
X004722Y007042D01*
X004602Y007042D01*
X004562Y007002D01*
X004642Y006882D02*
X004562Y006802D01*
X004212Y007392D02*
X004052Y007392D01*
X003998Y007445D01*
X003998Y007499D01*
X004052Y007552D01*
X004212Y007552D01*
X004212Y007392D02*
X004212Y007712D01*
X004052Y007712D01*
X003998Y007659D01*
X003998Y007606D01*
X004052Y007552D01*
X003844Y007445D02*
X003790Y007392D01*
X003684Y007392D01*
X003630Y007445D01*
X003630Y007659D01*
X003684Y007712D01*
X003790Y007712D01*
X003844Y007659D01*
X003844Y007445D01*
X003475Y007392D02*
X003475Y007606D01*
X003369Y007712D01*
X003262Y007606D01*
X003262Y007392D01*
X003262Y007552D02*
X003475Y007552D01*
X003574Y007892D02*
X003520Y007945D01*
X003574Y007892D02*
X003680Y007892D01*
X003734Y007945D01*
X003734Y008159D01*
X003680Y008212D01*
X003574Y008212D01*
X003520Y008159D01*
X003366Y008159D02*
X003366Y007945D01*
X003312Y007892D01*
X003205Y007892D01*
X003152Y007945D01*
X003152Y008159D01*
X003205Y008212D01*
X003312Y008212D01*
X003366Y008159D01*
X002997Y008212D02*
X002997Y007892D01*
X002837Y007892D01*
X002784Y007945D01*
X002784Y008159D01*
X002837Y008212D01*
X002997Y008212D01*
X002629Y008212D02*
X002629Y007892D01*
X002415Y007892D01*
X002522Y008052D02*
X002629Y008052D01*
X002629Y008212D02*
X002415Y008212D01*
X002261Y008212D02*
X002100Y008212D01*
X002047Y008159D01*
X002047Y008052D01*
X002100Y007999D01*
X002261Y007999D01*
X002261Y007892D02*
X002261Y008212D01*
X002154Y007999D02*
X002047Y007892D01*
X002525Y007659D02*
X002525Y007445D01*
X002579Y007392D01*
X002739Y007392D01*
X002739Y007712D01*
X002579Y007712D01*
X002525Y007659D01*
X002894Y007659D02*
X002894Y007552D01*
X002947Y007499D01*
X003107Y007499D01*
X003000Y007499D02*
X002894Y007392D01*
X003107Y007392D02*
X003107Y007712D01*
X002947Y007712D01*
X002894Y007659D01*
X003889Y007892D02*
X003889Y008212D01*
X004102Y008212D02*
X003889Y007892D01*
X004102Y007892D02*
X004102Y008212D01*
X004257Y008212D02*
X004470Y008212D01*
X004470Y007892D01*
X004257Y007892D01*
X004364Y008052D02*
X004470Y008052D01*
X004994Y007892D02*
X005207Y007892D01*
X005207Y008212D01*
X005362Y008106D02*
X005362Y007892D01*
X005362Y008052D02*
X005575Y008052D01*
X005575Y008106D02*
X005469Y008212D01*
X005362Y008106D01*
X005575Y008106D02*
X005575Y007892D01*
X005730Y007945D02*
X005730Y008212D01*
X005730Y007945D02*
X005784Y007892D01*
X005890Y007892D01*
X005944Y007945D01*
X005944Y008212D01*
X006098Y008159D02*
X006152Y008212D01*
X006312Y008212D01*
X006312Y007892D01*
X006152Y007892D01*
X006098Y007945D01*
X006098Y008159D01*
X006235Y005894D02*
X006182Y005840D01*
X006182Y005734D01*
X006235Y005680D01*
X006342Y005734D02*
X006342Y005840D01*
X006289Y005894D01*
X006235Y005894D01*
X006342Y005734D02*
X006395Y005680D01*
X006449Y005680D01*
X006502Y005734D01*
X006502Y005840D01*
X006449Y005894D01*
X006449Y005525D02*
X006342Y005525D01*
X006289Y005472D01*
X006289Y005312D01*
X006289Y005419D02*
X006182Y005525D01*
X006182Y005312D02*
X006502Y005312D01*
X006502Y005472D01*
X006449Y005525D01*
X006502Y005157D02*
X006502Y004944D01*
X006182Y004944D01*
X006182Y005157D01*
X006342Y005050D02*
X006342Y004944D01*
X006235Y004789D02*
X006449Y004789D01*
X006502Y004735D01*
X006502Y004575D01*
X006182Y004575D01*
X006182Y004735D01*
X006235Y004789D01*
X006235Y004420D02*
X006449Y004420D01*
X006502Y004367D01*
X006502Y004260D01*
X006449Y004207D01*
X006235Y004207D01*
X006182Y004260D01*
X006182Y004367D01*
X006235Y004420D01*
X006235Y004052D02*
X006182Y003999D01*
X006182Y003892D01*
X006235Y003839D01*
X006449Y003839D01*
X006502Y003892D01*
X006502Y003999D01*
X006449Y004052D01*
X006502Y003684D02*
X006182Y003684D01*
X006502Y003470D01*
X006182Y003470D01*
X006182Y003316D02*
X006182Y003102D01*
X006502Y003102D01*
X006502Y003316D01*
X006342Y003209D02*
X006342Y003102D01*
D11*
X006335Y002541D02*
X006292Y002498D01*
X006292Y002411D01*
X006335Y002368D01*
X006335Y002264D02*
X006292Y002264D01*
X006292Y002221D01*
X006335Y002221D01*
X006335Y002264D01*
X006335Y002099D02*
X006292Y002056D01*
X006292Y001969D01*
X006335Y001926D01*
X006509Y002099D01*
X006335Y002099D01*
X006335Y001926D02*
X006509Y001926D01*
X006552Y001969D01*
X006552Y002056D01*
X006509Y002099D01*
X006509Y002368D02*
X006552Y002411D01*
X006552Y002498D01*
X006509Y002541D01*
X006465Y002541D01*
X006422Y002498D01*
X006379Y002541D01*
X006335Y002541D01*
X006422Y002498D02*
X006422Y002455D01*
X006379Y001805D02*
X006552Y001805D01*
X006379Y001805D02*
X006292Y001718D01*
X006379Y001631D01*
X006552Y001631D01*
X006552Y001510D02*
X006552Y001337D01*
X006292Y001337D01*
X006292Y001510D01*
X006422Y001423D02*
X006422Y001337D01*
X006422Y001216D02*
X006379Y001172D01*
X006379Y001042D01*
X006379Y001129D02*
X006292Y001216D01*
X006422Y001216D02*
X006509Y001216D01*
X006552Y001172D01*
X006552Y001042D01*
X006292Y001042D01*
M02*
