G75*
G70*
%OFA0B0*%
%FSLAX24Y24*%
%IPPOS*%
%LPD*%
%AMOC8*
5,1,8,0,0,1.08239X$1,22.5*
%
%ADD10C,0.0000*%
D10*
X001140Y000140D02*
X009140Y000140D01*
X009200Y000142D01*
X009261Y000147D01*
X009320Y000156D01*
X009379Y000169D01*
X009438Y000185D01*
X009495Y000205D01*
X009550Y000228D01*
X009605Y000255D01*
X009657Y000284D01*
X009708Y000317D01*
X009757Y000353D01*
X009803Y000391D01*
X009847Y000433D01*
X009889Y000477D01*
X009927Y000523D01*
X009963Y000572D01*
X009996Y000623D01*
X010025Y000675D01*
X010052Y000730D01*
X010075Y000785D01*
X010095Y000842D01*
X010111Y000901D01*
X010124Y000960D01*
X010133Y001019D01*
X010138Y001080D01*
X010140Y001140D01*
X010140Y004640D01*
X008707Y004640D02*
X008709Y004681D01*
X008715Y004722D01*
X008725Y004762D01*
X008738Y004801D01*
X008755Y004838D01*
X008776Y004874D01*
X008800Y004908D01*
X008827Y004939D01*
X008856Y004967D01*
X008889Y004993D01*
X008923Y005015D01*
X008960Y005034D01*
X008998Y005049D01*
X009038Y005061D01*
X009078Y005069D01*
X009119Y005073D01*
X009161Y005073D01*
X009202Y005069D01*
X009242Y005061D01*
X009282Y005049D01*
X009320Y005034D01*
X009356Y005015D01*
X009391Y004993D01*
X009424Y004967D01*
X009453Y004939D01*
X009480Y004908D01*
X009504Y004874D01*
X009525Y004838D01*
X009542Y004801D01*
X009555Y004762D01*
X009565Y004722D01*
X009571Y004681D01*
X009573Y004640D01*
X009571Y004599D01*
X009565Y004558D01*
X009555Y004518D01*
X009542Y004479D01*
X009525Y004442D01*
X009504Y004406D01*
X009480Y004372D01*
X009453Y004341D01*
X009424Y004313D01*
X009391Y004287D01*
X009357Y004265D01*
X009320Y004246D01*
X009282Y004231D01*
X009242Y004219D01*
X009202Y004211D01*
X009161Y004207D01*
X009119Y004207D01*
X009078Y004211D01*
X009038Y004219D01*
X008998Y004231D01*
X008960Y004246D01*
X008924Y004265D01*
X008889Y004287D01*
X008856Y004313D01*
X008827Y004341D01*
X008800Y004372D01*
X008776Y004406D01*
X008755Y004442D01*
X008738Y004479D01*
X008725Y004518D01*
X008715Y004558D01*
X008709Y004599D01*
X008707Y004640D01*
X009140Y005640D02*
X009200Y005638D01*
X009261Y005633D01*
X009320Y005624D01*
X009379Y005611D01*
X009438Y005595D01*
X009495Y005575D01*
X009550Y005552D01*
X009605Y005525D01*
X009657Y005496D01*
X009708Y005463D01*
X009757Y005427D01*
X009803Y005389D01*
X009847Y005347D01*
X009889Y005303D01*
X009927Y005257D01*
X009963Y005208D01*
X009996Y005157D01*
X010025Y005105D01*
X010052Y005050D01*
X010075Y004995D01*
X010095Y004938D01*
X010111Y004879D01*
X010124Y004820D01*
X010133Y004761D01*
X010138Y004700D01*
X010140Y004640D01*
X009140Y005640D02*
X001140Y005640D01*
X000707Y004640D02*
X000709Y004681D01*
X000715Y004722D01*
X000725Y004762D01*
X000738Y004801D01*
X000755Y004838D01*
X000776Y004874D01*
X000800Y004908D01*
X000827Y004939D01*
X000856Y004967D01*
X000889Y004993D01*
X000923Y005015D01*
X000960Y005034D01*
X000998Y005049D01*
X001038Y005061D01*
X001078Y005069D01*
X001119Y005073D01*
X001161Y005073D01*
X001202Y005069D01*
X001242Y005061D01*
X001282Y005049D01*
X001320Y005034D01*
X001356Y005015D01*
X001391Y004993D01*
X001424Y004967D01*
X001453Y004939D01*
X001480Y004908D01*
X001504Y004874D01*
X001525Y004838D01*
X001542Y004801D01*
X001555Y004762D01*
X001565Y004722D01*
X001571Y004681D01*
X001573Y004640D01*
X001571Y004599D01*
X001565Y004558D01*
X001555Y004518D01*
X001542Y004479D01*
X001525Y004442D01*
X001504Y004406D01*
X001480Y004372D01*
X001453Y004341D01*
X001424Y004313D01*
X001391Y004287D01*
X001357Y004265D01*
X001320Y004246D01*
X001282Y004231D01*
X001242Y004219D01*
X001202Y004211D01*
X001161Y004207D01*
X001119Y004207D01*
X001078Y004211D01*
X001038Y004219D01*
X000998Y004231D01*
X000960Y004246D01*
X000924Y004265D01*
X000889Y004287D01*
X000856Y004313D01*
X000827Y004341D01*
X000800Y004372D01*
X000776Y004406D01*
X000755Y004442D01*
X000738Y004479D01*
X000725Y004518D01*
X000715Y004558D01*
X000709Y004599D01*
X000707Y004640D01*
X000140Y004640D02*
X000142Y004700D01*
X000147Y004761D01*
X000156Y004820D01*
X000169Y004879D01*
X000185Y004938D01*
X000205Y004995D01*
X000228Y005050D01*
X000255Y005105D01*
X000284Y005157D01*
X000317Y005208D01*
X000353Y005257D01*
X000391Y005303D01*
X000433Y005347D01*
X000477Y005389D01*
X000523Y005427D01*
X000572Y005463D01*
X000623Y005496D01*
X000675Y005525D01*
X000730Y005552D01*
X000785Y005575D01*
X000842Y005595D01*
X000901Y005611D01*
X000960Y005624D01*
X001019Y005633D01*
X001080Y005638D01*
X001140Y005640D01*
X000140Y004640D02*
X000140Y001140D01*
X000142Y001080D01*
X000147Y001019D01*
X000156Y000960D01*
X000169Y000901D01*
X000185Y000842D01*
X000205Y000785D01*
X000228Y000730D01*
X000255Y000675D01*
X000284Y000623D01*
X000317Y000572D01*
X000353Y000523D01*
X000391Y000477D01*
X000433Y000433D01*
X000477Y000391D01*
X000523Y000353D01*
X000572Y000317D01*
X000623Y000284D01*
X000675Y000255D01*
X000730Y000228D01*
X000785Y000205D01*
X000842Y000185D01*
X000901Y000169D01*
X000960Y000156D01*
X001019Y000147D01*
X001080Y000142D01*
X001140Y000140D01*
M02*
