G75*
G70*
%OFA0B0*%
%FSLAX24Y24*%
%IPPOS*%
%LPD*%
%AMOC8*
5,1,8,0,0,1.08239X$1,22.5*
%
%ADD10C,0.0080*%
%ADD11C,0.0103*%
%ADD12R,0.0177X0.0177*%
D10*
X000890Y000340D02*
X000640Y000590D01*
X000640Y001090D01*
X000890Y001340D01*
X001390Y001340D01*
X001640Y001090D01*
X001890Y001340D01*
X002390Y001340D01*
X002640Y001090D01*
X002890Y001340D01*
X003390Y001340D01*
X003640Y001090D01*
X003890Y001340D01*
X004390Y001340D01*
X004640Y001090D01*
X004890Y001340D01*
X005390Y001340D01*
X005640Y001090D01*
X005890Y001340D01*
X006390Y001340D01*
X006640Y001090D01*
X006890Y001340D01*
X007390Y001340D01*
X007640Y001090D01*
X007890Y001340D01*
X008390Y001340D01*
X008640Y001090D01*
X008890Y001340D01*
X009390Y001340D01*
X009640Y001090D01*
X009640Y000590D01*
X009390Y000340D01*
X008890Y000340D01*
X008640Y000590D01*
X008390Y000340D01*
X007890Y000340D01*
X007640Y000590D01*
X007640Y001090D01*
X007640Y000590D02*
X007390Y000340D01*
X006890Y000340D01*
X006640Y000590D01*
X006390Y000340D01*
X005890Y000340D01*
X005640Y000590D01*
X005390Y000340D01*
X004890Y000340D01*
X004640Y000590D01*
X004640Y001090D01*
X004640Y000590D02*
X004390Y000340D01*
X003890Y000340D01*
X003640Y000590D01*
X003390Y000340D01*
X002890Y000340D01*
X002640Y000590D01*
X002390Y000340D01*
X001890Y000340D01*
X001640Y000590D01*
X001390Y000340D01*
X000890Y000340D01*
X001640Y000590D02*
X001640Y001090D01*
X002640Y001090D02*
X002640Y000590D01*
X003640Y000590D02*
X003640Y001090D01*
X003585Y001560D02*
X003585Y001800D01*
X003451Y001760D02*
X003291Y001600D01*
X003331Y001560D01*
X003411Y001560D01*
X003451Y001600D01*
X003451Y001760D01*
X003411Y001800D01*
X003331Y001800D01*
X003291Y001760D01*
X003291Y001600D01*
X003156Y001560D02*
X002996Y001560D01*
X003076Y001560D02*
X003076Y001800D01*
X002996Y001720D01*
X003585Y001640D02*
X003745Y001800D01*
X003625Y001680D02*
X003745Y001560D01*
X003625Y002249D02*
X003349Y002249D01*
X003349Y002328D01*
X002450Y002430D02*
X002450Y002644D01*
X002450Y002537D02*
X002130Y002537D01*
X002236Y002430D01*
X002183Y002798D02*
X002130Y002852D01*
X002130Y002958D01*
X002183Y003012D01*
X002397Y002798D01*
X002450Y002852D01*
X002450Y002958D01*
X002397Y003012D01*
X002183Y003012D01*
X002290Y003167D02*
X002290Y003380D01*
X002450Y003327D02*
X002130Y003327D01*
X002290Y003167D01*
X002397Y002798D02*
X002183Y002798D01*
X001590Y003240D02*
X001590Y002240D01*
X001588Y002223D01*
X001584Y002206D01*
X001577Y002190D01*
X001567Y002176D01*
X001554Y002163D01*
X001540Y002153D01*
X001524Y002146D01*
X001507Y002142D01*
X001490Y002140D01*
X000890Y002140D01*
X000873Y002142D01*
X000856Y002146D01*
X000840Y002153D01*
X000826Y002163D01*
X000813Y002176D01*
X000803Y002190D01*
X000796Y002206D01*
X000792Y002223D01*
X000790Y002240D01*
X000790Y003240D01*
X000792Y003257D01*
X000796Y003274D01*
X000803Y003290D01*
X000813Y003304D01*
X000826Y003317D01*
X000840Y003327D01*
X000856Y003334D01*
X000873Y003338D01*
X000890Y003340D01*
X001490Y003340D01*
X001507Y003338D01*
X001524Y003334D01*
X001540Y003327D01*
X001554Y003317D01*
X001567Y003304D01*
X001577Y003290D01*
X001584Y003274D01*
X001588Y003257D01*
X001590Y003240D01*
X001300Y003480D02*
X001300Y003694D01*
X001300Y003587D02*
X000980Y003587D01*
X001086Y003480D01*
X000650Y003538D02*
X000610Y003498D01*
X000450Y003658D01*
X000610Y003658D01*
X000650Y003618D01*
X000650Y003538D01*
X000610Y003498D02*
X000450Y003498D01*
X000410Y003538D01*
X000410Y003618D01*
X000450Y003658D01*
X000490Y003793D02*
X000650Y003953D01*
X000650Y003793D02*
X000490Y003953D01*
X000450Y003363D02*
X000610Y003203D01*
X000650Y003243D01*
X000650Y003323D01*
X000610Y003363D01*
X000450Y003363D01*
X000410Y003323D01*
X000410Y003243D01*
X000450Y003203D01*
X000610Y003203D01*
X000650Y003069D02*
X000650Y002909D01*
X000650Y002989D02*
X000410Y002989D01*
X000490Y002909D01*
X000650Y002774D02*
X000650Y002614D01*
X000650Y002694D02*
X000410Y002694D01*
X000490Y002614D01*
X000450Y002479D02*
X000410Y002439D01*
X000410Y002359D01*
X000450Y002319D01*
X000610Y002319D01*
X000450Y002479D01*
X000610Y002479D01*
X000650Y002439D01*
X000650Y002359D01*
X000610Y002319D01*
X000650Y002185D02*
X000650Y002025D01*
X000650Y002105D02*
X000410Y002105D01*
X000490Y002025D01*
X000530Y001890D02*
X000490Y001850D01*
X000490Y001730D01*
X000410Y001730D02*
X000650Y001730D01*
X000650Y001850D01*
X000610Y001890D01*
X000530Y001890D01*
X001030Y001883D02*
X001083Y001830D01*
X001297Y001830D01*
X001083Y002044D01*
X001297Y002044D01*
X001350Y001990D01*
X001350Y001883D01*
X001297Y001830D01*
X001030Y001883D02*
X001030Y001990D01*
X001083Y002044D01*
X003349Y003352D02*
X003349Y003431D01*
X003625Y003431D01*
X004255Y003431D02*
X004531Y003431D01*
X004531Y003352D01*
X005380Y002994D02*
X005380Y002833D01*
X005433Y002780D01*
X005594Y002780D01*
X005594Y002727D02*
X005540Y002673D01*
X005487Y002673D01*
X005594Y002727D02*
X005594Y002994D01*
X006180Y003064D02*
X006394Y003064D01*
X006180Y002850D01*
X006394Y002850D01*
X006837Y003083D02*
X006837Y003297D01*
X006730Y003190D02*
X006944Y003190D01*
X007654Y003318D02*
X007844Y003299D01*
X007865Y003235D01*
X007896Y003175D01*
X007775Y003026D01*
X007876Y002925D01*
X008025Y003046D01*
X008085Y003015D01*
X008169Y003219D01*
X008132Y003241D01*
X008100Y003270D01*
X008076Y003306D01*
X008061Y003347D01*
X008055Y003390D01*
X008061Y003434D01*
X008076Y003475D01*
X008101Y003512D01*
X008134Y003541D01*
X008173Y003562D01*
X008216Y003573D01*
X008260Y003573D01*
X008303Y003563D01*
X008342Y003543D01*
X008376Y003515D01*
X008402Y003479D01*
X008418Y003438D01*
X008424Y003394D01*
X008420Y003350D01*
X008405Y003308D01*
X008381Y003271D01*
X008349Y003241D01*
X008311Y003219D01*
X008395Y003015D01*
X008455Y003046D01*
X008604Y002925D01*
X008705Y003026D01*
X008584Y003175D01*
X008615Y003235D01*
X008636Y003299D01*
X008826Y003318D01*
X008826Y003462D01*
X008636Y003481D01*
X008615Y003545D01*
X008584Y003605D01*
X008705Y003754D01*
X008604Y003855D01*
X008455Y003734D01*
X008395Y003765D01*
X008331Y003786D01*
X008312Y003976D01*
X008168Y003976D01*
X008149Y003786D01*
X008085Y003765D01*
X008025Y003734D01*
X007876Y003855D01*
X007775Y003754D01*
X007896Y003605D01*
X007865Y003545D01*
X007844Y003481D01*
X007654Y003462D01*
X007654Y003318D01*
X007654Y003359D02*
X008059Y003359D01*
X008062Y003437D02*
X007654Y003437D01*
X007855Y003516D02*
X008106Y003516D01*
X007890Y003594D02*
X008590Y003594D01*
X008639Y003673D02*
X007841Y003673D01*
X007777Y003751D02*
X008004Y003751D01*
X008057Y003751D02*
X008423Y003751D01*
X008476Y003751D02*
X008703Y003751D01*
X008629Y003830D02*
X008572Y003830D01*
X008327Y003830D02*
X008153Y003830D01*
X008161Y003908D02*
X008319Y003908D01*
X007908Y003830D02*
X007851Y003830D01*
X008375Y003516D02*
X008625Y003516D01*
X008826Y003437D02*
X008418Y003437D01*
X008421Y003359D02*
X008826Y003359D01*
X008630Y003280D02*
X008387Y003280D01*
X008318Y003202D02*
X008598Y003202D01*
X008627Y003123D02*
X008351Y003123D01*
X008383Y003045D02*
X008453Y003045D01*
X008457Y003045D02*
X008691Y003045D01*
X008645Y002966D02*
X008553Y002966D01*
X008129Y003123D02*
X007853Y003123D01*
X007882Y003202D02*
X008162Y003202D01*
X008093Y003280D02*
X007850Y003280D01*
X007789Y003045D02*
X008023Y003045D01*
X008027Y003045D02*
X008097Y003045D01*
X007927Y002966D02*
X007835Y002966D01*
X008087Y002500D02*
X008087Y002180D01*
X007980Y002180D02*
X008194Y002180D01*
X008348Y002233D02*
X008402Y002180D01*
X008508Y002180D01*
X008562Y002233D01*
X008562Y002447D01*
X008348Y002233D01*
X008348Y002447D01*
X008402Y002500D01*
X008508Y002500D01*
X008562Y002447D01*
X008717Y002500D02*
X008717Y002340D01*
X008823Y002394D01*
X008877Y002394D01*
X008930Y002340D01*
X008930Y002233D01*
X008877Y002180D01*
X008770Y002180D01*
X008717Y002233D01*
X008717Y002500D02*
X008930Y002500D01*
X009430Y002430D02*
X009430Y002590D01*
X009483Y002644D01*
X009590Y002644D01*
X009643Y002590D01*
X009643Y002430D01*
X009643Y002537D02*
X009750Y002644D01*
X009697Y002798D02*
X009483Y002798D01*
X009430Y002852D01*
X009430Y002958D01*
X009483Y003012D01*
X009697Y002798D01*
X009750Y002852D01*
X009750Y002958D01*
X009697Y003012D01*
X009483Y003012D01*
X009697Y003167D02*
X009697Y003220D01*
X009750Y003220D01*
X009750Y003167D01*
X009697Y003167D01*
X009750Y003351D02*
X009536Y003564D01*
X009483Y003564D01*
X009430Y003511D01*
X009430Y003404D01*
X009483Y003351D01*
X009750Y003351D02*
X009750Y003564D01*
X008087Y002500D02*
X007980Y002394D01*
X007494Y002140D02*
X007280Y002140D01*
X007387Y002247D02*
X007387Y002033D01*
X006394Y002030D02*
X006180Y002244D01*
X006180Y002030D02*
X006394Y002244D01*
X004531Y002249D02*
X004531Y002328D01*
X004531Y002249D02*
X004255Y002249D01*
X005640Y001090D02*
X005640Y000590D01*
X006640Y000590D02*
X006640Y001090D01*
X008640Y001090D02*
X008640Y000590D01*
X009430Y002430D02*
X009750Y002430D01*
X006472Y004433D02*
X006418Y004380D01*
X006312Y004380D01*
X006258Y004433D01*
X006472Y004647D01*
X006472Y004433D01*
X006258Y004433D02*
X006258Y004647D01*
X006312Y004700D01*
X006418Y004700D01*
X006472Y004647D01*
X006246Y004910D02*
X006176Y004840D01*
X006106Y004840D01*
X006246Y004910D02*
X006246Y005260D01*
X006426Y005260D02*
X006426Y004980D01*
X006426Y005120D02*
X006566Y005260D01*
X006636Y005260D01*
X006810Y005190D02*
X006810Y005050D01*
X006880Y004980D01*
X007020Y004980D01*
X007090Y005050D01*
X007090Y005190D01*
X007020Y005260D01*
X006880Y005260D01*
X006810Y005190D01*
X006246Y004980D02*
X006036Y004980D01*
X005966Y005050D01*
X005966Y005260D01*
X005785Y005190D02*
X005645Y005190D01*
X005785Y005190D02*
X005785Y005050D01*
X005715Y004980D01*
X005575Y004980D01*
X005505Y005050D01*
X005505Y005330D01*
X005575Y005400D01*
X005715Y005400D01*
X005785Y005330D01*
X005332Y005260D02*
X005262Y005260D01*
X005122Y005120D01*
X004941Y005120D02*
X004941Y005190D01*
X004871Y005260D01*
X004731Y005260D01*
X004661Y005190D01*
X004661Y005050D01*
X004731Y004980D01*
X004871Y004980D01*
X004941Y005120D02*
X004661Y005120D01*
X004481Y005260D02*
X004341Y004980D01*
X004201Y005260D01*
X004021Y005190D02*
X003951Y005260D01*
X003810Y005260D01*
X003740Y005190D01*
X003740Y005050D01*
X003810Y004980D01*
X003951Y004980D01*
X004021Y005050D01*
X004021Y005190D01*
X003560Y005190D02*
X003490Y005120D01*
X003280Y005120D01*
X003280Y004980D02*
X003280Y005400D01*
X003490Y005400D01*
X003560Y005330D01*
X003560Y005190D01*
X003420Y005120D02*
X003560Y004980D01*
X003680Y004700D02*
X003787Y004594D01*
X003894Y004700D01*
X003894Y004380D01*
X004048Y004380D02*
X004048Y004594D01*
X004155Y004700D01*
X004262Y004594D01*
X004262Y004380D01*
X004417Y004380D02*
X004630Y004700D01*
X004785Y004647D02*
X004838Y004700D01*
X004945Y004700D01*
X004998Y004647D01*
X004998Y004594D01*
X004785Y004380D01*
X004998Y004380D01*
X005153Y004380D02*
X005367Y004380D01*
X005260Y004380D02*
X005260Y004700D01*
X005153Y004594D01*
X005522Y004647D02*
X005522Y004433D01*
X005735Y004647D01*
X005735Y004433D01*
X005682Y004380D01*
X005575Y004380D01*
X005522Y004433D01*
X005522Y004647D02*
X005575Y004700D01*
X005682Y004700D01*
X005735Y004647D01*
X005890Y004647D02*
X005943Y004700D01*
X006050Y004700D01*
X006103Y004647D01*
X005890Y004433D01*
X005943Y004380D01*
X006050Y004380D01*
X006103Y004433D01*
X006103Y004647D01*
X005890Y004647D02*
X005890Y004433D01*
X006037Y004097D02*
X006037Y003883D01*
X005930Y003990D02*
X006144Y003990D01*
X004630Y004380D02*
X004417Y004700D01*
X004262Y004540D02*
X004048Y004540D01*
X003680Y004380D02*
X003680Y004700D01*
X003672Y004150D02*
X003512Y003990D01*
X003725Y003990D01*
X003672Y003830D02*
X003672Y004150D01*
X003357Y004097D02*
X003143Y003883D01*
X003197Y003830D01*
X003304Y003830D01*
X003357Y003883D01*
X003357Y004097D01*
X003304Y004150D01*
X003197Y004150D01*
X003143Y004097D01*
X003143Y003883D01*
X002989Y003830D02*
X002775Y003830D01*
X002882Y003830D02*
X002882Y004150D01*
X002775Y004044D01*
X005122Y004980D02*
X005122Y005260D01*
D11*
X006090Y003740D02*
X006040Y003490D01*
X005840Y003390D02*
X005740Y003540D01*
X005640Y003390D01*
X005840Y003390D01*
X006040Y003490D02*
X006030Y003522D01*
X006017Y003553D01*
X006000Y003583D01*
X005980Y003610D01*
X005958Y003635D01*
X005932Y003657D01*
X005905Y003676D01*
X005875Y003692D01*
X005844Y003705D01*
X005811Y003715D01*
X005778Y003720D01*
X005744Y003722D01*
X005711Y003720D01*
X005677Y003715D01*
X005645Y003705D01*
X005614Y003693D01*
X005584Y003677D01*
X005556Y003657D01*
X005531Y003635D01*
X005508Y003610D01*
X005488Y003583D01*
X005471Y003554D01*
X005458Y003523D01*
X005448Y003491D01*
X005442Y003457D01*
X005439Y003424D01*
X005440Y003390D01*
X005740Y003540D02*
X005740Y002390D01*
X006890Y002390D01*
X006740Y002290D01*
X006740Y002490D01*
X006890Y002390D01*
X006890Y002090D02*
X006923Y002094D01*
X006955Y002102D01*
X006987Y002114D01*
X007016Y002129D01*
X007044Y002147D01*
X007070Y002168D01*
X007093Y002192D01*
X007114Y002218D01*
X007131Y002246D01*
X007146Y002276D01*
X007157Y002308D01*
X007164Y002340D01*
X007168Y002373D01*
X007168Y002407D01*
X007164Y002440D01*
X007157Y002472D01*
X007146Y002504D01*
X007131Y002534D01*
X007114Y002562D01*
X007093Y002588D01*
X007070Y002612D01*
X007044Y002633D01*
X007016Y002651D01*
X006987Y002666D01*
X006955Y002678D01*
X006923Y002686D01*
X006890Y002690D01*
X006690Y002790D02*
X006590Y002990D01*
X006592Y002955D01*
X006590Y002920D01*
X006584Y002885D01*
X006575Y002851D01*
X006562Y002819D01*
X006545Y002788D01*
X006525Y002759D01*
X006502Y002732D01*
X006477Y002708D01*
X006448Y002687D01*
X006418Y002669D01*
X006386Y002655D01*
X006353Y002644D01*
X006318Y002637D01*
X006283Y002633D01*
X006248Y002634D01*
X006213Y002638D01*
X006179Y002646D01*
X006146Y002658D01*
X006114Y002673D01*
X006084Y002692D01*
X006057Y002714D01*
X006032Y002739D01*
X006009Y002766D01*
X005990Y002795D01*
X005975Y002827D01*
X005962Y002860D01*
X005954Y002894D01*
X005949Y002929D01*
X005948Y002964D01*
X005951Y002999D01*
X005958Y003034D01*
X005968Y003067D01*
X005982Y003100D01*
X006000Y003130D01*
X006020Y003158D01*
X006044Y003184D01*
X006071Y003208D01*
X006099Y003228D01*
X006130Y003245D01*
X006163Y003259D01*
X006196Y003268D01*
X006231Y003275D01*
X006266Y003277D01*
X006301Y003275D01*
X006336Y003270D01*
X006370Y003261D01*
X006403Y003248D01*
X006434Y003232D01*
X006463Y003213D01*
X006490Y003190D01*
X006890Y002090D02*
X007140Y002040D01*
D12*
X003694Y003086D03*
M02*
